<svg xmlns="http://www.w3.org/2000/svg" xmlns:xlink="http://www.w3.org/1999/xlink" viewBox="0 0 500 500" xmlns:v="https://vecta.io/nano"><style><![CDATA[.B{fill:#ffc727}.C{opacity:.2}.D{fill:#263238}.E{fill:#fff}.F{opacity:.1}.G{opacity:.4}]]></style><g fill="#ebebeb"><use xlink:href="#B"/><use xlink:href="#B" x="-16.678" y="15.93"/><path d="M75.959 59.714l-14.833.279-7.515.112-7.549.055-.444.003-.002-.449-.054-12.633-.002-.502.502.002 14.948.063 14.948.164.275.003-.002.27-.131 6.375-.141 6.258zm0 0l-.142-6.375-.131-6.258.273.273-14.948.164-14.948.062.499-.499-.054 12.633-.446-.446 7.4.055 7.433.112 15.064.279z"/><use xlink:href="#B" x="361.3" y="-257.431"/><use xlink:href="#B" x="344.623" y="-241.501"/><use xlink:href="#C"/><use xlink:href="#B" x="251.377" y="-77.778"/><use xlink:href="#C" x="-33.289"/><use xlink:href="#B" x="361.3" y="15.93"/><use xlink:href="#B" x="107.289" y="-219.864"/><path d="M423.225 180.971l5.887-9.491-2.907-1.8c-.855-.53-1.318-1.496-1.232-2.498a15.75 15.75 0 0 0 .053-1.67c-.022-1.003.502-1.936 1.386-2.41l3.013-1.616-5.28-9.845-3.012 1.616c-.884.474-1.951.394-2.774-.179a15.79 15.79 0 0 0-1.42-.88c-.882-.483-1.431-1.404-1.399-2.408l.108-3.418-11.163-.347-.103 3.43c-.03 1.006-.647 1.881-1.557 2.311l-.734.37-.714.407c-.857.518-1.922.548-2.773.021l-2.928-1.814-5.887 9.491 2.912 1.807c.854.531 1.317 1.498 1.23 2.5a15.62 15.62 0 0 0-.055 1.663c.021 1.001-.503 1.934-1.386 2.407l-3.014 1.616 5.28 9.845 3.014-1.616c.883-.474 1.949-.394 2.772.177a15.53 15.53 0 0 0 1.416.874c.883.482 1.433 1.403 1.402 2.408l-.105 3.426 11.163.347.107-3.427c.031-1.002.646-1.874 1.552-2.303l.74-.373.715-.407c.862-.52 1.931-.55 2.787-.019l2.906 1.805zm-9.451-7.048c-4.452 2.388-9.992.715-12.38-3.737a9.15 9.15 0 0 1 3.733-12.388 9.16 9.16 0 0 1 12.392 3.74c2.387 4.453.707 9.998-3.745 12.385zM101.53 288.51l5.887-9.491-2.907-1.801c-.855-.53-1.318-1.496-1.232-2.498.048-.554.065-1.111.053-1.67-.022-1.003.502-1.936 1.386-2.41l3.013-1.616-5.28-9.845-3.012 1.616c-.884.474-1.951.394-2.774-.179a15.79 15.79 0 0 0-1.42-.88c-.882-.483-1.431-1.404-1.399-2.408l.108-3.418-11.163-.347-.103 3.43c-.03 1.006-.647 1.881-1.557 2.311l-.734.37-.714.407c-.857.518-1.922.548-2.773.021l-2.928-1.814-5.887 9.491 2.912 1.807c.854.531 1.317 1.498 1.23 2.5-.048.552-.066 1.107-.055 1.663.021 1.001-.503 1.934-1.386 2.407l-3.014 1.616 5.28 9.845 3.014-1.616c.883-.474 1.949-.394 2.772.177a15.53 15.53 0 0 0 1.416.874c.883.482 1.433 1.403 1.402 2.408l-.105 3.426 11.163.347.107-3.427c.031-1.002.646-1.874 1.552-2.302l.74-.373.715-.407c.862-.52 1.931-.55 2.787-.019l2.906 1.805zm-9.452-7.048c-4.452 2.388-9.992.715-12.38-3.737a9.15 9.15 0 0 1 3.733-12.388 9.16 9.16 0 0 1 12.392 3.74c2.388 4.453.707 9.997-3.745 12.385zm123.79-174.724l-3.91-6.777-2.074 1.198c-.61.353-1.36.319-1.95-.066-.326-.213-.664-.408-1.013-.586-.626-.318-1.029-.951-1.029-1.653V96.46h-7.826v2.395c0 .702-.403 1.335-1.029 1.653-.349.177-.687.373-1.013.586a1.86 1.86 0 0 1-1.95.066L192 99.962l-3.91 6.777 2.083 1.199c.611.352.947 1.022.911 1.726l-.015.576.015.576c.036.701-.298 1.368-.905 1.719l-2.089 1.207 3.91 6.777 2.08-1.199c.61-.352 1.361-.317 1.951.068.325.212.661.407 1.009.584a1.86 1.86 0 0 1 1.027 1.653v2.396h7.826v-2.396a1.86 1.86 0 0 1 1.027-1.653c.347-.177.684-.372 1.008-.584.59-.385 1.341-.42 1.951-.068l2.08 1.199 3.91-6.777-2.08-1.2c-.609-.351-.943-1.019-.908-1.721l.014-.58-.014-.576c-.036-.704.3-1.375.911-1.727l2.076-1.2zm-7.48 3.502c0 3.539-2.867 6.406-6.406 6.406a6.41 6.41 0 0 1-6.412-6.406c0-3.539 2.873-6.412 6.412-6.412a6.41 6.41 0 0 1 6.406 6.412z"/></g><path d="M88.835 303.84c-13.069 12.794-15.262 32.587-12.508 49.924.071.393.68.286.68-.083l-.107-11.757.203-.525c3.41-2.48 6.546-5.282 8.49-9.122 2.182-4.292 3.04-9.134 4.71-13.617.155-.429-.303-.303-.602-.082-7.949 5.862-10.483 12.172-12.764 20.603.107-4.376.441-8.752 1.383-13.128 1.717-8.001 5.115-15.93 10.863-21.868.213-.226-.121-.572-.348-.345z" class="D"/><use xlink:href="#D" class="B"/><use xlink:href="#D" class="F"/><path d="M90.641 305.886c2.875-1.307 8.396.574 8.866-.514.952-2.214-3.461-3.734-5.843-4.028 2.194-.594 6.397-1.541 6.268-3.657-.158-2.583-6.447-.362-9.63 2.079-4.01 3.075-3.984 6.042-3.321 6.636.909.816 3.185-.3 3.66-.516z" class="B"/><path d="M59.073 302.573c13.545 12.288 16.491 31.983 14.398 49.413-.056.396-.668.312-.682-.057l-.34-11.752-.223-.517c-3.502-2.349-6.742-5.029-8.83-8.792-2.344-4.206-3.386-9.011-5.224-13.428-.171-.423.291-.315.599-.105 8.166 5.556 10.939 11.765 13.539 20.102-.274-4.369-.774-8.729-1.881-13.066-2.02-7.93-5.717-15.724-11.686-21.439-.225-.218.095-.577.33-.359z" class="D"/><use xlink:href="#E" class="B"/><use xlink:href="#E" class="F"/><path d="M57.347 304.686c-2.922-1.197-8.369.893-8.879-.176-1.035-2.177 3.316-3.862 5.685-4.247-2.215-.51-6.451-1.296-6.402-3.415.059-2.587 6.428-.607 9.702 1.711 4.124 2.92 4.211 5.886 3.571 6.505-.878.849-3.195-.18-3.677-.378z" class="B"/><path d="M72.925 335.026c1 6.476 2.24 13.172 4.206 19.429.188.57 1.034.424.947-.191-.89-5.987-2.512-11.864-3.401-17.851-.904-6.058-1.387-12.2-1.04-18.327.57-10.089 3.31-20.821 9.894-28.716.145-.187-.162-.452-.311-.278-13.181 15.368-11.084 34.211-11.072 35.9-1.866-6.363-3.789-13.655-10.847-20.134-.304-.28-.542-.147-.491.328 1.262 11.801 4.543 17.962 11.385 24.271.192 1.87.433 3.731.73 5.569z" class="D"/><use xlink:href="#F" class="B"/><use xlink:href="#F" class="F"/><path d="M83.252 292.04c2.325-2.803 9.001-3.631 8.94-4.996-.127-2.776-5.47-2.131-8.09-1.238 1.977-1.721 5.861-4.819 4.662-6.949-1.464-2.601-6.871 2.87-8.945 7.005-2.613 5.209-1.093 8.274-.105 8.557 1.355.387 3.155-1.916 3.538-2.379zm-18.999 46.538l-5.813 44.416h35.374c-.729-3.936-7.313-44.467-7.313-44.467l-22.248.051z" class="B"/><path d="M43.374 383.143l51.656-.243 51.657-.088L250 382.644l103.313.167 51.656.088 51.657.244-51.657.245-51.656.088-103.313.166-103.313-.167-51.657-.089z" class="D"/><ellipse cx="250" cy="449.04" rx="149.057" ry="21.075" fill="#ebebeb"/><path d="M157.573 227.672l-6.209-24.43-49.038 12.463-6.481-25.5 39.188-89.312 19.437-4.94 18.898 74.359 15.692-3.988 6.526 25.678-15.692 3.988 6.209 24.43-28.53 7.252zm-33.598-44.806l24.252-6.163-8.022-31.563-16.23 37.726zm174.046-36.748c0 8.096-1.228 15.547-3.68 22.355s-5.828 12.695-10.121 17.663-9.354 8.832-15.178 11.591-12.176 4.14-19.044 4.14-13.247-1.38-19.135-4.14-10.979-6.624-15.271-11.591-7.636-10.855-10.027-17.663-3.588-14.259-3.588-22.355 1.196-15.547 3.588-22.354 5.732-12.695 10.027-17.663 9.383-8.86 15.271-11.683 12.264-4.232 19.135-4.232 13.215 1.412 19.044 4.232 10.883 6.715 15.178 11.683 7.666 10.855 10.121 17.663 3.68 14.259 3.68 22.354zm-29.623 0c0-8.584-1.719-15.547-5.152-20.883s-7.85-8.003-13.247-8.003c-5.643 0-10.151 2.668-13.523 8.003s-5.06 12.299-5.06 20.883 1.685 15.519 5.06 20.791 7.88 7.912 13.523 7.912c5.397 0 9.811-2.636 13.247-7.912s5.152-12.204 5.152-20.791zm82.445 76.846l4.031-24.882-49.945-8.092 4.208-25.972 71.508-66.325 19.797 3.207-12.27 75.736 15.983 2.589-4.237 26.154-15.983-2.589-4.031 24.882-29.061-4.708zm-12.981-54.478l24.7 4.002 5.208-32.147-29.908 28.145zM208.675 72.461c-2.101 0-4.006-.411-5.716-1.232s-3.178-1.912-4.403-3.272-2.175-2.915-2.848-4.665-1.01-3.541-1.01-5.373a14.41 14.41 0 0 1 1.07-5.494c.713-1.75 1.697-3.299 2.949-4.646s2.74-2.417 4.464-3.212 3.595-1.191 5.615-1.191c2.074 0 3.965.424 5.676 1.272s3.171 1.959 4.383 3.333a15.37 15.37 0 0 1 2.828 4.686c.673 1.751 1.01 3.528 1.01 5.333 0 1.913-.351 3.736-1.05 5.474s-1.67 3.272-2.909 4.605-2.72 2.397-4.443 3.191-3.596 1.191-5.616 1.191zm-8.322-14.543c0 1.239.188 2.438.565 3.595s.922 2.182 1.636 3.07a8.15 8.15 0 0 0 2.626 2.141c1.037.539 2.215.808 3.535.808 1.346 0 2.538-.276 3.575-.828a8.14 8.14 0 0 0 2.626-2.202c.714-.916 1.252-1.945 1.616-3.09s.545-2.309.545-3.495a11.19 11.19 0 0 0-.586-3.595c-.391-1.158-.943-2.181-1.656-3.07s-1.589-1.595-2.625-2.121-2.202-.788-3.494-.788c-1.347 0-2.545.276-3.596.828s-1.925 1.279-2.625 2.181-1.232 1.926-1.596 3.07a11.47 11.47 0 0 0-.546 3.496zm35.873 14.745c-1.724 0-3.272-.296-4.645-.889s-2.539-1.394-3.495-2.403-1.69-2.175-2.202-3.495a11.4 11.4 0 0 1-.768-4.161c0-1.481.256-2.881.768-4.201s1.246-2.484 2.202-3.494 2.121-1.811 3.495-2.404 2.921-.889 4.645-.889 3.265.297 4.626.889 2.518 1.394 3.474 2.404 1.69 2.175 2.202 3.494.767 2.72.767 4.201a11.42 11.42 0 0 1-.767 4.161c-.512 1.32-1.239 2.484-2.181 3.495s-2.101 1.812-3.474 2.403-2.924.889-4.647.889zm-5.535-10.948c0 .943.142 1.798.424 2.565s.673 1.434 1.171 2 1.084 1.003 1.757 1.313a5.15 5.15 0 0 0 2.182.465 5.15 5.15 0 0 0 2.181-.465 5.22 5.22 0 0 0 1.757-1.313c.498-.566.889-1.239 1.171-2.02s.424-1.642.424-2.585c0-.915-.142-1.763-.424-2.545s-.673-1.454-1.171-2.02-1.085-1.003-1.757-1.313a5.15 5.15 0 0 0-2.181-.465c-.782 0-1.509.162-2.182.485s-1.259.768-1.757 1.333a6.2 6.2 0 0 0-1.171 2.02c-.283.782-.424 1.63-.424 2.545zm32.922 10.948c-1.67 0-3.124-.37-4.362-1.111s-2.209-1.743-2.909-3.009v12.321h-5.413V51.091h4.726v3.635c.781-1.238 1.791-2.215 3.03-2.929s2.666-1.07 4.281-1.07c1.428 0 2.747.29 3.959.869a9.8 9.8 0 0 1 3.131 2.343c.875.983 1.562 2.141 2.061 3.474s.747 2.741.747 4.222c0 1.535-.229 2.976-.687 4.322s-1.098 2.519-1.919 3.515-1.798 1.777-2.929 2.343-2.369.848-3.716.848zm-1.817-4.605c.808 0 1.555-.175 2.242-.525s1.272-.821 1.757-1.414.861-1.279 1.131-2.061a7.36 7.36 0 0 0 .404-2.423 6.84 6.84 0 0 0-.444-2.484c-.297-.768-.707-1.434-1.232-2a5.75 5.75 0 0 0-1.858-1.333c-.714-.323-1.488-.485-2.322-.485-.512 0-1.037.088-1.575.263a5.54 5.54 0 0 0-1.495.748 6.61 6.61 0 0 0-1.232 1.131 4.71 4.71 0 0 0-.828 1.414v4.969c.485 1.212 1.226 2.215 2.222 3.009s2.072 1.191 3.23 1.191zm22.743 4.605a16.39 16.39 0 0 1-5.211-.848c-1.697-.565-3.151-1.374-4.363-2.424l2.02-3.393c1.293.916 2.552 1.609 3.777 2.08s2.444.707 3.656.707c1.076 0 1.925-.202 2.545-.606a1.95 1.95 0 0 0 .929-1.737c0-.754-.363-1.306-1.091-1.656s-1.912-.754-3.555-1.212l-3.515-1.091c-.97-.35-1.751-.747-2.343-1.192s-1.023-.956-1.293-1.535-.403-1.273-.403-2.081c0-1.077.208-2.046.626-2.909a6.34 6.34 0 0 1 1.757-2.202c.754-.606 1.637-1.07 2.646-1.393s2.106-.485 3.292-.485c1.589 0 3.076.229 4.464.687s2.659 1.198 3.817 2.222l-2.182 3.272c-1.077-.808-2.12-1.4-3.131-1.777s-2.013-.565-3.009-.565c-.916 0-1.684.189-2.303.565s-.93.983-.93 1.818c0 .377.074.687.223.929s.384.458.707.646.747.371 1.272.545 1.178.357 1.959.545l3.736 1.131c1.037.377 1.885.808 2.545 1.292s1.145 1.044 1.455 1.676.464 1.394.464 2.283c0 2.074-.767 3.71-2.303 4.908s-3.619 1.8-6.258 1.8zm13.128-11.19V43.294h5.413v18.179h-5.413zm0 10.786v-6.1h5.413v6.1h-5.413z" class="D"/><path d="M235.089 313.845h35.512v2.909h-35.512zm0 3.789h35.512v2.909h-35.512zm0 3.79h35.512v2.909h-35.512zm0 3.789h35.512v2.909h-35.512zm0 3.789h35.512v2.909h-35.512zm-16.631 75.592h67.516v2.909h-67.516zm0 3.789h67.516v2.909h-67.516zm0 3.789h67.516v2.909h-67.516zm0 3.789h67.516v2.909h-67.516zm0 3.79h67.516v2.909h-67.516z" fill="#37474f"/><use xlink:href="#G" class="B"/><use xlink:href="#G" class="C"/><use xlink:href="#H" class="B"/><use xlink:href="#H" class="C"/><path d="M185.983 308.536s5.491-82.298 10.307-109.371c0 0 99.417 7.519 153.086 28.032l-29.101 100.898s-70.008-13.791-134.292-19.559z" class="B"/><path d="M274.722 210.155l-4.945 29.711-5.124 29.679-.276-.419 33.311 7.913 16.638 4.032 16.619 4.112-16.707-3.739-16.688-3.818-33.341-7.788-.337-.079.061-.341 5.305-29.647 5.484-29.616zm-3.655 5.648c.018.908-.706 1.841-1.746 1.932-.504.048-1.052-.113-1.462-.47a1.98 1.98 0 0 1-.658-1.462c.003-.555.246-1.106.657-1.463a1.97 1.97 0 0 1 1.463-.471c1.041.091 1.764 1.026 1.746 1.934zm0 0c-.004-.458-.207-.908-.548-1.197a1.59 1.59 0 0 0-1.197-.36c-.839.097-1.383.85-1.371 1.557-.013.707.53 1.464 1.371 1.559a1.6 1.6 0 0 0 1.198-.361 1.61 1.61 0 0 0 .547-1.198zm-1.746 12.245c.018.908-.706 1.842-1.746 1.932-.504.048-1.052-.113-1.462-.47a1.98 1.98 0 0 1-.658-1.462c.003-.555.246-1.106.657-1.463a1.97 1.97 0 0 1 1.463-.471c1.042.092 1.765 1.027 1.746 1.934zm0 0c-.004-.458-.207-.908-.548-1.197a1.59 1.59 0 0 0-1.197-.36c-.839.097-1.383.85-1.371 1.557-.013.707.53 1.464 1.371 1.559.407.046.856-.072 1.198-.362s.543-.739.547-1.197zm-2.15 12.939c.018.908-.706 1.842-1.746 1.932a1.97 1.97 0 0 1-1.462-.47 1.98 1.98 0 0 1-.658-1.462c.003-.555.246-1.106.657-1.463a1.97 1.97 0 0 1 1.463-.471c1.042.092 1.765 1.026 1.746 1.934zm0 0c-.004-.458-.207-.908-.548-1.197a1.59 1.59 0 0 0-1.197-.36c-.839.097-1.383.85-1.371 1.557-.013.707.53 1.464 1.371 1.559.407.047.856-.072 1.198-.361a1.61 1.61 0 0 0 .547-1.198zm-2.15 12.939c.019.908-.706 1.841-1.746 1.932a1.98 1.98 0 0 1-2.12-1.932c.002-.555.247-1.106.657-1.463a1.97 1.97 0 0 1 1.463-.471c1.042.091 1.765 1.026 1.746 1.934zm0 0c-.004-.458-.207-.908-.549-1.197s-.79-.407-1.197-.36c-.839.097-1.383.85-1.371 1.557-.013.707.53 1.464 1.371 1.559a1.6 1.6 0 0 0 1.198-.361c.341-.29.544-.74.548-1.198zm7.326 20.635c.019.908-.706 1.841-1.746 1.932a1.98 1.98 0 0 1-2.12-1.932c.002-.555.246-1.106.657-1.463a1.97 1.97 0 0 1 1.463-.471c1.041.091 1.764 1.026 1.746 1.934zm0 0c-.004-.458-.207-.908-.549-1.197s-.79-.407-1.197-.36c-.839.097-1.383.85-1.371 1.557-.013.707.53 1.464 1.371 1.559.407.047.856-.072 1.198-.362s.543-.739.548-1.197zm12.213 2.979c.019.908-.706 1.842-1.746 1.932a1.98 1.98 0 0 1-2.12-1.932 1.98 1.98 0 0 1 .657-1.463 1.97 1.97 0 0 1 1.463-.471c1.042.092 1.765 1.026 1.746 1.934zm0 0c-.004-.458-.207-.908-.548-1.197a1.59 1.59 0 0 0-1.197-.36c-.839.097-1.383.85-1.371 1.557-.013.707.53 1.464 1.371 1.559.407.046.856-.072 1.198-.362s.543-.739.547-1.197zm12.214 2.98c.018.908-.706 1.841-1.746 1.932a1.98 1.98 0 0 1-2.12-1.932c.003-.555.246-1.106.657-1.463a1.97 1.97 0 0 1 1.463-.471c1.041.091 1.764 1.026 1.746 1.934zm0 0c-.004-.458-.207-.908-.548-1.197a1.59 1.59 0 0 0-1.197-.36c-.839.097-1.383.85-1.371 1.557-.013.707.53 1.464 1.371 1.559.407.046.856-.072 1.198-.362s.542-.74.547-1.197zm12.213 2.979c.019.908-.706 1.841-1.746 1.932-.504.047-1.052-.112-1.462-.47a1.98 1.98 0 0 1-.658-1.462c.003-.555.246-1.106.657-1.463a1.97 1.97 0 0 1 1.463-.471c1.042.091 1.764 1.026 1.746 1.934zm0 0c-.004-.458-.207-.908-.548-1.197a1.59 1.59 0 0 0-1.197-.36c-.839.097-1.383.85-1.371 1.557-.013.707.53 1.464 1.371 1.559a1.6 1.6 0 0 0 1.198-.361 1.61 1.61 0 0 0 .547-1.198zm12.208 3.113c-.051.907-.845 1.782-1.889 1.792-.506.009-1.04-.193-1.422-.581s-.584-.954-.544-1.508.331-1.083.768-1.408a1.97 1.97 0 0 1 1.495-.357c1.032.171 1.68 1.159 1.592 2.062zm0 0c.031-.457-.137-.921-.455-1.236a1.59 1.59 0 0 0-1.166-.451c-.844.032-1.445.741-1.487 1.447-.068.704.416 1.5 1.247 1.66a1.59 1.59 0 0 0 1.222-.268c.363-.262.6-.695.639-1.152zm-58.324-19.747c.018.908-.706 1.842-1.746 1.932a1.97 1.97 0 0 1-1.462-.47 1.98 1.98 0 0 1-.658-1.462 1.98 1.98 0 0 1 .657-1.463c.409-.36.959-.519 1.463-.471 1.042.091 1.765 1.026 1.746 1.934zm0 0c-.004-.458-.207-.908-.549-1.197s-.79-.407-1.197-.36c-.839.097-1.383.85-1.371 1.557-.013.707.53 1.464 1.371 1.559.407.046.856-.072 1.197-.362s.545-.739.549-1.197z" class="F"/><circle transform="matrix(.7436 -.6686 .6686 .7436 -121.4405 217.9284)" cx="223.434" cy="267.309" r="28.231" class="C"/><circle transform="matrix(.354 -.9352 .9352 .354 -105.6636 381.6404)" cx="223.434" cy="267.309" r="22.641" class="D"/><g class="B"><use xlink:href="#I"/><use xlink:href="#I" x="-4.436" y="-6.15"/><use xlink:href="#I" x="16.736" y="-2.721"/><use xlink:href="#I" x="-7.846" y="14.901"/><use xlink:href="#I" x="13.325" y="18.33"/><use xlink:href="#I" x="-1.695" y="10.466"/><use xlink:href="#I" x="4.445" y="6.09"/><use xlink:href="#I" x="10.586" y="1.714"/><use xlink:href="#I" x="8.896" y="12.178"/><circle cx="299.192" cy="279.14" r="28.231" transform="matrix(.6338 -.7735 .7735 .6338 -106.3514 333.634)"/></g><circle transform="matrix(.6338 -.7735 .7735 .6338 -106.3514 333.634)" cx="299.192" cy="279.14" r="28.231" class="C"/><path d="M326.66 285.672l-.445 1.63-55.028-11.737.537-2.955c3.604-15.165 18.824-24.54 33.999-20.937 15.166 3.604 24.541 18.824 20.937 33.999z" class="C"/><circle transform="matrix(.9227 -.3855 .3855 .9227 -84.4858 136.9205)" cx="299.192" cy="279.14" r="22.641" class="D"/><g class="B"><path d="M299.674 265.531l5.217 1.24-6.17 25.966-5.217-1.24z"/><use xlink:href="#J"/></g><use xlink:href="#J" class="C"/><path d="M250.071 295.922c.146-2.257.975-4.546 2.612-6.356.807-.912 1.884-1.628 3.07-2.064 1.192-.438 2.48-.515 3.701-.411 1.243.145 2.512.583 3.548 1.367 1.016.8 1.795 1.843 2.253 2.966.943 2.238 1.046 4.63.589 6.848-.376-2.217-.949-4.37-1.99-6.137-1.033-1.781-2.667-2.888-4.614-3.06-1.986-.247-3.924.286-5.485 1.605s-2.753 3.198-3.684 5.242z" class="F"/><path d="M193.716 238.34l.859-9.027 1.016-9.004 1.122-8.99 1.212-8.977.107-.799.81.051a492.96 492.96 0 0 1 19.505 1.604l9.723 1.126 9.679 1.48-19.517-1.208-19.497-1.261.917-.748-1.324 8.961-1.415 8.948-1.52 8.933-1.677 8.911zm4.695 22.816c.655-3.626 2.303-7.081 4.517-10.09.551-.757 1.178-1.456 1.781-2.176.653-.674 1.332-1.326 2.002-1.987l2.219-1.754 2.394-1.517 2.562-1.222 2.682-.928 2.776-.573c.932-.136 1.879-.165 2.814-.235 3.764-.097 7.469.706 10.869 2.083-3.619-.678-7.225-1.054-10.78-.715a25.32 25.32 0 0 0-10.073 3.126c-3.105 1.695-5.855 4.033-8.178 6.749-2.313 2.73-4.228 5.822-5.585 9.239zm77.876 7.626c1.15-3.501 3.259-6.695 5.867-9.37.65-.673 1.368-1.279 2.065-1.909.739-.577 1.502-1.129 2.257-1.692l2.44-1.431 2.581-1.172 2.706-.856 2.785-.549 2.829-.184c.942-.007 1.883.096 2.819.155 3.742.424 7.299 1.731 10.477 3.564-3.491-1.171-7.01-2.042-10.578-2.196-3.558-.162-7.117.412-10.408 1.706-3.309 1.25-6.356 3.186-9.032 5.555-2.67 2.385-4.993 5.182-6.808 8.379z" class="E"/><use xlink:href="#K" class="B"/><use xlink:href="#K" class="E G"/><g class="B"><path d="M155.097 299.005c-1.032 0-2.086-.086-3.159-.26-9.546-1.546-13.772-7.258-15.637-11.778-1.869-4.53-2.301-10.01-1.284-16.286l12.106 1.962c-.63 3.888-.447 7.315.515 9.647.686 1.664 2.018 3.662 6.261 4.349 1.938.314 4.033.148 6.227-3.161 1.693-2.554 2.711-6.03 3.067-8.232l12.106 1.961c-.28 1.732-1.467 7.792-4.952 13.048-3.79 5.717-9.125 8.75-15.25 8.75z"/><use xlink:href="#L"/></g><use xlink:href="#L" class="C"/><use xlink:href="#M" class="B"/><use xlink:href="#M" class="C"/><path d="M196.841 327.955s82.786-3.54 110.751 1.121l-8.656 81.66s-82.351-.222-95.224 0c0 0-6.977-53.267-6.871-82.781z" class="B"/><path d="M221.987 349.906s45.193-1.785 60.46.565l-4.725 41.177s-44.956-.112-51.983 0c-.002 0-3.09-27.646-3.752-41.742z" class="C"/><path d="M228.164 391.631l-2.429.02s-3.084-27.651-3.751-41.747l2.823-.1 3.357 41.827z" class="C"/><g class="B"><path d="M241.494 359.873a4.81 4.81 0 0 0-6.03 3.139c-.799 2.536.609 5.232 3.142 6.03s5.227-.607 6.025-3.14a4.81 4.81 0 0 0-3.137-6.029zm2.58 5.853a4.22 4.22 0 0 1-5.293 2.759 4.22 4.22 0 0 1 2.539-8.051 4.22 4.22 0 0 1 2.754 5.292zm-2.58-5.853a4.81 4.81 0 0 0-6.03 3.139c-.799 2.536.609 5.232 3.142 6.03s5.227-.607 6.025-3.14a4.81 4.81 0 0 0-3.137-6.029zm2.58 5.853a4.22 4.22 0 0 1-5.293 2.759 4.22 4.22 0 0 1 2.539-8.051 4.22 4.22 0 0 1 2.754 5.292zm-2.58-5.853a4.81 4.81 0 0 0-6.03 3.139c-.799 2.536.609 5.232 3.142 6.03s5.227-.607 6.025-3.14a4.81 4.81 0 0 0-3.137-6.029zm2.58 5.853a4.22 4.22 0 0 1-5.293 2.759 4.22 4.22 0 0 1 2.539-8.051 4.22 4.22 0 0 1 2.754 5.292zm-.978-10.931a10.14 10.14 0 0 0-12.711 6.618c-1.681 5.336 1.28 11.027 6.619 12.708 5.333 1.68 11.025-1.283 12.706-6.619s-1.28-11.027-6.614-12.707zm2.25 11.331a5.56 5.56 0 0 1-6.965 3.63c-2.92-.92-4.548-4.044-3.628-6.967a5.56 5.56 0 0 1 6.967-3.628c2.918.921 4.546 4.045 3.626 6.965zm-.715-.223c.798-2.531-.606-5.231-3.137-6.029a4.81 4.81 0 0 0-6.03 3.139c-.799 2.536.609 5.232 3.142 6.03s5.227-.607 6.025-3.14zm-.557-.177a4.22 4.22 0 0 1-5.293 2.759 4.22 4.22 0 0 1 2.539-8.051 4.22 4.22 0 0 1 2.754 5.292zm-2.58-5.853a4.81 4.81 0 0 0-6.03 3.139c-.799 2.536.609 5.232 3.142 6.03s5.227-.607 6.025-3.14a4.81 4.81 0 0 0-3.137-6.029zm2.58 5.853a4.22 4.22 0 0 1-5.293 2.759 4.22 4.22 0 0 1 2.539-8.051 4.22 4.22 0 0 1 2.754 5.292zm-2.58-5.853a4.81 4.81 0 0 0-6.03 3.139c-.799 2.536.609 5.232 3.142 6.03s5.227-.607 6.025-3.14a4.81 4.81 0 0 0-3.137-6.029zm2.58 5.853a4.22 4.22 0 0 1-5.293 2.759 4.22 4.22 0 0 1 2.539-8.051 4.22 4.22 0 0 1 2.754 5.292z"/><path d="M238.988 374.305l-3.715-1.171-.624 2.695 3.305 1.041zm-6.677-3.48l-1.8-3.455-2.346 1.465 1.6 3.073zm-2.261-7.183l1.17-3.715-2.694-.623-1.042 3.304zm3.48-6.677l3.455-1.799-1.465-2.347-3.073 1.601zm7.182-2.261l3.716 1.171.623-2.695-3.304-1.041zm6.678 3.48l1.799 3.455 2.347-1.464-1.601-3.073zm2.261 7.183l-1.171 3.715 2.695.624 1.041-3.305zm-3.48 6.677l-3.456 1.8 1.465 2.346 3.073-1.6z"/></g><g fill="#dbdbdb"><path d="M257.835 374.012a3.24 3.24 0 0 0-4.478.945c-.977 1.5-.551 3.503.947 4.479s3.499.551 4.475-.947.553-3.502-.944-4.477zm.615 4.262a2.84 2.84 0 1 1-4.762-3.1 2.84 2.84 0 1 1 4.762 3.1zm-.615-4.262a3.24 3.24 0 0 0-4.478.945c-.977 1.5-.551 3.503.947 4.479s3.499.551 4.475-.947.553-3.502-.944-4.477zm.615 4.262a2.84 2.84 0 1 1-4.762-3.1 2.84 2.84 0 1 1 4.762 3.1zm-.615-4.262a3.24 3.24 0 0 0-4.478.945c-.977 1.5-.551 3.503.947 4.479s3.499.551 4.475-.947.553-3.502-.944-4.477zm.615 4.262a2.84 2.84 0 1 1-4.762-3.1 2.84 2.84 0 1 1 4.762 3.1zm1.342-7.265c-3.16-2.056-7.384-1.161-9.44 1.994a6.82 6.82 0 0 0 1.994 9.438c3.155 2.054 7.382 1.161 9.437-1.995s1.164-7.383-1.991-9.437zm-.59 7.755c-1.126 1.729-3.446 2.22-5.173 1.095s-2.219-3.445-1.093-5.174 3.447-2.218 5.174-1.093 2.217 3.444 1.092 5.172zm-.423-.274c.975-1.497.553-3.502-.944-4.477a3.24 3.24 0 0 0-4.478.945c-.977 1.5-.551 3.503.947 4.479s3.499.551 4.475-.947zm-.329-.216a2.84 2.84 0 1 1-4.762-3.1 2.84 2.84 0 1 1 4.762 3.1zm-.615-4.262a3.24 3.24 0 0 0-4.478.945c-.977 1.5-.551 3.503.947 4.479s3.499.551 4.475-.947.553-3.502-.944-4.477zm.615 4.262a2.84 2.84 0 1 1-4.762-3.1 2.84 2.84 0 1 1 4.762 3.1zm-.615-4.262a3.24 3.24 0 0 0-4.478.945c-.977 1.5-.551 3.503.947 4.479s3.499.551 4.475-.947.553-3.502-.944-4.477zm.615 4.262a2.84 2.84 0 1 1-4.762-3.1 2.84 2.84 0 1 1 4.762 3.1z"/><path d="M253.6 382.918l-2.198-1.431-.891 1.635 1.955 1.273zm-3.701-3.464l-.542-2.566-1.787.526.483 2.282zm-.167-5.067l1.431-2.198-1.635-.891-1.273 1.955zm3.464-3.701l2.566-.542-.526-1.786-2.282.482zm5.067-.167l2.197 1.431.892-1.635-1.955-1.273zm3.701 3.464l.542 2.566 1.786-.526-.482-2.282zm.167 5.067l-1.431 2.198 1.635.891 1.273-1.955zm-3.464 3.701l-2.566.542.525 1.786 2.283-.482z"/></g><g class="B"><path d="M305.594 401.414l3.182.592 9.099-61.627-3.625-.666z"/><path d="M277.721 391.648l4.725-41.177 31.804-10.758-8.656 61.701-27.873-9.766z"/></g><g class="E"><path d="M277.721 391.648l4.725-41.177 31.804-10.758-8.656 61.701-27.873-9.766z" class="G"/><path d="M200.64 352.139c-.518-3.411-.798-6.85-1.011-10.292-.098-1.722-.142-3.446-.18-5.17s-.064-3.45-.013-5.175l.014-.453.441-.024 18.954-1.03 18.965-.793-18.923 1.515-18.934 1.277.454-.477-.026 5.15.06 5.152.09 5.156.109 5.164zm86.242-1.064l5.996-2.609 6.117-2.314 6.241-1.98 6.392-1.494.533-.087-.095.509-1.638 7.975.906-8.091.438.422-6.263 1.701-6.21 1.947-12.417 4.021z"/></g><path d="M214.403 328.122l.536 10.299.458 10.302.794 20.608.621 20.614.248 10.309.17 10.312-.537-10.299-.458-10.302-.793-20.608-.619-20.614-.249-10.309zm-2.95 6.208c.198.887-.328 1.945-1.329 2.239-.485.146-1.053.098-1.526-.172s-.822-.759-.934-1.303a1.96 1.96 0 0 1 .355-1.564 1.97 1.97 0 0 1 1.341-.751 1.95 1.95 0 0 1 2.093 1.551zm0 0c-.095-.448-.383-.849-.774-1.065a1.59 1.59 0 0 0-1.245-.116c-.803.261-1.188 1.106-1.036 1.798.127.695.809 1.33 1.652 1.257a1.59 1.59 0 0 0 1.102-.591c.278-.351.387-.833.301-1.283zm.709 12.349c.198.887-.328 1.945-1.329 2.239-.485.146-1.053.098-1.526-.172s-.822-.759-.934-1.303a1.96 1.96 0 0 1 .355-1.564 1.97 1.97 0 0 1 1.341-.751 1.95 1.95 0 0 1 2.093 1.551zm0 0c-.095-.448-.383-.849-.774-1.065a1.59 1.59 0 0 0-1.245-.116c-.803.261-1.188 1.107-1.036 1.798.127.695.809 1.33 1.652 1.257a1.6 1.6 0 0 0 1.103-.591c.277-.351.387-.833.3-1.283zm.45 13.109c.198.887-.328 1.945-1.329 2.239-.485.146-1.053.098-1.526-.172s-.822-.759-.934-1.303a1.96 1.96 0 0 1 .355-1.564 1.98 1.98 0 0 1 1.341-.751 1.95 1.95 0 0 1 2.093 1.551zm0 0c-.095-.448-.383-.849-.774-1.065a1.59 1.59 0 0 0-1.245-.116c-.803.261-1.188 1.106-1.036 1.797a1.57 1.57 0 0 0 1.652 1.257 1.59 1.59 0 0 0 1.102-.591c.278-.351.387-.832.301-1.282zm.45 13.108c.198.887-.328 1.945-1.329 2.239-.485.146-1.053.098-1.526-.172s-.822-.759-.934-1.303a1.96 1.96 0 0 1 .355-1.564 1.97 1.97 0 0 1 1.341-.751 1.95 1.95 0 0 1 2.093 1.551zm0 0c-.095-.448-.382-.849-.774-1.065a1.59 1.59 0 0 0-1.245-.116c-.803.261-1.188 1.106-1.036 1.798.127.695.809 1.33 1.652 1.257a1.59 1.59 0 0 0 1.102-.591c.278-.351.387-.833.301-1.283zm.45 13.109c.198.887-.328 1.945-1.329 2.239-.485.146-1.053.098-1.526-.172s-.822-.759-.934-1.303a1.96 1.96 0 0 1 .355-1.564 1.97 1.97 0 0 1 1.341-.751c1.038-.116 1.932.657 2.093 1.551zm0 0c-.095-.448-.383-.849-.774-1.065a1.59 1.59 0 0 0-1.245-.116c-.803.261-1.188 1.106-1.036 1.798a1.57 1.57 0 0 0 1.652 1.257c.408-.035.825-.239 1.103-.591s.386-.834.3-1.283zm.45 13.108c.198.887-.328 1.945-1.329 2.239-.485.146-1.053.098-1.526-.172s-.822-.759-.934-1.303a1.96 1.96 0 0 1 .355-1.564 1.98 1.98 0 0 1 1.341-.751 1.95 1.95 0 0 1 2.093 1.551zm0 0c-.095-.448-.383-.849-.774-1.065a1.59 1.59 0 0 0-1.245-.116c-.803.261-1.188 1.106-1.036 1.798a1.57 1.57 0 0 0 1.652 1.257c.408-.035.825-.24 1.102-.591a1.61 1.61 0 0 0 .301-1.283z" class="F"/><path d="M171.134 433.362l46.875-14.204 1.66 5.477-46.875 14.204z" class="B"/><path d="M171.134 433.362l46.875-14.204 1.66 5.477-46.875 14.204z" class="E G"/><g class="B"><path d="M190.127 425.829l5.454-1.735 2.577 8.101-5.454 1.735zm-17.7 21.034l-12.096-52.379-36.51 8.656 17.978 51.047z"/><path d="M180.528 444.2l-8.101 2.663-12.096-52.379 11.652 2.774z"/></g><path d="M180.528 444.2l-8.101 2.663-12.096-52.379 11.652 2.774z" class="C"/><g class="B"><circle cx="218.859" cy="421.894" r="6.214"/><path d="M281.131 424.48l1.671-5.473 46.845 14.302-1.671 5.473z"/></g><path d="M281.131 424.48l1.671-5.473 46.845 14.302-1.671 5.473z" class="E G"/><g class="B"><path d="M302.668 432.063l2.595-8.096 5.45 1.747-2.595 8.096zm25.689 14.755l12.208-52.354 36.491 8.734-18.086 51.009z"/><path d="M320.262 444.137l8.095 2.681 12.208-52.354-11.658 2.75z"/></g><path d="M320.262 444.137l8.095 2.681 12.208-52.354-11.658 2.75z" class="C"/><g class="B"><path d="M275.764 421.737c-.007 3.432 2.769 6.22 6.201 6.228s6.22-2.769 6.228-6.201-2.769-6.22-6.201-6.228-6.221 2.769-6.228 6.201z"/><use xlink:href="#N"/></g><use xlink:href="#N" class="E G"/><path d="M382.118 407.712l10.846-5.726c-1.041-1.971-2.323-5.359-2.509-8.418-.241-3.964 1.332-5.358 3.067-6.275 3.8-2.007 6.068-1.211 7.617-.299 2.173 1.283 4.383 3.908 6.222 7.392l10.846-5.726c-2.968-5.622-6.613-9.736-10.834-12.228-4.211-2.482-11.025-4.499-19.577.015-6.666 3.519-10.069 9.864-9.582 17.865.382 6.296 3.085 11.848 3.904 13.4z" class="B"/><path d="M324.949 338.022l7.172-4.67 7.307-4.441 7.425-4.241 3.754-2.05 3.808-1.959-3.559 2.381-3.612 2.29-7.308 4.439-7.426 4.239-7.561 4.012zm-6.229 23.401c3.366 1.918 6.557 4.083 9.705 6.308 3.13 2.25 6.216 4.561 9.124 7.121-3.368-1.916-6.558-4.081-9.705-6.308-3.128-2.251-6.214-4.562-9.124-7.121zm5.529-2.878l7.707 2.588 7.611 2.836 7.527 3.052 3.734 1.602 3.695 1.701-3.873-1.244-3.835-1.342-7.61-2.837-7.526-3.054-7.43-3.302zm7.381-18.328l7.51-1.709 7.556-1.447 7.596-1.219 3.812-.529 3.831-.424-3.746.907-3.764.803-7.556 1.445-7.596 1.217-7.643.956zm-60.008 15.57c.422-2.023 1.101-3.995 1.979-5.875s1.955-3.679 3.305-5.28c1.354-1.584 3.02-2.981 5.025-3.754 2.005-.747 4.3-.741 6.311.062 2.035.793 3.64 2.503 4.505 4.469.449.982.73 2.035.846 3.112.101 1.075.058 2.193-.37 3.267-.218.528-.559 1.061-1.105 1.416-.264.184-.587.289-.904.338s-.632.031-.996-.095c-.669-.285-1.004-.823-1.292-1.308-.257-.504-.455-1.02-.59-1.541-.562-2.087-.619-4.21-.52-6.309.298-4.181 1.396-8.363 3.649-11.961 1.137-1.778 2.563-3.415 4.336-4.611 1.75-1.204 3.799-2.033 5.891-2.273 1.029-.249 2.092-.226 3.143-.277.527-.056 1.05.072 1.575.099.521.069 1.055.06 1.562.211 2.078.373 4.031 1.207 5.855 2.216 1.813 1.045 3.428 2.387 4.902 3.843 1.461 1.471 2.79 3.08 3.858 4.852-2.365-3.375-5.41-6.305-9-8.267-1.807-.939-3.716-1.71-5.727-2.022-.491-.137-1.006-.113-1.508-.169-.505-.015-1.008-.13-1.514-.062-1.009.074-2.025.069-3.01.334-2.016.284-3.886 1.095-5.532 2.225-1.654 1.132-2.988 2.685-4.06 4.385-2.123 3.439-3.163 7.501-3.422 11.537-.113 2.017-.062 4.079.442 5.995.241.916.674 1.948 1.305 2.237.081.008.135.051.233.054.098-.008.203.014.296-.01.19-.031.375-.082.534-.196.328-.206.588-.572.763-.992.351-.85.415-1.858.327-2.829a9.22 9.22 0 0 0-.752-2.847c-.791-1.799-2.194-3.353-4.012-4.115-1.808-.768-3.925-.83-5.802-.177-1.886.677-3.515 1.977-4.873 3.484-2.725 3.05-4.562 6.865-5.653 10.834zm-92.405 25.916c.965-1.819 2.384-3.393 4.041-4.637s3.555-2.209 5.6-2.682c2.034-.487 4.219-.495 6.254.123 2.036.609 3.87 1.803 5.338 3.324 1.478 1.52 2.583 3.366 3.342 5.329.745 1.967 1.192 4.074 1.034 6.229-.107 1.06-.322 2.205-1.161 3.122-.416.451-1.058.749-1.685.759-.602-.006-1.171-.095-1.723-.39-.549-.283-.989-.775-1.24-1.319s-.35-1.122-.376-1.68c-.04-1.12.202-2.184.531-3.196.671-2.027 1.773-3.853 3.061-5.508 1.295-1.653 2.819-3.125 4.527-4.351 3.388-2.46 7.704-3.827 11.914-3.276 2.078.281 4.14.881 5.959 1.941 1.835 1.025 3.426 2.448 4.723 4.074 1.296 1.633 2.306 3.468 3.084 5.38s1.352 3.91 1.634 5.948c-.84-4.007-2.488-7.899-5.113-11.005-1.3-1.552-2.867-2.884-4.645-3.823-1.763-.973-3.741-1.495-5.732-1.718-4-.435-8.058.84-11.285 3.228-3.223 2.371-5.86 5.68-7.193 9.423-.314.933-.533 1.909-.504 2.849.022.933.35 1.829 1.099 2.207.353.203.832.282 1.25.289a1.49 1.49 0 0 0 1.054-.471c.584-.609.834-1.605.923-2.561.157-1.954-.247-3.975-.946-5.842-.708-1.872-1.76-3.618-3.12-5.079s-3.067-2.597-4.959-3.216c-1.889-.629-3.96-.681-5.928-.264-3.937.837-7.585 3.299-9.758 6.793zm-46.264-241.495c-.113-4.115-.986-8.258-2.901-11.868-.959-1.788-2.231-3.44-3.901-4.547-1.667-1.082-3.737-1.527-5.676-1.213-1.947.306-3.68 1.481-4.878 3.038a9.21 9.21 0 0 0-1.41 2.585c-.318.922-.496 1.916-.358 2.825.069.449.234.866.504 1.145.128.149.295.242.472.318.085.045.192.049.285.08.096.02.158-.009.239.003.681-.13 1.349-1.029 1.801-1.861.947-1.74 1.489-3.731 1.86-5.716.711-3.981.671-8.174-.57-12.02-.634-1.907-1.56-3.734-2.896-5.227-1.329-1.49-2.951-2.724-4.841-3.481-.893-.492-1.881-.729-2.843-1.043-.475-.186-.991-.194-1.485-.301-.501-.065-.995-.211-1.505-.196-2.027-.177-4.065.116-6.044.597-3.955 1.049-7.611 3.167-10.713 5.88 1.46-1.465 3.134-2.711 4.904-3.791 1.779-1.062 3.667-1.979 5.677-2.562 2.011-.545 4.108-.889 6.214-.755.529-.026 1.044.111 1.567.168.516.098 1.055.099 1.553.279 1.008.301 2.047.532 2.986 1.019 1.974.732 3.766 2.026 5.178 3.613 1.436 1.584 2.43 3.514 3.11 5.512 1.329 4.031 1.397 8.355.688 12.486-.404 2.062-.967 4.11-2.01 6.003a7.65 7.65 0 0 1-.941 1.356c-.395.402-.849.845-1.566.962-.384.035-.697-.028-.99-.146-.296-.124-.585-.302-.797-.544-.445-.475-.65-1.074-.735-1.638-.16-1.144.065-2.24.42-3.261a10.05 10.05 0 0 1 1.564-2.82c1.309-1.702 3.276-2.98 5.441-3.264 2.145-.3 4.375.242 6.144 1.447 1.762 1.229 3.047 2.984 3.984 4.845.929 1.877 1.543 3.883 1.949 5.916a26.77 26.77 0 0 1 .52 6.177zm220.817 52.163c-4.028-.85-8.261-.968-12.218.052-1.962.516-3.865 1.367-5.332 2.732-1.441 1.368-2.357 3.278-2.504 5.237-.157 1.964.581 3.924 1.816 5.452.614.772 1.361 1.439 2.184 1.974.822.524 1.748.93 2.664 1.008.453.037.897-.026 1.231-.223.174-.089.304-.23.419-.384.064-.072.093-.175.145-.258.042-.088.028-.156.059-.231.033-.693-.686-1.552-1.389-2.185-1.471-1.326-3.281-2.318-5.124-3.142-3.705-1.62-7.792-2.56-11.822-2.251-2.002.172-3.995.646-5.759 1.596-1.759.944-3.337 2.234-4.514 3.895-.687.754-1.148 1.659-1.677 2.521-.292.419-.42.918-.639 1.374-.181.472-.438.918-.541 1.417-.645 1.93-.836 3.98-.83 6.016.097 4.09 1.304 8.14 3.218 11.79-1.084-1.761-1.905-3.68-2.542-5.653-.617-1.978-1.069-4.028-1.166-6.119-.06-2.083.094-4.202.716-6.219.098-.52.351-.99.529-1.485.216-.479.343-1.003.634-1.445.528-.91.995-1.866 1.688-2.666 1.173-1.749 2.849-3.189 4.721-4.192 1.876-1.027 3.984-1.543 6.086-1.738 4.23-.351 8.451.591 12.302 2.244 1.911.874 3.771 1.899 5.368 3.356a7.58 7.58 0 0 1 1.099 1.232c.299.477.623 1.022.57 1.747a2.05 2.05 0 0 1-.373.929c-.189.259-.431.498-.715.648-.565.322-1.196.381-1.765.332-1.15-.112-2.163-.586-3.073-1.169a10.09 10.09 0 0 1-2.378-2.179c-1.35-1.67-2.133-3.881-1.905-6.052.209-2.155 1.257-4.198 2.84-5.637 1.606-1.427 3.612-2.266 5.641-2.743 2.042-.465 4.136-.595 6.208-.515s4.136.381 6.128.934zm-61.91-64.7c-.684-2.369-.776-4.903-.391-7.35s1.212-4.854 2.566-6.962c1.334-2.11 3.195-3.935 5.446-5.098 2.245-1.172 4.803-1.681 7.321-1.604 2.525.068 5.007.722 7.292 1.764 2.275 1.057 4.413 2.485 6.068 4.449.789.989 1.551 2.142 1.597 3.59.02.715-.27 1.479-.783 1.997-.508.486-1.063.881-1.762 1.084-.688.211-1.453.159-2.108-.091s-1.214-.655-1.695-1.105c-.959-.914-1.638-2.02-2.199-3.156-1.114-2.285-1.7-4.763-1.982-7.25-.275-2.491-.204-5.02.229-7.491.836-4.928 3.376-9.687 7.421-12.735 2.005-1.497 4.262-2.709 6.698-3.326 2.42-.661 4.966-.778 7.434-.477s4.873 1.023 7.142 2.002 4.435 2.202 6.39 3.702c-4.062-2.748-8.731-4.716-13.588-5.196-2.417-.246-4.883-.081-7.203.602-2.335.64-4.478 1.849-6.38 3.327-1.88 1.505-3.48 3.356-4.649 5.461-1.179 2.1-1.949 4.421-2.356 6.799-.779 4.748-.276 9.805 1.729 14.152.517 1.069 1.15 2.096 1.976 2.889.81.79 1.879 1.308 2.88.991.492-.128.976-.467 1.354-.825.354-.363.538-.833.532-1.35-.013-1.05-.646-2.121-1.376-3.022-1.515-1.82-3.562-3.215-5.734-4.233-2.184-1.013-4.558-1.632-6.957-1.741s-4.826.351-6.975 1.416c-2.154 1.054-3.976 2.755-5.312 4.769-2.668 4.034-3.714 9.211-2.625 14.018z" class="D"/><g fill="#455a64"><path d="M175.874 381.922c-2.241-.706-4.628.538-5.334 2.777s.538 4.628 2.779 5.335a4.25 4.25 0 0 0 5.33-2.778c.706-2.239-.536-4.629-2.775-5.334zm2.282 5.177c-.62 1.969-2.716 3.061-4.682 2.441s-3.059-2.715-2.438-4.684 2.715-3.059 4.684-2.438a3.73 3.73 0 0 1 2.436 4.681zm-2.282-5.177c-2.241-.706-4.628.538-5.334 2.777s.538 4.628 2.779 5.335a4.25 4.25 0 0 0 5.33-2.778c.706-2.239-.536-4.629-2.775-5.334zm2.282 5.177c-.62 1.969-2.716 3.061-4.682 2.441s-3.059-2.715-2.438-4.684 2.715-3.059 4.684-2.438a3.73 3.73 0 0 1 2.436 4.681zm-2.282-5.177c-2.241-.706-4.628.538-5.334 2.777s.538 4.628 2.779 5.335a4.25 4.25 0 0 0 5.33-2.778c.706-2.239-.536-4.629-2.775-5.334zm2.282 5.177c-.62 1.969-2.716 3.061-4.682 2.441s-3.059-2.715-2.438-4.684 2.715-3.059 4.684-2.438a3.73 3.73 0 0 1 2.436 4.681zm-.865-9.67a8.97 8.97 0 0 0-11.244 5.855c-1.487 4.72 1.133 9.755 5.855 11.242s9.753-1.135 11.24-5.856-1.132-9.755-5.851-11.241zm1.99 10.024a4.92 4.92 0 0 1-6.161 3.212 4.92 4.92 0 0 1-3.209-6.163 4.92 4.92 0 0 1 6.163-3.209 4.92 4.92 0 0 1 3.207 6.16zm-.632-.198c.706-2.239-.536-4.628-2.775-5.334s-4.628.538-5.334 2.777.538 4.628 2.779 5.335a4.25 4.25 0 0 0 5.33-2.778zm-.493-.156c-.62 1.969-2.716 3.061-4.682 2.441s-3.059-2.715-2.438-4.684 2.715-3.059 4.684-2.438a3.73 3.73 0 0 1 2.436 4.681zm-2.282-5.177c-2.241-.706-4.628.538-5.334 2.777s.538 4.628 2.779 5.335a4.25 4.25 0 0 0 5.33-2.778c.706-2.239-.536-4.629-2.775-5.334zm2.282 5.177c-.62 1.969-2.716 3.061-4.682 2.441s-3.059-2.715-2.438-4.684 2.715-3.059 4.684-2.438a3.73 3.73 0 0 1 2.436 4.681zm-2.282-5.177c-2.241-.706-4.628.538-5.334 2.777s.538 4.628 2.779 5.335a4.25 4.25 0 0 0 5.33-2.778c.706-2.239-.536-4.629-2.775-5.334zm2.282 5.177c-.62 1.969-2.716 3.061-4.682 2.441s-3.059-2.715-2.438-4.684 2.715-3.059 4.684-2.438a3.73 3.73 0 0 1 2.436 4.681z"/><path d="M173.657 394.688l-3.287-1.035-.551 2.384 2.923.921zm-5.907-3.078l-1.592-3.057-2.075 1.296 1.415 2.719zm-2-6.354l1.036-3.287-2.384-.551-.921 2.923zm3.079-5.907l3.056-1.592-1.296-2.076-2.718 1.416zm6.353-2l3.287 1.035.552-2.383-2.924-.921zm5.907 3.078l1.592 3.057 2.076-1.296-1.416-2.718zm2.001 6.354l-1.036 3.287 2.384.552.921-2.924zm-3.079 5.907l-3.057 1.592 1.296 2.076 2.719-1.416z"/></g><g class="D"><path d="M341.674 353.349a13.7 13.7 0 0 0-2.836-19.162c-6.076-4.509-14.657-3.239-19.164 2.834s-3.239 14.657 2.837 19.166a13.7 13.7 0 0 0 19.163-2.838zm-5.863-4.351c-2.107 2.839-6.112 3.432-8.949 1.327a6.4 6.4 0 0 1-1.325-8.952c2.105-2.837 6.111-3.43 8.95-1.323a6.4 6.4 0 0 1 1.324 8.948z"/><path d="M324.963 357.299l-4.23-3.139-1.988 3.168 3.762 2.792zm-6.993-7.4l-.772-5.211-3.646.834.686 4.635zm.287-10.178l3.14-4.23-3.168-1.988-2.792 3.762zm7.401-6.993l5.211-.772-.834-3.646-4.635.686zm10.178.287l4.23 3.14 1.988-3.168-3.762-2.792zm6.993 7.401l.771 5.211 3.646-.834-.686-4.635zm-.287 10.178l-3.14 4.23 3.168 1.988 2.792-3.762zm-7.401 6.993l-5.211.771.834 3.646 4.635-.685zm-9.374-11.744l2.91 3.67 4.634-.688 1.72-4.353-2.907-3.668-4.634.684-1.723 4.355zm5.516-1.878a1.48 1.48 0 0 1 .307 2.077c-.488.657-1.417.797-2.077.307s-.795-1.42-.307-2.077a1.49 1.49 0 0 1 2.077-.307zm20.66-257.364c-1.961-.618-4.05.471-4.668 2.43a3.72 3.72 0 1 0 4.668-2.43zm1.997 4.53c-.543 1.723-2.376 2.678-4.098 2.136a3.27 3.27 0 0 1-2.134-4.099 3.27 3.27 0 0 1 4.099-2.134c1.72.542 2.676 2.376 2.133 4.097zm-1.997-4.53c-1.961-.618-4.05.471-4.668 2.43a3.72 3.72 0 1 0 4.668-2.43zm1.997 4.53c-.543 1.723-2.376 2.678-4.098 2.136a3.27 3.27 0 0 1-2.134-4.099 3.27 3.27 0 0 1 4.099-2.134c1.72.542 2.676 2.376 2.133 4.097zm-1.997-4.53c-1.961-.618-4.05.471-4.668 2.43a3.72 3.72 0 1 0 4.668-2.43zm1.997 4.53c-.543 1.723-2.376 2.678-4.098 2.136a3.27 3.27 0 0 1-2.134-4.099 3.27 3.27 0 0 1 4.099-2.134c1.72.542 2.676 2.376 2.133 4.097zm-.756-8.461a7.85 7.85 0 0 0-9.839 5.123c-1.301 4.13.991 8.536 5.124 9.837a7.84 7.84 0 0 0 9.835-5.124c1.301-4.131-.992-8.536-5.12-9.836zm1.741 8.771c-.713 2.262-3.131 3.523-5.392 2.81s-3.521-3.131-2.808-5.393 3.133-3.521 5.393-2.808 3.519 3.13 2.807 5.391zm-.553-.173a3.72 3.72 0 0 0-2.428-4.667c-1.961-.618-4.05.471-4.668 2.43a3.72 3.72 0 1 0 7.096 2.237zm-.432-.137c-.543 1.723-2.376 2.678-4.098 2.136a3.27 3.27 0 0 1-2.134-4.099 3.27 3.27 0 0 1 4.099-2.134c1.72.542 2.676 2.376 2.133 4.097zm-1.997-4.53c-1.961-.618-4.05.471-4.668 2.43a3.72 3.72 0 1 0 4.668-2.43zm1.997 4.53c-.543 1.723-2.376 2.678-4.098 2.136a3.27 3.27 0 0 1-2.134-4.099 3.27 3.27 0 0 1 4.099-2.134c1.72.542 2.676 2.376 2.133 4.097zm-1.997-4.53c-1.961-.618-4.05.471-4.668 2.43a3.72 3.72 0 1 0 4.668-2.43zm1.997 4.53c-.543 1.723-2.376 2.678-4.098 2.136a3.27 3.27 0 0 1-2.134-4.099 3.27 3.27 0 0 1 4.099-2.134c1.72.542 2.676 2.376 2.133 4.097z"/><path d="M350.003 97.772l-2.876-.906-.482 2.086 2.558.806zm-5.169-2.694l-1.393-2.674-1.816 1.133 1.239 2.379zm-1.75-5.56l.907-2.876-2.086-.482-.806 2.558zm2.694-5.169l2.675-1.393-1.134-1.816-2.379 1.239zm5.56-1.75l2.876.906.483-2.086-2.558-.806zm5.169 2.694l1.393 2.675 1.816-1.134-1.239-2.379zm1.75 5.56l-.906 2.876 2.086.483.806-2.558zm-2.694 5.169l-2.674 1.393 1.133 1.816 2.379-1.239zm-41.835 133.444c-1.961-.618-4.05.471-4.668 2.43a3.72 3.72 0 1 0 4.668-2.43zm1.996 4.53c-.543 1.723-2.376 2.678-4.097 2.136a3.27 3.27 0 0 1-2.134-4.099 3.27 3.27 0 0 1 4.099-2.134c1.719.542 2.675 2.376 2.132 4.097zm-1.996-4.53c-1.961-.618-4.05.471-4.668 2.43a3.72 3.72 0 1 0 4.668-2.43zm1.996 4.53c-.543 1.723-2.376 2.678-4.097 2.136a3.27 3.27 0 0 1-2.134-4.099 3.27 3.27 0 0 1 4.099-2.134c1.719.542 2.675 2.376 2.132 4.097zm-1.996-4.53c-1.961-.618-4.05.471-4.668 2.43a3.72 3.72 0 1 0 4.668-2.43zm1.996 4.53c-.543 1.723-2.376 2.678-4.097 2.136a3.27 3.27 0 0 1-2.134-4.099 3.27 3.27 0 0 1 4.099-2.134c1.719.542 2.675 2.376 2.132 4.097zm-.756-8.461a7.85 7.85 0 0 0-9.839 5.123c-1.301 4.131.991 8.536 5.124 9.837a7.84 7.84 0 0 0 9.835-5.124c1.301-4.131-.992-8.536-5.12-9.836zm1.741 8.771c-.713 2.262-3.131 3.523-5.392 2.81s-3.521-3.131-2.808-5.393 3.133-3.521 5.393-2.808 3.519 3.13 2.807 5.391zm-.553-.173a3.72 3.72 0 0 0-2.428-4.667c-1.961-.618-4.05.471-4.668 2.43a3.72 3.72 0 1 0 7.096 2.237zm-.432-.137c-.543 1.723-2.376 2.678-4.097 2.136a3.27 3.27 0 0 1-2.134-4.099 3.27 3.27 0 0 1 4.099-2.134c1.719.542 2.675 2.376 2.132 4.097zm-1.996-4.53c-1.961-.618-4.05.471-4.668 2.43a3.72 3.72 0 1 0 4.668-2.43zm1.996 4.53c-.543 1.723-2.376 2.678-4.097 2.136a3.27 3.27 0 0 1-2.134-4.099 3.27 3.27 0 0 1 4.099-2.134c1.719.542 2.675 2.376 2.132 4.097zm-1.996-4.53c-1.961-.618-4.05.471-4.668 2.43a3.72 3.72 0 1 0 4.668-2.43zm1.996 4.53c-.543 1.723-2.376 2.678-4.097 2.136a3.27 3.27 0 0 1-2.134-4.099 3.27 3.27 0 0 1 4.099-2.134c1.719.542 2.675 2.376 2.132 4.097z"/><path d="M311.787 240.637l-2.876-.906-.482 2.086 2.558.806zm-5.169-2.694l-1.392-2.674-1.817 1.133 1.239 2.379zm-1.75-5.56l.907-2.876-2.086-.482-.806 2.558zm2.694-5.169l2.675-1.392-1.134-1.817-2.379 1.239zm5.56-1.75l2.876.907.483-2.086-2.558-.806zm5.169 2.694l1.393 2.675 1.816-1.134-1.239-2.379zm1.75 5.56l-.906 2.876 2.086.483.806-2.558zm-2.694 5.169l-2.674 1.393 1.133 1.816 2.379-1.239zM95.021 116.993a11.8 11.8 0 0 0-8.667-14.251 11.8 11.8 0 0 0-14.254 8.667 11.8 11.8 0 0 0 8.669 14.254 11.8 11.8 0 0 0 14.252-8.67zm-6.108-1.488c-.721 2.958-3.699 4.77-6.655 4.049a5.51 5.51 0 0 1-4.049-6.657 5.51 5.51 0 0 1 6.657-4.046 5.51 5.51 0 0 1 4.047 6.654z"/><path d="M83.088 125.723l-4.407-1.074-.516 3.179 3.919.955zm-8.026-3.528l-2.357-3.876-2.613 1.883 2.096 3.447zm-3.181-8.171l1.074-4.406-3.179-.517-.955 3.92zm3.529-8.026l3.875-2.357-1.882-2.613-3.447 2.097zm8.17-3.18l4.407 1.074.517-3.179-3.92-.955zm8.026 3.528l2.357 3.876 2.613-1.883-2.096-3.447zm3.181 8.171l-1.074 4.407 3.179.516.955-3.92zm-3.529 8.026l-3.875 2.357 1.883 2.613 3.447-2.097zm-11.369-6.177l3.537 1.937 3.445-2.098-.093-4.029-3.535-1.936-3.447 2.094.093 4.032zm3.747-3.337c.688.167 1.107.857.939 1.545a1.28 1.28 0 0 1-1.545.939 1.28 1.28 0 0 1-.939-1.545 1.28 1.28 0 0 1 1.545-.939z"/></g><path d="M361.59 238.938c-2.69-4.096-4.202-8.703-4.202-13.573 0-17.196 18.883-31.138 42.162-31.138s42.145 13.943 42.145 31.138-18.866 31.138-42.145 31.138c-11.288 0-21.521-3.27-29.081-8.615l-14.523 3.693 5.644-12.643z" class="E"/><path d="M361.59 238.938c-2.538-3.781-4.129-8.246-4.296-12.833-.126-4.577 1.002-9.208 3.353-13.169 2.298-3.99 5.573-7.354 9.273-10.06 3.704-2.721 7.875-4.776 12.228-6.221 4.354-1.455 8.891-2.327 13.467-2.693 4.583-.335 9.197-.051 13.726.698 1.125.231 2.267.385 3.378.68l3.33.896 3.253 1.149c1.082.39 2.11.917 3.168 1.369 4.152 1.975 8.045 4.563 11.319 7.83 3.266 3.254 5.9 7.23 7.289 11.679 1.386 4.433 1.487 9.299.138 13.757-1.312 4.473-3.885 8.49-7.107 11.787-3.229 3.31-7.091 5.944-11.222 7.964-4.13 2.044-8.58 3.375-13.093 4.195-4.521.776-9.134 1.108-13.712.785-4.577-.289-9.124-1.125-13.48-2.563s-8.538-3.434-12.264-6.113l.188.035-14.552 3.578-.22.054.093-.205 5.743-12.599zm0 0l-5.544 12.686-.127-.151 14.494-3.807.1-.026.088.061c7.478 5.162 16.497 7.849 25.524 8.332 4.524.279 9.074-.091 13.518-.894 4.44-.825 8.814-2.144 12.858-4.162 4.046-1.993 7.815-4.583 10.946-7.813 3.125-3.218 5.595-7.111 6.844-11.412 1.287-4.288 1.164-8.944-.165-13.196-1.321-4.273-3.847-8.124-7.014-11.298-3.173-3.185-6.969-5.729-11.034-7.677-1.036-.446-2.042-.967-3.103-1.352l-3.191-1.138-3.271-.89c-1.091-.294-2.215-.447-3.321-.678-4.455-.756-9-1.03-13.519-.74-4.513.321-8.995 1.141-13.301 2.538-4.306 1.387-8.436 3.377-12.109 6.026-3.673 2.633-6.909 5.923-9.243 9.806-2.376 3.863-3.561 8.407-3.509 12.945.091 4.547 1.6 9.02 4.079 12.84zm16.271-8.475v2.315h-9.435V219.19h9.263v2.316h-6.621v3.272h5.722v2.144h-5.722v3.54h6.793zm2.068 2.316v-13.588h6.01c.625 0 1.202.131 1.731.393a4.5 4.5 0 0 1 1.368 1.033c.383.428.683.913.899 1.455s.325 1.088.325 1.636c0 .88-.22 1.681-.66 2.402s-1.036 1.241-1.789 1.559l3.101 5.11h-2.967l-2.774-4.555h-2.603v4.555h-2.641zm2.641-6.871h3.311c.242 0 .469-.057.679-.172s.392-.271.546-.469a2.32 2.32 0 0 0 .363-.698c.09-.268.135-.555.135-.861 0-.319-.052-.612-.153-.88a2.3 2.3 0 0 0-.412-.698c-.172-.198-.37-.351-.593-.46a1.55 1.55 0 0 0-.68-.163h-3.195v4.401zm10.084 6.871v-13.588h6.01c.625 0 1.202.131 1.731.393a4.5 4.5 0 0 1 1.368 1.033c.383.428.683.913.899 1.455s.325 1.088.325 1.636c0 .88-.22 1.681-.66 2.402s-1.036 1.241-1.789 1.559l3.1 5.11h-2.967l-2.775-4.555h-2.602v4.555h-2.64zm2.642-6.871h3.31c.242 0 .469-.057.679-.172s.392-.271.546-.469a2.32 2.32 0 0 0 .363-.698c.09-.268.135-.555.135-.861 0-.319-.052-.612-.153-.88a2.3 2.3 0 0 0-.412-.698c-.172-.198-.37-.351-.593-.46a1.55 1.55 0 0 0-.68-.163h-3.195v4.401zm15.884 6.966c-.995 0-1.897-.194-2.708-.583s-1.506-.906-2.086-1.55-1.03-1.381-1.35-2.21a7.01 7.01 0 0 1-.477-2.545c0-.906.169-1.773.507-2.603s.804-1.563 1.396-2.201a6.65 6.65 0 0 1 2.115-1.521 6.28 6.28 0 0 1 2.66-.565c.982 0 1.878.201 2.689.603s1.503.928 2.076 1.579a7.27 7.27 0 0 1 1.34 2.22c.319.83.478 1.671.478 2.526 0 .906-.166 1.77-.497 2.593a7.05 7.05 0 0 1-1.378 2.182 6.62 6.62 0 0 1-2.105 1.512c-.817.375-1.703.563-2.66.563zm-3.943-6.889a5.45 5.45 0 0 0 .268 1.703c.179.549.438 1.034.775 1.455a3.84 3.84 0 0 0 1.244 1.014c.491.255 1.049.383 1.675.383.638 0 1.202-.13 1.693-.392a3.86 3.86 0 0 0 1.244-1.043c.338-.434.593-.922.766-1.464a5.44 5.44 0 0 0 .258-1.655c0-.586-.093-1.154-.277-1.703s-.446-1.034-.784-1.455-.753-.756-1.244-1.004a3.62 3.62 0 0 0-1.655-.374c-.639 0-1.206.131-1.703.393s-.913.606-1.244 1.033-.584.913-.756 1.455a5.44 5.44 0 0 0-.26 1.654zm12.612 6.794v-13.588h6.01c.625 0 1.202.131 1.731.393a4.5 4.5 0 0 1 1.368 1.033c.383.428.683.913.899 1.455s.325 1.088.325 1.636c0 .88-.22 1.681-.66 2.402s-1.036 1.241-1.789 1.559l3.101 5.11h-2.967l-2.774-4.555h-2.603v4.555h-2.641zm2.641-6.871h3.311c.242 0 .469-.057.679-.172s.393-.271.546-.469a2.32 2.32 0 0 0 .363-.698c.09-.268.135-.555.135-.861 0-.319-.052-.612-.153-.88a2.3 2.3 0 0 0-.412-.698c-.172-.198-.37-.351-.593-.46a1.55 1.55 0 0 0-.68-.163h-3.195v4.401z" class="D"/><defs ><path id="B" d="M92.637 317.145l-14.833.279-7.515.112-7.549.055-.444.003-.002-.449-.054-12.633-.002-.502.502.002 14.948.063 14.948.164.275.003-.002.27-.131 6.375-.141 6.258zm0 0l-.142-6.375-.131-6.258.273.273-14.948.164-14.948.063.499-.499-.054 12.633-.446-.446 7.4.055 7.433.112 15.064.278z"/><path id="C" d="M360.692 223.437l-14.833.279-7.515.112-7.549.055-.444.003-.002-.449-.054-12.633-.002-.502.502.002 14.948.063 14.948.164.275.003-.002.27-.131 6.375-.141 6.258zm0 0l-.142-6.375-.131-6.258.273.273-14.948.164-14.948.063.499-.499-.054 12.633-.446-.445 7.4.055 7.433.112 15.064.277z"/><path id="D" d="M91.291 305.331c2.248.076 3.658 3.669 5.41 4.718.927.558 1.83.524 2.481-.39 1.736-2.423-.646-5.413-2.886-7.085 1.602.659 2.931 1.816 4.658 2.144 1.046.192 1.859-.196 2.103-1.259.761-3.304-3.383-4.774-6.226-4.843 1.378-.958 5.329-3.563 3.23-4.844-2.127-1.286-6.763 2.439-8.275 3.665-2.222 1.803-4.873 4.498-4.973 7.318-.13 3.293 2.748 1.267 4.478.576z"/><path id="E" d="M56.676 304.157c-2.244.161-3.515 3.806-5.226 4.92-.905.593-1.808.593-2.494-.295-1.827-2.356.439-5.434 2.614-7.19-1.576.719-2.86 1.926-4.573 2.32-1.038.231-1.865-.125-2.15-1.178-.886-3.273 3.199-4.899 6.037-5.076-1.414-.905-5.461-3.358-3.412-4.718 2.076-1.366 6.851 2.179 8.408 3.348 2.289 1.717 5.04 4.309 5.248 7.123.255 3.285-2.697 1.37-4.452.746z"/><path id="F" d="M83.648 291.137c2.371-1.053 5.642 1.966 7.988 2.172 1.242.112 2.162-.378 2.378-1.653.582-3.389-3.395-5.291-6.561-5.899 1.994-.123 3.955.409 5.912-.12 1.182-.328 1.83-1.139 1.549-2.365-.874-3.812-5.913-3.251-8.898-1.891.948-1.688 3.735-6.38.913-6.652-2.854-.264-5.789 5.934-6.741 7.968-1.398 2.99-2.792 7.119-1.476 10.096 1.523 3.482 3.489-.069 4.936-1.656z"/><path id="G" d="M188.834 289.798c.033-.393-14.777-5.354-14.777-5.354l.875-50.886 19.639-4.214-5.737 60.454z"/><path id="H" d="M324.489 309.772c.104-.381 15.718.058 15.718.058l16.69-48.079-16.989-10.715-15.419 58.736z"/><path id="I" d="M216.77 258.131l5.293.857-.857 5.293-5.293-.857z"/><path id="J" d="M328.298 285.141l-57.801-13.737c3.793-15.958 19.809-25.818 35.767-22.026s25.827 19.805 22.034 35.763z"/><path id="K" d="M189.141 359.252c-7.232 0-23.064-1.626-33.252-14.725-13.034-16.758-8.323-48.914-8.117-50.275l5.659.859c-.047.309-4.544 31.09 6.976 45.902 11.263 14.481 31.692 12.402 31.897 12.377l.644 5.687c-.223.027-1.624.175-3.807.175z"/><path id="L" d="M201.1 375.633c-.021-.261-10.256-1.896-10.256-1.896l-4.968-33.405 12.397-4.897 2.827 40.198z"/><path id="M" d="M302.296 375.695c.027-.26 10.296-1.669 10.296-1.669l5.705-33.287-12.286-5.17-3.715 40.126z"/><path id="N" d="M322.663 357.132c.147-.138 15.203-14.103 32.915-9.326 18.112 4.887 33.066 32.167 33.214 32.443l5.034-2.721c-.654-1.211-16.251-29.724-36.759-35.246-20.857-5.625-37.642 10.034-38.347 10.704l3.943 4.146z"/></defs></svg>