<svg xmlns="http://www.w3.org/2000/svg" xmlns:xlink="http://www.w3.org/1999/xlink" viewBox="0 0 500 500" xmlns:v="https://vecta.io/nano"><style><![CDATA[.B{fill:#ffc727}.C{fill:#263238}.D{fill:#fff}.E{fill:#f7a9a0}.F{opacity:.2}.G{fill:#ebebeb}.H{fill:#030402}.I{fill:#455a64}.J{fill:#37474f}]]></style><g class="G"><use xlink:href="#B"/><use xlink:href="#B" x="-14.772" y="14.109"/><path d="M88.324 317.218l-13.124.278-6.661.112-6.695.055-.444.003-.002-.449-.054-11.19-.002-.502.502.002 13.24.063 13.24.164.276.003-.003.27-.131 5.654-.142 5.537zm0 0l-.142-5.654-.131-5.536.273.273-13.24.164-13.24.063.499-.499-.054 11.19-.446-.446 6.546.055 6.579.112 13.356.278z"/><use xlink:href="#B" x="-364.603" y="14.109"/><use xlink:href="#B" x="14.772" y="14.109"/><use xlink:href="#B" x="-287.58" y="-178.876"/><use xlink:href="#B" x="-302.351" y="-164.766"/><use xlink:href="#B" x="-272.808" y="-164.766"/><use xlink:href="#B" x="-130.854" y="-100.501"/><path d="M436.625 65.373l-13.125.278-6.661.112-6.695.055-.444.004-.002-.449-.054-11.19-.002-.502.502.002 13.24.063 13.24.164.276.003-.003.27-.131 5.654-.141 5.536zm0 0l-.142-5.654-.131-5.536.273.273-13.24.164-13.24.063.499-.499-.054 11.19-.446-.446 6.546.055 6.579.112 13.356.278z"/><use xlink:href="#C"/><use xlink:href="#C" x="-377.843" y="-14.098"/></g><path d="M90.9 331.368l2.292-12.662 168.425 30.484-2.292 12.662z" fill="#dbdbdb"/><path d="M103.306 320.546l-11.932 8.273 1.829-10.102zm19.165 3.469l-14.955 10.37-10.238-1.854 14.955-10.369zm19.156 3.468l-14.955 10.37L116.434 336l14.964-10.368zm19.165 3.47l-14.955 10.37-10.238-1.854 14.954-10.369zm19.155 3.468l-14.954 10.37-10.238-1.854 14.954-10.369zm19.165 3.47l-14.963 10.368-10.229-1.852 14.954-10.37zm19.156 3.468l-14.954 10.37-10.238-1.854 14.954-10.37zm19.156 3.468l-14.954 10.37-10.229-1.852 14.954-10.37zm19.165 3.47l-14.954 10.37-10.239-1.854 14.955-10.37zm4.335 4.792l-1.589 8.782-8.783-1.59z" fill="#c7c7c7"/><path d="M90.513 343.479l170.086-19.17 1.441 12.787-170.086 19.17z" fill="#dbdbdb"/><g fill="#c7c7c7"><use xlink:href="#D"/><path d="M98.662 346.463l1.601-.181a1.97 1.97 0 0 1 .775.049 1.49 1.49 0 0 1 .578.309c.158.14.284.312.377.516s.153.429.181.672c.045.395.019.767-.078 1.116s-.251.66-.463.931-.473.493-.784.666-.655.281-1.033.324l-1.601.18.447-4.582zm1.241 3.474c.21-.024.396-.091.558-.2a1.4 1.4 0 0 0 .403-.419c.106-.169.182-.358.226-.568s.054-.426.029-.649c-.034-.294-.131-.524-.292-.689s-.381-.231-.658-.2l-.568.064-.267 2.725.569-.064zm4.557.446c-.274.03-.521.006-.743-.073a1.59 1.59 0 0 1-.577-.356c-.163-.158-.293-.346-.392-.563a2.24 2.24 0 0 1-.189-.69 2.29 2.29 0 0 1 .025-.681c.043-.225.113-.444.21-.656a3.1 3.1 0 0 1 .364-.596 2.81 2.81 0 0 1 .496-.497c.186-.145.386-.263.602-.358a2.32 2.32 0 0 1 .675-.182c.269-.03.514-.004.736.077s.413.2.574.356.29.344.389.563.162.448.189.688a2.37 2.37 0 0 1-.107 1.008c-.109.336-.273.642-.49.92a2.99 2.99 0 0 1-.78.698 2.35 2.35 0 0 1-.982.342zm.098-.944a1.12 1.12 0 0 0 .569-.223c.161-.125.291-.275.393-.45s.174-.366.217-.57a1.84 1.84 0 0 0 .032-.592c-.016-.138-.047-.267-.094-.385a1.04 1.04 0 0 0-.188-.308.71.71 0 0 0-.284-.194c-.111-.042-.239-.056-.381-.04a1.15 1.15 0 0 0-.566.22c-.163.123-.295.271-.397.444a1.86 1.86 0 0 0-.217.567 1.87 1.87 0 0 0-.033.592 1.47 1.47 0 0 0 .095.388c.048.12.11.224.188.311a.74.74 0 0 0 .285.197c.11.045.238.059.381.043z"/><use xlink:href="#E"/><path d="M115.119 349.181c-.274.03-.521.006-.743-.073a1.58 1.58 0 0 1-.577-.356c-.163-.158-.293-.346-.392-.563s-.162-.446-.189-.69a2.29 2.29 0 0 1 .025-.681c.043-.225.113-.444.21-.656a3.1 3.1 0 0 1 .364-.596 2.81 2.81 0 0 1 .496-.497c.186-.145.386-.263.602-.358s.44-.155.675-.182a1.59 1.59 0 0 1 .736.078c.222.081.413.2.574.356s.29.344.389.563.162.448.189.688a2.37 2.37 0 0 1-.107 1.008c-.109.336-.273.642-.49.92a2.99 2.99 0 0 1-.78.698 2.34 2.34 0 0 1-.982.341zm.098-.944c.218-.025.408-.099.569-.223s.291-.275.393-.45.174-.366.217-.57a1.84 1.84 0 0 0 .032-.592c-.016-.138-.047-.266-.095-.385a1.04 1.04 0 0 0-.188-.308.71.71 0 0 0-.284-.194c-.112-.042-.239-.056-.381-.04-.215.025-.403.098-.566.22s-.295.271-.397.444a1.87 1.87 0 0 0-.217.567 1.84 1.84 0 0 0-.032.592 1.48 1.48 0 0 0 .095.388c.048.12.11.224.188.311a.74.74 0 0 0 .285.197.75.75 0 0 0 .381.043z"/><path d="M118.769 345.117l-1.28.143.087-.93 3.588-.404-.087.929-1.274.144-.36 3.655-1.034.116.36-3.653zm5.661 3.015c-.265.03-.507.003-.725-.081a1.64 1.64 0 0 1-.572-.37c-.163-.162-.294-.354-.393-.575a2.32 2.32 0 0 1-.191-.697 2.26 2.26 0 0 1 .021-.634c.037-.218.101-.43.19-.638a2.8 2.8 0 0 1 .345-.591c.14-.186.303-.353.486-.502s.387-.273.609-.372a2.41 2.41 0 0 1 .719-.193c.403-.045.744.008 1.02.16s.474.368.59.649l-.852.658a.75.75 0 0 0-.144-.281.65.65 0 0 0-.214-.167.72.72 0 0 0-.257-.073c-.09-.009-.178-.009-.262.001a1.13 1.13 0 0 0-.569.22 1.5 1.5 0 0 0-.393.447c-.101.174-.173.363-.214.563s-.052.391-.031.572a1.49 1.49 0 0 0 .099.398 1.06 1.06 0 0 0 .195.316c.08.089.176.156.288.201a.75.75 0 0 0 .369.044c.088-.01.179-.032.271-.066a1.34 1.34 0 0 0 .272-.138 1.25 1.25 0 0 0 .25-.22c.077-.088.141-.192.192-.312l.8.414a1.79 1.79 0 0 1-.335.484 2.42 2.42 0 0 1-.471.385c-.173.108-.354.197-.545.266s-.372.112-.548.132zm2.323-.301l.448-4.583 1.923-.217c.177-.021.337-.002.482.054a1.09 1.09 0 0 1 .379.245c.108.107.195.233.263.379a1.46 1.46 0 0 1 .128.459c.018.155.011.312-.021.468s-.082.309-.153.456a1.95 1.95 0 0 1-.267.41 1.81 1.81 0 0 1-.362.327l.762 1.6-1.167.132-.655-1.389-.587.066-.14 1.478-1.033.115zm2.126-2.615a.35.35 0 0 0 .182-.081.62.62 0 0 0 .152-.184c.043-.074.074-.16.096-.256a.89.89 0 0 0 .014-.302.57.57 0 0 0-.126-.324c-.068-.077-.145-.111-.228-.102l-.826.093-.121 1.253.857-.097zm3.82 1.985c-.274.03-.521.006-.743-.073a1.59 1.59 0 0 1-.577-.356c-.163-.158-.293-.346-.392-.563a2.24 2.24 0 0 1-.189-.69 2.26 2.26 0 0 1 .025-.681c.043-.225.113-.444.21-.656a3.1 3.1 0 0 1 .364-.596 2.81 2.81 0 0 1 .496-.497c.186-.145.386-.263.602-.358a2.32 2.32 0 0 1 .675-.182c.269-.03.514-.004.736.077s.413.2.574.356.29.344.389.563.162.448.189.688a2.37 2.37 0 0 1-.107 1.008c-.109.336-.273.642-.49.92a2.99 2.99 0 0 1-.78.698 2.34 2.34 0 0 1-.982.342zm.098-.944a1.12 1.12 0 0 0 .569-.223c.161-.125.291-.275.393-.45s.173-.366.217-.57a1.84 1.84 0 0 0 .032-.592c-.016-.138-.047-.267-.095-.385a1.04 1.04 0 0 0-.188-.308c-.078-.087-.173-.152-.284-.194s-.239-.056-.381-.04c-.215.025-.403.098-.566.22s-.295.271-.397.444a1.86 1.86 0 0 0-.217.567 1.87 1.87 0 0 0-.033.592 1.48 1.48 0 0 0 .095.388 1.05 1.05 0 0 0 .188.311.74.74 0 0 0 .285.197.78.78 0 0 0 .382.043zm4.183.472a3.08 3.08 0 0 1-.943-.04 2.4 2.4 0 0 1-.828-.322l.542-.974c.011.02.056.056.136.105s.181.099.304.145a2.47 2.47 0 0 0 .418.113 1.61 1.61 0 0 0 .481.017c.202-.023.34-.075.416-.159s.107-.183.094-.301c-.008-.071-.038-.129-.09-.172a.74.74 0 0 0-.207-.111 2.34 2.34 0 0 0-.296-.082l-.357-.077c-.315-.075-.556-.178-.721-.309s-.262-.319-.291-.567c-.03-.27-.003-.518.083-.744a1.67 1.67 0 0 1 .371-.588c.163-.165.355-.299.577-.404a2.27 2.27 0 0 1 .699-.197c.151-.017.299-.019.441-.004a2.51 2.51 0 0 1 .403.069c.128.032.246.072.355.12l.301.145-.534.928c-.01-.016-.049-.043-.115-.083s-.15-.078-.253-.119-.216-.071-.342-.095-.252-.029-.378-.015c-.177.021-.31.074-.4.163s-.127.203-.112.342c.014.122.089.207.227.252a4.92 4.92 0 0 0 .578.142 3.89 3.89 0 0 1 .457.118c.139.047.261.106.365.18a.87.87 0 0 1 .251.272c.063.107.103.24.121.395.034.298.006.559-.085.78a1.48 1.48 0 0 1-.39.558c-.17.151-.368.27-.592.354s-.455.14-.686.165zm3.739-.42a3.08 3.08 0 0 1-.943-.04c-.313-.063-.59-.17-.828-.322l.542-.974c.011.02.056.056.136.105s.181.099.304.145a2.38 2.38 0 0 0 .418.113 1.61 1.61 0 0 0 .481.017c.202-.023.34-.075.416-.159s.107-.183.094-.301c-.008-.071-.038-.129-.09-.172a.69.69 0 0 0-.207-.11c-.087-.031-.185-.058-.296-.082l-.357-.078c-.315-.075-.556-.178-.721-.309s-.263-.319-.291-.567c-.03-.27-.003-.517.083-.744a1.67 1.67 0 0 1 .371-.588c.163-.165.355-.299.577-.404a2.27 2.27 0 0 1 .699-.197c.151-.016.298-.019.44-.004a2.51 2.51 0 0 1 .403.069 2.24 2.24 0 0 1 .355.12l.301.145-.534.928c-.01-.016-.049-.043-.115-.083a1.69 1.69 0 0 0-.253-.119 2 2 0 0 0-.343-.095c-.126-.025-.252-.029-.378-.016-.177.021-.31.074-.4.163s-.127.203-.112.342c.014.122.089.207.227.252a4.65 4.65 0 0 0 .578.143 3.89 3.89 0 0 1 .457.118c.139.046.261.106.365.18s.188.163.251.272.103.24.121.395c.034.298.006.559-.085.78a1.49 1.49 0 0 1-.39.558c-.17.151-.368.27-.592.354s-.453.139-.684.165zm5.272-3.015a.74.74 0 0 1-.034.32c-.035.103-.088.198-.16.283a.92.92 0 0 1-.251.21c-.096.056-.196.09-.302.101a.49.49 0 0 1-.406-.123c-.111-.1-.176-.23-.194-.39a.71.71 0 0 1 .037-.32c.037-.104.091-.197.16-.28a.94.94 0 0 1 .245-.207.72.72 0 0 1 .298-.1c.164-.019.301.021.413.119s.177.227.194.387zm4.022-2.617l1.601-.181c.29-.033.549-.017.775.05a1.49 1.49 0 0 1 .578.309c.158.139.284.312.377.516s.153.429.181.672c.045.395.019.767-.078 1.117a2.63 2.63 0 0 1-.463.93 2.58 2.58 0 0 1-.784.666c-.31.173-.655.281-1.033.324l-1.601.18.447-4.583zm1.241 3.475c.21-.024.396-.091.558-.2a1.4 1.4 0 0 0 .403-.419c.106-.169.182-.358.226-.568a2.03 2.03 0 0 0 .029-.648c-.033-.294-.131-.524-.292-.689s-.381-.231-.658-.2l-.568.064-.268 2.725.57-.065zm4.586.441c-.274.03-.521.006-.743-.073a1.58 1.58 0 0 1-.577-.356c-.163-.158-.293-.346-.392-.563a2.24 2.24 0 0 1-.189-.69 2.29 2.29 0 0 1 .025-.681c.043-.225.113-.444.21-.656a3.1 3.1 0 0 1 .364-.596 2.81 2.81 0 0 1 .496-.497c.186-.145.386-.263.602-.358a2.32 2.32 0 0 1 .675-.182c.269-.03.514-.004.736.077s.413.2.574.356.29.344.389.563.162.448.189.688a2.37 2.37 0 0 1-.107 1.008c-.109.336-.273.642-.49.92a2.99 2.99 0 0 1-.78.698 2.34 2.34 0 0 1-.982.342zm.098-.944c.218-.025.408-.099.568-.223s.291-.275.393-.45.173-.366.217-.57a1.84 1.84 0 0 0 .032-.592 1.52 1.52 0 0 0-.094-.385 1.06 1.06 0 0 0-.188-.308c-.078-.087-.173-.152-.284-.194s-.239-.056-.381-.04c-.215.025-.403.098-.566.22s-.295.271-.397.444a1.86 1.86 0 0 0-.217.567 1.87 1.87 0 0 0-.033.592 1.51 1.51 0 0 0 .095.388 1.05 1.05 0 0 0 .188.311.74.74 0 0 0 .285.197c.111.045.239.059.382.043z"/><use xlink:href="#F"/><path d="M166.496 343.393c-.274.03-.521.006-.742-.073a1.58 1.58 0 0 1-.577-.356c-.163-.158-.293-.346-.392-.563s-.162-.446-.189-.69a2.26 2.26 0 0 1 .025-.681c.043-.225.113-.444.21-.656a3.1 3.1 0 0 1 .364-.596 2.81 2.81 0 0 1 .496-.497c.186-.145.386-.263.602-.358s.44-.155.675-.182a1.59 1.59 0 0 1 1.31.434c.16.157.29.344.389.563a2.31 2.31 0 0 1 .19.688 2.37 2.37 0 0 1-.107 1.008c-.109.336-.273.642-.49.92a2.99 2.99 0 0 1-.78.698 2.38 2.38 0 0 1-.984.341zm.098-.944a1.12 1.12 0 0 0 .569-.223c.161-.125.291-.275.393-.45s.173-.366.217-.57a1.84 1.84 0 0 0 .032-.592c-.016-.138-.047-.266-.095-.385a1.04 1.04 0 0 0-.188-.308c-.078-.087-.173-.152-.284-.194s-.239-.056-.381-.04c-.215.025-.403.098-.566.22s-.295.271-.397.444a1.86 1.86 0 0 0-.217.567 1.87 1.87 0 0 0-.033.592 1.52 1.52 0 0 0 .095.388c.048.12.11.224.188.311a.74.74 0 0 0 .285.197c.111.045.239.059.382.043z"/><path d="M170.163 339.327l-1.28.144.087-.93 3.588-.404-.087.93-1.274.144-.36 3.655-1.034.116.36-3.655zm5.646 3.015c-.265.03-.507.003-.724-.08s-.409-.208-.572-.37-.294-.354-.393-.575a2.32 2.32 0 0 1-.191-.697 2.26 2.26 0 0 1 .021-.634c.037-.218.101-.43.19-.638a2.76 2.76 0 0 1 .346-.591c.14-.186.303-.353.486-.502s.387-.273.609-.372a2.41 2.41 0 0 1 .719-.193c.403-.045.744.008 1.02.16s.473.368.59.649l-.851.658a.75.75 0 0 0-.144-.281.65.65 0 0 0-.214-.167.72.72 0 0 0-.257-.073c-.09-.009-.178-.009-.262.001a1.13 1.13 0 0 0-.569.22 1.5 1.5 0 0 0-.393.447c-.101.175-.173.363-.214.563s-.052.391-.031.572a1.48 1.48 0 0 0 .099.398 1.08 1.08 0 0 0 .195.316c.08.089.176.156.288.201a.75.75 0 0 0 .369.044c.088-.01.179-.032.271-.066a1.29 1.29 0 0 0 .272-.138 1.25 1.25 0 0 0 .25-.22c.077-.088.141-.192.192-.312l.8.414a1.79 1.79 0 0 1-.335.484 2.42 2.42 0 0 1-.471.385 2.8 2.8 0 0 1-.545.265 2.43 2.43 0 0 1-.551.132zm2.303-.298l.448-4.583 1.923-.217c.177-.021.337-.002.482.054a1.09 1.09 0 0 1 .379.245c.108.107.195.233.263.379s.111.299.128.458a1.5 1.5 0 0 1-.021.468 1.86 1.86 0 0 1-.153.455c-.071.146-.16.283-.267.41a1.81 1.81 0 0 1-.362.327l.762 1.601-1.167.131-.655-1.389-.587.066-.14 1.478-1.033.117zm2.126-2.615a.35.35 0 0 0 .182-.081.62.62 0 0 0 .152-.184c.043-.074.074-.16.095-.256s.026-.196.014-.301a.56.56 0 0 0-.126-.324c-.068-.078-.145-.112-.228-.102l-.826.093-.121 1.253.858-.098zm3.864 1.98c-.274.03-.521.006-.743-.073a1.59 1.59 0 0 1-.577-.356c-.163-.158-.293-.346-.392-.563a2.24 2.24 0 0 1-.189-.69 2.29 2.29 0 0 1 .025-.681c.043-.225.113-.444.21-.656a3.1 3.1 0 0 1 .364-.596 2.81 2.81 0 0 1 .496-.497c.186-.145.386-.263.602-.358a2.32 2.32 0 0 1 .675-.182c.269-.03.514-.004.736.077s.413.2.574.356.29.344.389.563a2.31 2.31 0 0 1 .19.688 2.37 2.37 0 0 1-.107 1.008c-.109.336-.272.642-.49.92a2.99 2.99 0 0 1-.78.698 2.35 2.35 0 0 1-.983.342zm.098-.944a1.12 1.12 0 0 0 .569-.223c.161-.125.291-.275.393-.45s.174-.366.217-.57a1.84 1.84 0 0 0 .032-.592c-.015-.138-.047-.266-.094-.385a1.04 1.04 0 0 0-.187-.307.71.71 0 0 0-.284-.195c-.111-.042-.239-.056-.381-.04a1.15 1.15 0 0 0-.566.22c-.163.123-.295.271-.397.444a1.88 1.88 0 0 0-.217.567 1.87 1.87 0 0 0-.033.592c.016.138.048.267.095.388s.11.224.188.311a.74.74 0 0 0 .285.197c.11.045.237.059.38.043zm4.161.476a3.08 3.08 0 0 1-.943-.04c-.313-.063-.59-.171-.828-.322l.542-.974c.011.02.056.056.136.105s.181.099.304.145.262.084.418.112a1.61 1.61 0 0 0 .481.017c.202-.023.34-.075.416-.159s.107-.183.094-.301c-.008-.071-.038-.129-.09-.172a.74.74 0 0 0-.207-.111 2.34 2.34 0 0 0-.296-.082l-.357-.078c-.315-.075-.556-.178-.721-.309s-.262-.319-.291-.567c-.03-.27-.003-.517.083-.744a1.67 1.67 0 0 1 .371-.588c.163-.165.355-.299.577-.404a2.27 2.27 0 0 1 .699-.197 2.03 2.03 0 0 1 .44-.004 2.51 2.51 0 0 1 .403.069c.128.032.246.072.355.12l.301.145-.534.928c-.01-.015-.049-.043-.115-.083s-.15-.078-.253-.119-.216-.071-.342-.095-.253-.029-.379-.016c-.177.021-.31.074-.4.163s-.127.203-.112.342c.014.122.089.207.227.252a4.68 4.68 0 0 0 .578.142 3.89 3.89 0 0 1 .457.118c.139.047.261.106.365.18a.86.86 0 0 1 .251.272 1.01 1.01 0 0 1 .121.395c.034.298.006.559-.085.78a1.48 1.48 0 0 1-.39.558c-.17.151-.368.27-.592.354a2.78 2.78 0 0 1-.684.168zm3.754-.424a3.08 3.08 0 0 1-.943-.04 2.4 2.4 0 0 1-.828-.322l.542-.974c.011.02.056.056.136.105s.181.099.304.145a2.47 2.47 0 0 0 .418.113 1.61 1.61 0 0 0 .481.017c.202-.023.34-.075.416-.159s.107-.183.094-.301c-.008-.071-.038-.129-.09-.173a.67.67 0 0 0-.207-.11 2.34 2.34 0 0 0-.296-.082l-.357-.078c-.315-.075-.556-.178-.721-.309s-.262-.319-.291-.567c-.03-.27-.003-.517.083-.744a1.67 1.67 0 0 1 .371-.588c.163-.165.355-.299.577-.404a2.27 2.27 0 0 1 .699-.197c.151-.017.298-.019.44-.004a2.51 2.51 0 0 1 .403.069c.128.032.246.072.355.12l.301.145-.534.928c-.01-.015-.048-.043-.115-.083s-.15-.078-.253-.119-.216-.071-.342-.095-.253-.029-.379-.016c-.177.021-.31.074-.4.163s-.127.203-.112.342c.014.122.089.207.227.252a4.68 4.68 0 0 0 .578.142 3.89 3.89 0 0 1 .457.118c.139.047.261.106.365.18a.87.87 0 0 1 .251.272c.063.107.103.24.121.395.034.298.006.559-.085.78a1.48 1.48 0 0 1-.39.558c-.17.151-.368.27-.592.354s-.453.142-.684.167zm5.269-3.013a.74.74 0 0 1-.034.32c-.035.103-.088.198-.16.283a.92.92 0 0 1-.251.21c-.096.056-.196.09-.301.101a.49.49 0 0 1-.406-.123.59.59 0 0 1-.194-.39.71.71 0 0 1 .037-.32c.037-.104.091-.197.16-.28a.94.94 0 0 1 .245-.207.73.73 0 0 1 .298-.1c.164-.019.302.021.413.119s.175.227.193.387zm4.025-2.617l1.601-.181a1.97 1.97 0 0 1 .775.049 1.49 1.49 0 0 1 .578.309 1.53 1.53 0 0 1 .378.516c.093.204.153.429.181.672.045.395.019.767-.079 1.116s-.251.66-.463.93a2.58 2.58 0 0 1-.784.666c-.311.173-.655.281-1.033.324l-1.601.18.447-4.581zm1.24 3.474c.21-.024.396-.091.558-.2a1.4 1.4 0 0 0 .403-.419c.107-.169.182-.358.226-.568s.054-.426.03-.649c-.034-.294-.131-.524-.292-.689s-.381-.231-.658-.2l-.568.064-.267 2.725.568-.064zm4.546.446c-.274.03-.521.006-.743-.073a1.58 1.58 0 0 1-.577-.356c-.163-.158-.293-.346-.392-.563a2.24 2.24 0 0 1-.189-.69 2.29 2.29 0 0 1 .025-.681c.043-.225.113-.444.21-.656a3.1 3.1 0 0 1 .364-.596 2.81 2.81 0 0 1 .496-.497c.186-.145.386-.263.602-.358a2.34 2.34 0 0 1 .676-.182c.269-.03.514-.004.736.077s.413.2.574.356.29.344.389.563.162.448.189.688a2.37 2.37 0 0 1-.107 1.008c-.109.336-.273.642-.49.92a2.99 2.99 0 0 1-.78.698c-.303.188-.631.302-.983.342zm.098-.944c.218-.025.408-.099.569-.223a1.54 1.54 0 0 0 .393-.45c.102-.175.174-.366.217-.57a1.84 1.84 0 0 0 .032-.592 1.52 1.52 0 0 0-.094-.385 1.04 1.04 0 0 0-.188-.308c-.077-.087-.173-.152-.283-.194a.81.81 0 0 0-.381-.04 1.15 1.15 0 0 0-.566.22c-.163.123-.295.271-.397.444a1.88 1.88 0 0 0-.217.567 1.87 1.87 0 0 0-.033.592 1.52 1.52 0 0 0 .095.388c.048.12.11.224.188.311a.74.74 0 0 0 .285.197c.109.045.237.06.38.043z"/><use xlink:href="#G"/><path d="M217.881 337.602c-.274.03-.521.006-.742-.073a1.58 1.58 0 0 1-.577-.356c-.163-.158-.293-.346-.392-.563s-.162-.446-.189-.69a2.29 2.29 0 0 1 .025-.681c.043-.225.113-.444.21-.656a3.1 3.1 0 0 1 .364-.596 2.81 2.81 0 0 1 .496-.497c.186-.145.386-.263.602-.358s.44-.155.675-.182a1.59 1.59 0 0 1 1.31.434c.16.157.29.344.389.563a2.31 2.31 0 0 1 .19.688 2.37 2.37 0 0 1-.107 1.008c-.109.336-.273.642-.49.92a2.99 2.99 0 0 1-.78.698 2.36 2.36 0 0 1-.984.341zm.098-.944c.218-.025.408-.099.568-.223s.291-.275.393-.45.174-.366.217-.57a1.84 1.84 0 0 0 .032-.592 1.52 1.52 0 0 0-.094-.385 1.04 1.04 0 0 0-.188-.308.71.71 0 0 0-.284-.194c-.111-.042-.239-.056-.381-.04a1.15 1.15 0 0 0-.566.22c-.163.123-.295.271-.397.444a1.87 1.87 0 0 0-.25 1.159 1.52 1.52 0 0 0 .095.388c.048.12.11.224.188.311a.74.74 0 0 0 .285.197c.111.045.239.059.382.043z"/><path d="M221.532 333.539l-1.28.144.087-.93 3.588-.404-.087.929-1.274.144-.36 3.655-1.034.116.36-3.654zm5.664 3.013c-.265.03-.507.003-.725-.081a1.65 1.65 0 0 1-.572-.37c-.164-.162-.294-.354-.393-.575a2.32 2.32 0 0 1-.191-.697 2.26 2.26 0 0 1 .021-.634c.037-.218.101-.43.19-.638s.205-.405.346-.591a2.92 2.92 0 0 1 .486-.502c.183-.149.387-.273.609-.372a2.41 2.41 0 0 1 .719-.193c.403-.046.744.008 1.02.16s.474.368.59.649l-.852.658a.75.75 0 0 0-.144-.281.65.65 0 0 0-.214-.167.72.72 0 0 0-.257-.073c-.09-.009-.178-.009-.262.001a1.13 1.13 0 0 0-.569.22 1.5 1.5 0 0 0-.393.447c-.101.175-.173.363-.214.563a1.81 1.81 0 0 0-.031.572 1.48 1.48 0 0 0 .099.398 1.06 1.06 0 0 0 .195.316c.08.089.176.156.288.201a.75.75 0 0 0 .369.044c.088-.01.179-.032.271-.066a1.29 1.29 0 0 0 .272-.138 1.25 1.25 0 0 0 .25-.22c.077-.088.141-.192.192-.312l.8.414a1.79 1.79 0 0 1-.335.484 2.42 2.42 0 0 1-.471.385 2.8 2.8 0 0 1-.545.265c-.189.068-.372.113-.549.133zm2.314-.3l.448-4.583 1.923-.217c.177-.021.337-.002.482.054a1.09 1.09 0 0 1 .379.245 1.31 1.31 0 0 1 .263.379 1.46 1.46 0 0 1 .128.458c.018.155.011.312-.021.468a1.86 1.86 0 0 1-.153.455c-.071.146-.16.283-.267.41a1.78 1.78 0 0 1-.362.327l.762 1.601-1.167.131-.655-1.389-.587.066-.14 1.478-1.033.117zm2.126-2.615a.35.35 0 0 0 .182-.081.62.62 0 0 0 .152-.184c.043-.074.074-.16.096-.256a.89.89 0 0 0 .014-.302.57.57 0 0 0-.126-.324c-.068-.077-.145-.112-.228-.102l-.826.093-.121 1.253.857-.097zm3.826 1.984c-.274.03-.521.006-.742-.073a1.59 1.59 0 0 1-.577-.356c-.163-.158-.293-.346-.392-.563a2.24 2.24 0 0 1-.189-.69 2.29 2.29 0 0 1 .025-.681c.043-.225.113-.444.21-.656a3.1 3.1 0 0 1 .364-.596 2.81 2.81 0 0 1 .496-.497c.186-.145.386-.263.602-.358a2.32 2.32 0 0 1 .675-.182c.269-.03.514-.004.736.077s.413.2.574.356.29.344.389.563.162.448.189.688a2.37 2.37 0 0 1-.107 1.008c-.109.336-.273.642-.49.92a2.99 2.99 0 0 1-.78.698c-.302.188-.63.302-.983.342zm.098-.944a1.12 1.12 0 0 0 .569-.223c.161-.125.291-.275.393-.45s.173-.366.217-.57a1.84 1.84 0 0 0 .032-.592c-.016-.138-.047-.267-.094-.385a1.04 1.04 0 0 0-.188-.308c-.077-.087-.173-.152-.283-.194a.81.81 0 0 0-.381-.04c-.215.025-.403.098-.566.22s-.295.271-.397.444a1.86 1.86 0 0 0-.217.567 1.87 1.87 0 0 0-.033.592 1.52 1.52 0 0 0 .095.388c.048.12.11.224.188.311a.74.74 0 0 0 .285.197c.11.045.237.06.38.043zm4.177.474a3.08 3.08 0 0 1-.943-.04c-.313-.063-.59-.17-.828-.322l.542-.974c.011.02.056.056.136.105s.181.099.304.145a2.38 2.38 0 0 0 .418.113 1.61 1.61 0 0 0 .481.017c.202-.023.34-.075.416-.159s.107-.183.094-.301c-.008-.071-.038-.129-.09-.172a.69.69 0 0 0-.207-.111 2.34 2.34 0 0 0-.296-.082l-.357-.077c-.315-.075-.556-.178-.721-.309s-.262-.319-.291-.567c-.03-.27-.003-.517.083-.744a1.67 1.67 0 0 1 .371-.588c.163-.165.355-.299.577-.404a2.21 2.21 0 0 1 .699-.197 2.03 2.03 0 0 1 .44-.004 2.51 2.51 0 0 1 .403.069c.128.032.246.072.355.12l.301.145-.534.929c-.01-.016-.048-.043-.115-.083s-.15-.078-.253-.119-.216-.071-.342-.095a1.3 1.3 0 0 0-.378-.016c-.177.021-.31.074-.4.163s-.127.203-.112.342c.014.122.089.207.227.252a4.68 4.68 0 0 0 .578.142 3.89 3.89 0 0 1 .457.118c.139.046.261.106.365.18a.86.86 0 0 1 .251.272c.063.107.103.24.121.395.034.299.006.559-.084.78s-.22.407-.391.558-.368.269-.592.354-.454.139-.685.165zm3.736-.42a3.08 3.08 0 0 1-.943-.04c-.313-.063-.59-.17-.828-.322l.542-.974c.011.02.056.056.136.105s.181.099.304.145a2.47 2.47 0 0 0 .418.113 1.61 1.61 0 0 0 .481.017c.202-.023.34-.075.416-.159s.107-.183.094-.3c-.008-.071-.038-.129-.09-.173a.74.74 0 0 0-.207-.111 2.34 2.34 0 0 0-.296-.082l-.357-.077c-.315-.075-.556-.178-.721-.309s-.262-.319-.291-.567c-.03-.27-.003-.517.083-.744a1.67 1.67 0 0 1 .371-.588c.163-.165.355-.299.577-.404a2.28 2.28 0 0 1 .699-.197c.151-.017.298-.019.44-.004a2.51 2.51 0 0 1 .403.069c.128.032.246.072.355.12l.3.145-.534.928c-.01-.015-.049-.043-.115-.083s-.15-.078-.253-.119-.216-.071-.342-.095-.252-.029-.378-.015c-.177.021-.31.074-.4.163s-.127.204-.111.342c.014.122.089.206.227.252a4.89 4.89 0 0 0 .578.143 3.89 3.89 0 0 1 .457.118 1.38 1.38 0 0 1 .365.18.86.86 0 0 1 .251.272c.063.107.103.24.121.395.034.298.006.559-.085.78a1.48 1.48 0 0 1-.39.558c-.17.151-.368.27-.592.354a2.86 2.86 0 0 1-.685.164zm5.28-3.015a.74.74 0 0 1-.034.32c-.035.103-.088.198-.16.283a.92.92 0 0 1-.251.21c-.096.056-.196.09-.301.101a.49.49 0 0 1-.406-.123.59.59 0 0 1-.194-.39.71.71 0 0 1 .037-.32c.037-.104.091-.197.16-.28s.151-.151.245-.206a.73.73 0 0 1 .298-.1c.164-.019.302.021.413.119a.58.58 0 0 1 .193.386zm4.024-2.618l1.602-.181a1.95 1.95 0 0 1 .775.05 1.49 1.49 0 0 1 .578.309 1.53 1.53 0 0 1 .378.516c.093.204.153.429.181.672a2.93 2.93 0 0 1-.079 1.117c-.096.349-.251.66-.463.93a2.58 2.58 0 0 1-.784.666c-.31.174-.655.281-1.033.324l-1.601.18.446-4.583zm1.241 3.474c.21-.024.396-.091.558-.2a1.4 1.4 0 0 0 .403-.419c.106-.169.182-.358.226-.568a2.03 2.03 0 0 0 .029-.648c-.033-.294-.131-.524-.292-.689s-.381-.231-.658-.2l-.568.064-.268 2.725.57-.065zm4.566.443c-.274.031-.521.007-.742-.072a1.58 1.58 0 0 1-.577-.356c-.163-.158-.293-.346-.392-.563a2.27 2.27 0 0 1-.19-.69 2.29 2.29 0 0 1 .026-.681c.042-.225.113-.444.21-.656a3.1 3.1 0 0 1 .364-.596 2.81 2.81 0 0 1 .496-.497c.186-.144.386-.263.601-.358a2.34 2.34 0 0 1 .676-.182c.268-.03.514-.004.736.076s.413.2.573.357.29.344.389.563.162.448.189.688a2.37 2.37 0 0 1-.106 1.008c-.109.336-.273.642-.49.92a2.99 2.99 0 0 1-.78.698 2.33 2.33 0 0 1-.983.341zm.097-.943a1.11 1.11 0 0 0 .569-.224 1.55 1.55 0 0 0 .393-.449c.102-.176.173-.366.216-.57a1.87 1.87 0 0 0 .033-.592c-.015-.138-.047-.266-.094-.385a1.06 1.06 0 0 0-.188-.308c-.078-.087-.173-.152-.284-.194a.79.79 0 0 0-.382-.04 1.14 1.14 0 0 0-.566.22c-.163.123-.295.271-.397.444a1.88 1.88 0 0 0-.217.567 1.87 1.87 0 0 0-.033.592 1.52 1.52 0 0 0 .095.388 1.03 1.03 0 0 0 .188.311c.078.087.173.153.284.197s.241.06.383.043z"/></g><g class="G"><path d="M87.837 272.911h6.23v146.455h-6.23z"/><path d="M116.26 424.087H65.645l22.188-4.717h6.239zm141.06-151.176h6.23v146.455h-6.23z"/><path d="M285.743 424.087h-50.615l22.187-4.717h6.24z"/><ellipse cx="353.529" cy="457.448" rx="110.6" ry="9.764"/></g><path d="M230.334 400.943c-3.336.118-7.056.308-9.818-1.855-2.549-1.996-4.826-4.973-4.488-8.389.098-.974.321-1.576 1.365-1.16 1.591.634 2.818 2.389 3.919 3.621 1.429 1.599 2.921 3.082 4.627 4.388l3.676 2.578.454.337.172.129c.031.003.064.003.095.003.064.003.111.031.137.072.012.017.021.036.026.057.021.097-.035.215-.165.219z" class="B"/><path d="M230.499 400.724c-2.932-.05-6.097.083-8.442-1.907-1.084-.921-1.987-2.098-2.723-3.309-.339-.552-1.355-2.197-.934-2.851.763-1.185 4.256 3.644 4.74 4.107 1.818 1.731 4.085 2.756 6.476 3.363l.454.337c-1.706-.367-3.364-.971-4.863-1.868-2.081-1.242-3.239-3.077-4.867-4.79-.352-.372-1.413-1.618-1.813-.842-.264.511.717 2.122.929 2.467.701 1.147 1.559 2.259 2.574 3.144 2.338 2.042 5.489 1.971 8.444 2.092.011.016.02.035.025.057z" class="D"/><path d="M232.174 402.978l-.08.386c-.012.048-.036.071-.065.081-.064.026-.149-.006-.175-.067-.012-.021-.012-.05-.002-.081l.017-.052.036-.114c-.009-.022-.014-.036-.016-.048l-1.444-6.711-1.761-6.326c-.271-1.356-1.213-8.162 1.786-7.314 1.329.377 2.24 2.301 2.744 3.451.675 1.543 1.016 3.212 1.104 4.89.218 4.151-1.303 7.927-2.144 11.905z" class="B"/><path d="M233.134 394.504c.036-1.551-.078-3.113-.481-4.617-.134-.522-.786-3.025-1.634-2.963-.548.036-.641 1.117-.688 1.474-.191 1.515.3 3.061.595 4.535.605 3.004.941 6.04 1.101 9.09l-.077.579-.062.481-.021.165-.016.129c.026.062.114.093.176.067l.052-.372.01.305.067-.325.016-.072-.011-.507.973-7.969zm-1.013 6.872a55.7 55.7 0 0 0-.512-5.331l-.771-4.245c-.171-.796-.346-1.593-.383-2.41-.026-.621.062-2.916 1.246-1.494.853 1.034 1.06 3.232 1.163 4.499.119 1.406.057 2.818-.083 4.225l-.66 4.756z" class="D"/><path d="M233.97 412.132h-.002c-.057.011-.115.015-.123.015-3.05-.154-7.113.132-9.65-1.886-1.874-1.491-3.715-4.436-3.123-6.935.674-2.817 4.479.563 5.486 1.379 2.564 2.08 7.474 7.172 7.474 7.272.012.02.027.035.039.055.032.058-.033.085-.101.1z" class="B"/><path d="M234.075 412.043l-.527-.331-5.838-4.054c-.476-.362-3.909-3.418-4.426-2.327-.31.662.822 2.006 1.184 2.461a9.38 9.38 0 0 0 2.317 2.068c2.032 1.267 4.498 1.541 6.799 2.151.109.021.217.052.326.083a.3.3 0 0 0 .057.036h.005c.067-.014.129-.04.103-.087zm-6.034-1.737c-.967-.434-1.861-1.044-2.632-1.779-.512-.486-2.316-2.311-1.836-3.061.253-.398.465-.186.951.052a6.15 6.15 0 0 1 .646.372c.512.336.982.729 1.458 1.107l2.554 1.949 4.364 2.932c-1.829-.564-3.762-.786-5.505-1.572z" class="D"/><path d="M239.542 405.848c-.777 3.49-2.636 6.678-5.227 9.13-.019.017-.038.028-.057.033-.059.021-.121-.008-.156-.058s-.042-.119.015-.176c.052-.049.103-.104.155-.156l1.489-12.427c.1-.979.867-7.217 2.783-6.201 1.183.628 1.262 3.183 1.363 4.331.163 1.845.035 3.719-.365 5.524z" class="B"/><path d="M238.434 400.29c-.103-.346-.284-.703-.672-.46-.744.465-1.039 3.397-1.163 4.209-.512 3.345-1.303 6.562-2.11 9.835l-.202.832-.186.248c.036.052.098.077.155.057.01-.026.016-.057.026-.083.083-.109.171-.222.248-.336a21.42 21.42 0 0 0 3.02-5.889 20.24 20.24 0 0 0 .89-4.1c.144-1.283.382-3.057-.006-4.313zm-3.914 14.075c-.036.057-.078.109-.114.165.036-.114.072-.222.103-.336.77-2.492 1.427-5.036 1.867-7.612.222-1.308.362-2.627.631-3.925.114-.548.383-2.115.838-2.368.439-.253.445.357.491.708.031.253.031.714.036.951.073 4.531-1.323 8.771-3.852 12.417z" class="D"/><g class="B"><path d="M234.82 423.921h-.61l-.036-1.608-.29-6.5-.29-3.676-.01-.124-.036-.3-.041-.321c-.331-2.73-.91-5.398-2.094-7.963l-1.257-2.482-.129-.233c-.01-.021-.021-.041-.036-.062l-.134-.243-.103-.181-4.556-7.244-1.308-2.058a.76.76 0 0 1-.077-.124c-.036-.046-.067-.098-.098-.15l-5.812-9.075c-.077-.109.104-.207.176-.098l4.131 5.874.553.781 1.091 1.546 2.136 3.118c1.965 2.942 4.018 5.91 5.615 9.085a28.02 28.02 0 0 1 .346.719c.072.15.145.3.207.45.083.171.16.346.238.522 1.355 3.108 1.836 6.308 2.053 9.607l.041.693c.005.103.016.212.021.321 0 .057.005.114.01.171 0 .072.005.145.01.222 0 .057.005.114.005.171l.026.595.191 6.495.067 2.072z"/><path d="M216.614 384.672c-1.67-2.245-3.81-6.878-1.349-9.287.989-.97 2.365-1.068 3.489-.258 1.3.94 1.884 2.718 2.304 4.189 1.128 3.928 1.875 7.932 3.284 11.782.025.023.119.329.153.413s-.099.113-.128.036l-.139-.376c-2.66-1.93-5.635-3.836-7.614-6.499z"/></g><path d="M224.364 391.107c-.015-.021-.026-.047-.041-.067-.584-.941-1.096-1.908-1.561-2.906-.962-2.073-1.696-4.245-2.399-6.432-.269-.843-1.468-4.969-2.942-3.325-.62.693-.532 1.918-.434 2.766.15 1.365.62 2.668 1.282 3.868 1.324 2.384 3.382 4.188 5.543 5.791l.295.222.062.103a.43.43 0 0 0 .041.067c.01.016.021.026.036.031.052.026.119-.005.129-.057.005-.02.005-.041-.011-.061zm-.651-.456c-1.743-1.375-3.444-2.875-4.7-4.716-.652-.957-1.189-2.011-1.531-3.123-.15-.491-.264-1.003-.331-1.515a6.59 6.59 0 0 1-.067-1.158c.026-.848.378-1.774.879-1.861.621-.114.827.248 1.236.962.14.238.258.491.367.745.274.636.486 1.298.693 1.955l1.091 3.253.858 2.161a28.92 28.92 0 0 0 1.831 3.557l-.326-.26z" class="D"/><path d="M81.926 390.949l-1.151 6.625-.775 3.738c-.277 1.373-.685 2.773-.313 4.159.021.016.023.192.022.195-.005.01-.01.018-.015.024-.067.089-.244.089-.288-.051l-.024-.092c-.007-.01-.016-.019-.022-.029-.234-.316-.384-.923-.48-1.154-.434-1.046-.796-2.126-1.106-3.218-.635-2.234-1.021-4.54-1.082-6.865a23.48 23.48 0 0 1 .646-6.184c.397-1.617.961-4.028 2.166-5.265 1.093-1.118 2.002.674 2.316 1.58.708 2.058.367 4.43.106 6.537z" class="B"/><path d="M79.933 386.225c-.812 0-1.401 2.622-1.691 3.754-.46 1.784-.677 3.62-.693 5.461-.031 3.314.615 6.577 1.68 9.7l.129.378c.005.01.016.021.021.031.01.026.015.057.026.088.041.14.222.145.29.052l-.124-.817-.072-.734c-.222-2.663.16-5.388.496-8.03.393-3.104 1.014-9.878-.062-9.883zm-.584 18.434l.165 1.07-.243-.776c-.853-2.782-1.448-5.641-1.531-8.558a23.14 23.14 0 0 1 .357-4.892c.16-.869.367-1.722.631-2.56.114-.352.703-2.544 1.205-2.435.352.078.434 2.053.44 2.094l.015 1.189-.134 2.446-.621 5.279c-.284 2.345-.558 4.785-.284 7.143z" class="D"/><path d="M94.708 397.095c-1.491 2.907-4 5.133-6.592 7.041l-4.238 2.965c-1.183.827-2.614 1.702-3.66 2.816l-.14.151c-.292.327-.549.675-.759 1.047a.09.09 0 0 1-.07.045l-.049.129c-.012.03-.06.024-.057-.013l.016-.144c-.023-.043-.031-.082-.006-.124.006-.015.016-.031.026-.047l.019-.142c.424-3.399 2.801-6.832 4.81-9.448 1.998-2.605 4.489-4.929 7.592-6.125.781-.299 2.553-1.127 3.347-.492.725.581.078 1.726-.239 2.341z" class="B"/><path d="M92.405 397.11c-.708-.708-2.792 1.039-3.314 1.448-1.588 1.236-2.968 2.71-4.313 4.194-2.203 2.446-4.168 4.99-5.507 7.968v.005l-.072.093-.021.145c-.01.016-.021.031-.026.047-.026.041-.016.083.01.114l.103-.119.812-.936.14-.15c1.944-2.094 4.24-3.857 6.448-5.693 1.531-1.277 3.025-2.632 4.292-4.173.326-.394 2.043-2.349 1.448-2.943zm-.651 1.556c-1.758 2.916-4.804 5.047-7.389 7.172-1.753 1.432-3.47 2.927-4.907 4.659 1.298-2.632 3.165-5 5.093-7.167 1.112-1.251 2.255-2.487 3.501-3.604.667-.605 1.37-1.2 2.125-1.701.341-.228 1.024-.651 1.437-.776.988-.289.44.916.14 1.417z" class="D"/><path d="M78.847 418.038c-.027.051-.089.083-.152.085.013.02.026.035.039.053.02.027.01.057-.009.072s-.049.024-.073 0c-2.755-2.803-5.409-6.208-6.781-9.921-.579-1.566-.937-3.216-.984-4.888-.031-1.143-.091-3.445.886-4.279 1.97-1.673 3.764 5.432 4.031 6.503.488 1.953.81 3.942 1.259 5.904.494 2.147 1.142 4.253 1.788 6.358.015.043.012.082-.004.113z" class="B"/><path d="M78.847 418.036l-.31-.548c-1.696-3.004-2.808-6.102-3.547-9.545-.357-1.66-.672-3.387-1.308-4.969-.16-.393-.652-1.908-1.303-1.143-.336.398-.057 3.268.078 4.007.31 1.691.889 3.325 1.598 4.881 1.179 2.596 2.715 5.098 4.514 7.332l.155.197c.021-.016.031-.047.01-.072-.01-.016-.026-.031-.036-.052.062-.005.124-.036.149-.088zm-3.997-6.107c-.776-1.51-1.448-3.092-1.893-4.737a17.32 17.32 0 0 1-.414-1.991c-.072-.527-.14-1.06-.134-1.587.01-1.298.114-1.634.331-1.68.134-.026.321.114.703.889.243.491.414 1.05.553 1.577.202.765.377 1.536.543 2.311.336 1.546.652 3.103 1.101 4.618.636 2.167 1.546 4.281 2.735 6.21-1.317-1.773-2.511-3.624-3.525-5.61z" class="D"/><path d="M87.682 411.225c-.263 1.375-.997 2.632-1.807 3.756-1.634 2.258-3.725 4.134-5.51 6.269l-.779.977c-.026.037-.232.509-.229.469 0-.009.032-.188.09-.491l.002-.003c.287-1.496 1.226-6.011 2.398-8.32.721-1.42 1.558-2.876 2.609-4.082.506-.573 1.695-1.811 2.59-1.541.964.292.775 2.249.636 2.966z" class="B"/><path d="M86.226 410.311c-.957-.595-3.423 3.811-3.754 4.38-1.226 2.11-2.172 4.364-2.813 6.717l-.212.796-.093.491c.016 0 .207-.429.233-.471l.129-.171.646-.801 3.211-4.819c.75-1.174 1.437-2.379 1.991-3.661.124-.289 1.081-2.203.662-2.461zm-.274 1.241c-1.36 3.832-4.137 6.851-6.257 10.254l-.104.165c.031-.098.057-.202.088-.3.579-1.934 1.319-3.806 2.249-5.595.564-1.086 1.2-2.141 1.892-3.154.367-.533.74-1.158 1.179-1.639.197-.217.76-.791.951-.693.276.135.09.708.002.962z" class="D"/><path d="M97.285 379.599c-2.841 6.53-10.301 9.571-13.533 15.867-.006.013-.011.023-.015.033a13.14 13.14 0 0 0-.283.585c-.045.096-.164.09-.215.033-.024-.026-.032-.063-.012-.108a1.82 1.82 0 0 1 .067-.142c.505-3.926 2.116-7.969 3.991-11.431 1.633-3.011 3.87-5.826 6.967-7.411.763-.393 2.252-1.22 3.107-.571.906.685.277 2.341-.074 3.145z" class="B"/><path d="M94.727 379.881c-.362-.269-.91.057-1.22.217-.776.393-1.5.91-2.156 1.474-1.365 1.158-2.477 2.585-3.438 4.09-1.613 2.534-3.103 5.316-4.054 8.216l-.564 1.991-.057.248c.052.057.171.062.217-.031l.269-.569c.005-.016.016-.031.026-.052.564-1.298 1.215-2.544 2.027-3.723 1.246-1.815 2.792-3.413 4.256-5.047.578-.64 5.945-5.899 4.694-6.814zm-.455 1.51c-.864 1.536-2.203 2.787-3.371 4.09l-3.532 3.956a24.86 24.86 0 0 0-2.487 3.397c-.61.998-1.138 2.053-1.556 3.144.295-1.112.677-2.203 1.112-3.268.005-.016.01-.026.021-.036.781-1.898 1.753-3.728 2.756-5.491l.036-.067c.895-1.562 1.898-3.082 3.144-4.39.677-.708 1.417-1.365 2.239-1.903.936-.605 1.753-.998 1.986-.698.154.206-.089.816-.348 1.266z" class="D"/><path d="M87.359 387.254l-2.477 5.579-1.132 2.632c-.01.021-.021.036-.026.052l-.409.951c-1.231 2.865-2.585 5.797-3.335 8.832-.393 1.587-.59 3.242-.683 4.907l-.026.512v.005l-.005.279c-.005.052-.005.103-.005.155l-.005 4.266.388 5.812a.9.9 0 0 0 .016.171l.021.264.016.134.021.248.171 1.867h-.595c-.393-1.872-.61-3.821-.719-5.75-.005-.041-.005-.078-.005-.119l-.031-.564-.031-.693-.047-1.66c-.057-3.185-.021-6.505.683-9.628l.062-.259c.005-.036.016-.072.026-.109.01-.062.026-.124.041-.186l.078-.295.15-.522.047-.155c.817-2.725 2.11-5.367 3.284-7.927l.657-1.401.372-.776.579-1.169c.005-.016.01-.026.021-.036l2.756-5.491c.038-.081.183-.014.142.074z" class="B"/><path d="M246.176 71.237h8.146v352.889h-8.146z" class="G"/><circle transform="matrix(.235 -.972 .972 .235 64.2958 343.3483)" cx="250.277" cy="130.827" r="52.398" class="D"/><path d="M302.675 130.827c.001 6.86-1.334 13.721-3.954 20.066a52.63 52.63 0 0 1-11.336 17.042c-4.85 4.864-10.642 8.8-16.991 11.459-6.343 2.671-13.221 4.061-20.117 4.108-6.896.022-13.802-1.299-20.196-3.918-6.394-2.612-12.279-6.491-17.19-11.371a53.07 53.07 0 0 1-11.495-17.138c-2.669-6.392-4.046-13.316-4.071-20.248.021-6.932 1.401-13.856 4.069-20.249 2.66-6.395 6.595-12.251 11.496-17.139 4.908-4.883 10.796-8.76 17.19-11.373s13.301-3.94 20.198-3.917c6.896.047 13.775 1.437 20.118 4.108 6.349 2.66 12.142 6.595 16.99 11.46 4.845 4.871 8.724 10.694 11.336 17.042 2.619 6.347 3.955 13.208 3.953 20.068zm0 0c-.026-6.86-1.388-13.711-4.029-20.035-2.632-6.328-6.526-12.122-11.375-16.958a52.19 52.19 0 0 0-17.01-11.251c-6.327-2.59-13.159-3.897-19.984-3.875-6.825.047-13.629 1.423-19.904 4.066-6.281 2.631-12.011 6.526-16.81 11.338-4.794 4.819-8.632 10.582-11.215 16.861-2.593 6.277-3.911 13.064-3.914 19.853s1.32 13.576 3.912 19.854a52.08 52.08 0 0 0 11.216 16.862c4.797 4.816 10.529 8.709 16.81 11.34 6.275 2.643 13.081 4.019 19.906 4.066 6.825.022 13.657-1.285 19.984-3.875 6.326-2.584 12.152-6.421 17.01-11.252a52.51 52.51 0 0 0 11.375-16.959c2.641-6.324 4.003-13.175 4.028-20.035z" class="C"/><g class="B"><path d="M250.277 174.612c-24.144 0-43.786-19.642-43.786-43.785s19.642-43.785 43.786-43.785 43.785 19.642 43.785 43.785-19.641 43.785-43.785 43.785zm0-78.682c-19.242 0-34.897 15.655-34.897 34.896s15.655 34.897 34.897 34.897 34.896-15.654 34.896-34.897S269.52 95.93 250.277 95.93z"/><path d="M219.404 106.242l6.285-6.285 55.456 55.456-6.285 6.285zm-50.933 94.655v-31.16h-58.294v-10.503l62.145-80.525h8.052v80.175h15.405v10.854h-15.405v31.16h-11.903zm-45.69-42.014h46.915V97.439l-46.915 61.444zm255.042 8.928v10.853H318.48v-10.853h24.857V92.887c-.935 1.401-2.538 2.919-4.814 4.552s-4.787 3.151-7.528 4.551a56.58 56.58 0 0 1-8.49 3.501c-2.919.936-5.487 1.401-7.703 1.401V95.338c2.684 0 5.629-.757 8.841-2.276s6.241-3.266 9.103-5.251 5.279-3.851 7.265-5.602 3.091-2.916 3.326-3.501h12.254v89.103h22.232z"/></g><path d="M227.057 68.537v2.061h-10.14V55.816h9.952v2.061h-7.62v4.206h6.6v1.937h-6.6v4.518h7.808zm2.415 2.061V55.816h6.434c.666 0 1.28.139 1.843.416a4.72 4.72 0 0 1 1.447 1.093 5.13 5.13 0 0 1 .947 1.541c.229.576.344 1.163.344 1.759a4.92 4.92 0 0 1-.209 1.437c-.139.458-.333.881-.583 1.27s-.555.725-.916 1.01-.756.496-1.187.635l3.477 5.622h-2.645l-3.206-5.143h-3.415v5.143h-2.331zm2.332-7.204h4.081a1.88 1.88 0 0 0 .906-.219 2.15 2.15 0 0 0 .698-.604c.194-.256.347-.552.458-.885s.167-.687.167-1.062-.066-.729-.198-1.062a3.06 3.06 0 0 0-.521-.875c-.215-.25-.465-.448-.749-.593s-.58-.219-.885-.219h-3.956v5.519zm11.43 7.204V55.816h6.434c.666 0 1.28.139 1.843.416a4.73 4.73 0 0 1 1.446 1.093c.402.451.719.965.947 1.541s.344 1.163.344 1.759a4.92 4.92 0 0 1-.207 1.437c-.141.458-.334.881-.584 1.27s-.555.725-.916 1.01-.756.496-1.187.635l3.478 5.622h-2.645l-3.206-5.143h-3.415v5.143h-2.332zm2.332-7.204h4.081a1.88 1.88 0 0 0 .906-.219c.271-.146.503-.347.697-.604s.348-.552.459-.885.166-.687.166-1.062-.066-.729-.197-1.062a3.06 3.06 0 0 0-.521-.875 2.44 2.44 0 0 0-.749-.593c-.284-.145-.58-.219-.885-.219h-3.956v5.519zm17.573 7.308c-1.055 0-2.017-.211-2.884-.635a7.19 7.19 0 0 1-2.238-1.687 7.62 7.62 0 0 1-1.446-2.405 7.77 7.77 0 0 1-.511-2.769 7.56 7.56 0 0 1 .542-2.832c.36-.902.856-1.7 1.488-2.394a7.1 7.1 0 0 1 2.248-1.655c.868-.409 1.815-.614 2.843-.614 1.055 0 2.016.219 2.883.656a7.28 7.28 0 0 1 2.229 1.717 7.9 7.9 0 0 1 1.436 2.405c.34.896.51 1.808.51 2.738 0 .986-.177 1.93-.531 2.832s-.85 1.697-1.488 2.384-1.392 1.235-2.259 1.645-1.81.614-2.822.614zm-4.705-7.495c0 .694.11 1.367.333 2.02a5.48 5.48 0 0 0 .947 1.728 4.61 4.61 0 0 0 1.488 1.197c.583.298 1.235.448 1.957.448.75 0 1.412-.156 1.988-.469a4.69 4.69 0 0 0 1.468-1.239 5.58 5.58 0 0 0 .917-1.728 6.28 6.28 0 0 0 .312-1.957c0-.708-.111-1.385-.333-2.03s-.538-1.214-.947-1.707a4.73 4.73 0 0 0-1.478-1.187c-.576-.298-1.218-.447-1.926-.447-.749 0-1.415.156-1.998.468s-1.076.718-1.479 1.218a5.46 5.46 0 0 0-.927 1.717c-.215.645-.322 1.301-.322 1.968zm14.219 7.391V55.816h6.433a4.11 4.11 0 0 1 1.843.416c.563.278 1.045.643 1.447 1.093a5.13 5.13 0 0 1 .947 1.541c.228.576.344 1.163.344 1.759a4.92 4.92 0 0 1-.208 1.437 5.08 5.08 0 0 1-.583 1.27c-.25.389-.556.725-.916 1.01a3.77 3.77 0 0 1-1.188.635l3.478 5.622h-2.645l-3.206-5.143h-3.415v5.143h-2.331zm2.331-7.204h4.081a1.88 1.88 0 0 0 .906-.219c.271-.146.503-.347.697-.604s.347-.552.458-.885.166-.687.166-1.062-.066-.729-.197-1.062a3.06 3.06 0 0 0-.521-.875 2.47 2.47 0 0 0-.75-.593 1.91 1.91 0 0 0-.885-.219h-3.956v5.519zm-81.085 135.439c.585 0 1.071-.114 1.458-.345s.698-.53.933-.901.402-.794.502-1.27.149-.964.149-1.465v-5.643h1.771v5.643c0 .763-.089 1.481-.266 2.155s-.46 1.265-.846 1.771-.885.906-1.497 1.199-1.345.439-2.202.439c-.888 0-1.637-.154-2.249-.462s-1.105-.721-1.481-1.238-.648-1.11-.815-1.779a8.57 8.57 0 0 1-.251-2.084v-5.643h1.756v5.643c0 .512.049 1.006.149 1.481s.266.899.502 1.27a2.65 2.65 0 0 0 .94.893c.389.224.873.336 1.447.336zm8.903-6.332v7.836h-1.755V189.21h1.379l6.364 8.025v-8.009h1.771v11.113h-1.457l-6.302-7.838zm13.541-3.291h1.536l4.389 11.128h-1.85l-1.176-3.025h-4.294l-1.16 3.025h-1.865l4.42-11.128zm2.555 6.802l-1.787-4.78-1.849 4.78h3.636zm8.902 2.821c.585 0 1.071-.114 1.458-.345s.698-.53.933-.901.402-.794.502-1.27.149-.964.149-1.465v-5.643h1.771v5.643c0 .763-.089 1.481-.266 2.155s-.46 1.265-.846 1.771-.885.906-1.497 1.199-1.345.439-2.202.439c-.888 0-1.637-.154-2.249-.462s-1.105-.721-1.482-1.238-.648-1.11-.815-1.779a8.57 8.57 0 0 1-.251-2.084v-5.643h1.756v5.643c0 .512.049 1.006.149 1.481s.266.899.502 1.27a2.65 2.65 0 0 0 .94.893c.39.224.874.336 1.448.336zm15.313-8.072h-3.699v9.577h-1.771v-9.577h-3.714v-1.551h9.184v1.551zm10.627-1.551v11.128h-1.772v-4.906h-5.611v4.906h-1.755V189.21h1.755v4.655h5.611v-4.655h1.772zm7.131 11.206c-.794 0-1.518-.159-2.171-.478a5.41 5.41 0 0 1-1.685-1.27 5.73 5.73 0 0 1-1.089-1.81c-.256-.68-.384-1.374-.384-2.084a5.68 5.68 0 0 1 .407-2.132 5.91 5.91 0 0 1 1.121-1.802 5.35 5.35 0 0 1 1.692-1.246c.653-.308 1.367-.462 2.139-.462.794 0 1.518.164 2.172.493s1.211.76 1.676 1.293.825 1.136 1.081 1.81a5.74 5.74 0 0 1 .384 2.061 5.78 5.78 0 0 1-.4 2.132c-.267.679-.641 1.277-1.12 1.795a5.51 5.51 0 0 1-1.701 1.238 4.9 4.9 0 0 1-2.122.462zm-3.542-5.642a4.69 4.69 0 0 0 .25 1.52c.168.491.405.925.714 1.301a3.47 3.47 0 0 0 1.12.901c.439.225.93.337 1.473.337.564 0 1.064-.117 1.497-.353a3.54 3.54 0 0 0 1.106-.933c.303-.387.533-.82.689-1.301a4.72 4.72 0 0 0 .235-1.473c0-.533-.084-1.042-.251-1.528a4.07 4.07 0 0 0-.714-1.286c-.307-.371-.679-.668-1.112-.893s-.917-.337-1.45-.337c-.564 0-1.066.118-1.504.352a3.57 3.57 0 0 0-1.112.917c-.304.376-.536.807-.698 1.293s-.243.981-.243 1.483zm10.704 5.564V189.21h4.844a3.09 3.09 0 0 1 1.387.314 3.56 3.56 0 0 1 1.089.823 3.91 3.91 0 0 1 .714 1.16c.172.434.259.875.259 1.324 0 .376-.053.737-.158 1.082a3.85 3.85 0 0 1-.438.956 3.05 3.05 0 0 1-.69.76c-.272.214-.569.374-.894.479l2.618 4.232h-1.991l-2.414-3.871h-2.57v3.871h-1.756zm1.756-5.423h3.072a1.42 1.42 0 0 0 .682-.165c.203-.109.379-.261.525-.455s.261-.415.344-.666.125-.517.125-.799-.05-.548-.149-.799a2.28 2.28 0 0 0-.392-.658c-.162-.188-.35-.337-.564-.447a1.44 1.44 0 0 0-.666-.165h-2.978v4.154zm8.604 5.423V189.21h1.756v11.128h-1.756zm3.495-1.348l6.754-8.229h-6.598v-1.551h8.652v1.348l-6.599 8.229h6.615v1.552h-8.824v-1.349zm18.259-.204v1.552h-7.634V189.21h7.493v1.551h-5.736v3.166h4.968v1.458h-4.968v3.401h5.877zm1.818 1.552V189.21h3.95c.898 0 1.685.147 2.359.439a4.85 4.85 0 0 1 1.692 1.191 4.98 4.98 0 0 1 1.027 1.763 6.63 6.63 0 0 1 .345 2.155c0 .846-.129 1.612-.384 2.296a5.01 5.01 0 0 1-1.089 1.755 4.84 4.84 0 0 1-1.709 1.129c-.669.267-1.417.4-2.241.4h-3.95zm7.586-5.58c0-.585-.081-1.123-.243-1.614a3.53 3.53 0 0 0-.713-1.262c-.313-.35-.695-.624-1.144-.823s-.962-.298-1.536-.298h-2.194v8.025h2.194c.585 0 1.105-.102 1.56-.306a3.21 3.21 0 0 0 1.144-.847c.309-.36.541-.786.697-1.277s.235-1.023.235-1.598z"/><path d="M70.561 288.217l2.292-12.662 168.425 30.484-2.292 12.662z" class="B"/><path d="M82.967 277.391l-11.932 8.274 1.829-10.103zm19.164 3.47l-14.954 10.37-10.238-1.854 14.954-10.369zm19.156 3.468l-14.954 10.37-10.238-1.854 14.963-10.368zm19.165 3.47l-14.954 10.37-10.238-1.854 14.954-10.37zm19.156 3.468l-14.954 10.37-10.238-1.854 14.954-10.37zm19.165 3.47l-14.963 10.368-10.23-1.852 14.955-10.37zm19.156 3.468l-14.954 10.369-10.239-1.853 14.955-10.37zm19.156 3.468l-14.955 10.37-10.229-1.852 14.955-10.37zm19.165 3.47l-14.955 10.369-10.238-1.853 14.955-10.37zm4.335 4.792l-1.59 8.782-8.782-1.59z" class="C"/><path d="M70.173 300.325l170.086-19.17 1.441 12.787-170.086 19.17z" class="B"/><g class="C"><use xlink:href="#D" x="-20.339" y="-43.154"/><path d="M78.322 303.309l1.601-.181a1.97 1.97 0 0 1 .775.049 1.49 1.49 0 0 1 .578.309 1.53 1.53 0 0 1 .378.516c.093.204.153.429.181.672.045.395.019.767-.079 1.116a2.66 2.66 0 0 1-.463.931 2.58 2.58 0 0 1-.784.666c-.31.173-.655.281-1.033.324l-1.601.18.447-4.582zm1.241 3.474c.21-.024.396-.091.558-.2a1.4 1.4 0 0 0 .403-.419c.106-.169.182-.358.226-.568s.054-.426.029-.649c-.033-.294-.131-.524-.292-.689s-.381-.231-.658-.2l-.567.064-.268 2.725.569-.064zm4.557.445c-.274.03-.521.006-.742-.073a1.59 1.59 0 0 1-.577-.356c-.163-.158-.293-.346-.392-.563a2.24 2.24 0 0 1-.189-.69 2.29 2.29 0 0 1 .025-.681c.043-.225.113-.444.21-.656a3.1 3.1 0 0 1 .364-.596 2.81 2.81 0 0 1 .496-.497c.186-.145.386-.263.602-.358a2.32 2.32 0 0 1 .675-.182c.269-.03.514-.004.736.077s.413.2.574.356.29.344.389.563.162.448.189.688a2.37 2.37 0 0 1-.107 1.008c-.109.336-.273.642-.49.92a2.99 2.99 0 0 1-.78.698c-.302.188-.63.302-.983.342zm.099-.944c.218-.025.408-.099.569-.223a1.54 1.54 0 0 0 .393-.45c.102-.175.174-.366.217-.57a1.84 1.84 0 0 0 .032-.592c-.015-.138-.047-.267-.094-.385a1.04 1.04 0 0 0-.188-.308c-.077-.087-.172-.152-.283-.194s-.239-.056-.381-.04a1.15 1.15 0 0 0-.566.22c-.163.123-.295.271-.397.444a1.86 1.86 0 0 0-.217.567 1.87 1.87 0 0 0-.033.592 1.51 1.51 0 0 0 .095.388c.048.12.11.224.188.311a.74.74 0 0 0 .285.197c.109.045.237.06.38.043z"/><use xlink:href="#E" x="-20.339" y="-43.155"/><path d="M94.78 306.027c-.274.03-.521.006-.743-.073a1.58 1.58 0 0 1-.577-.356c-.163-.158-.293-.346-.392-.563s-.162-.446-.189-.69a2.29 2.29 0 0 1 .025-.681c.043-.225.113-.444.21-.656a3.1 3.1 0 0 1 .364-.596 2.81 2.81 0 0 1 .496-.497c.186-.145.386-.263.602-.358s.44-.155.675-.182a1.59 1.59 0 0 1 .736.078c.222.081.413.2.574.356s.29.344.389.563a2.31 2.31 0 0 1 .19.688 2.37 2.37 0 0 1-.107 1.008c-.109.336-.273.642-.49.92a2.99 2.99 0 0 1-.78.698 2.36 2.36 0 0 1-.983.341zm.098-.944a1.12 1.12 0 0 0 .569-.223c.161-.125.291-.275.393-.45s.174-.366.217-.57a1.84 1.84 0 0 0 .032-.592c-.015-.138-.047-.266-.094-.385a1.04 1.04 0 0 0-.188-.308.71.71 0 0 0-.284-.194c-.112-.042-.239-.056-.381-.04-.215.025-.403.098-.566.22s-.295.271-.397.444a1.86 1.86 0 0 0-.217.567 1.87 1.87 0 0 0-.033.592 1.52 1.52 0 0 0 .095.388c.048.12.11.224.188.311a.74.74 0 0 0 .285.197.76.76 0 0 0 .381.043z"/><path d="M98.43 301.963l-1.28.144.087-.93 3.588-.404-.087.93-1.274.144-.361 3.655-1.034.116.361-3.655zm5.66 3.015c-.265.03-.507.003-.725-.081a1.64 1.64 0 0 1-.572-.37c-.163-.162-.294-.354-.394-.575a2.32 2.32 0 0 1-.191-.697 2.26 2.26 0 0 1 .021-.634c.037-.218.101-.43.19-.638a2.8 2.8 0 0 1 .345-.591 2.92 2.92 0 0 1 .486-.502c.183-.149.387-.273.609-.372a2.41 2.41 0 0 1 .719-.193c.403-.045.744.008 1.02.16s.474.368.59.649l-.852.658a.75.75 0 0 0-.144-.281.65.65 0 0 0-.214-.167.72.72 0 0 0-.257-.073c-.09-.009-.178-.009-.262.001a1.13 1.13 0 0 0-.569.22 1.52 1.52 0 0 0-.394.447c-.101.175-.173.363-.214.563s-.052.391-.031.572a1.48 1.48 0 0 0 .099.398 1.08 1.08 0 0 0 .195.316c.08.089.176.156.288.201a.75.75 0 0 0 .369.044c.088-.01.179-.032.271-.066a1.29 1.29 0 0 0 .272-.138 1.25 1.25 0 0 0 .25-.22c.077-.088.141-.192.192-.312l.8.414a1.79 1.79 0 0 1-.335.484 2.42 2.42 0 0 1-.471.385 2.8 2.8 0 0 1-.545.265 2.32 2.32 0 0 1-.546.133zm2.324-.302l.448-4.583 1.923-.217c.177-.021.337-.002.482.054a1.09 1.09 0 0 1 .379.245c.108.107.195.233.263.379a1.46 1.46 0 0 1 .128.458c.018.155.011.312-.021.468a1.86 1.86 0 0 1-.153.455c-.071.146-.16.283-.267.41a1.81 1.81 0 0 1-.362.327l.762 1.6-1.167.132-.655-1.389-.587.066-.14 1.478-1.033.117zm2.125-2.615c.063-.007.124-.034.182-.08s.109-.109.152-.184.074-.16.095-.256.026-.196.014-.302c-.016-.139-.058-.247-.126-.324s-.145-.111-.228-.102l-.826.093-.121 1.253.858-.098zm3.821 1.985c-.274.03-.521.006-.743-.073a1.58 1.58 0 0 1-.577-.356c-.163-.158-.293-.346-.392-.563a2.24 2.24 0 0 1-.189-.69 2.26 2.26 0 0 1 .025-.681c.043-.225.113-.444.21-.656a3.1 3.1 0 0 1 .364-.596 2.81 2.81 0 0 1 .496-.497c.186-.145.386-.263.602-.358a2.32 2.32 0 0 1 .675-.182c.269-.03.514-.004.736.077s.413.2.574.356.29.344.389.563a2.31 2.31 0 0 1 .19.688 2.37 2.37 0 0 1-.107 1.008c-.109.336-.273.642-.49.92a2.99 2.99 0 0 1-.78.698c-.303.188-.631.302-.983.342zm.098-.944c.218-.025.408-.099.569-.223a1.54 1.54 0 0 0 .393-.45c.102-.175.174-.366.217-.57a1.84 1.84 0 0 0 .032-.592c-.016-.138-.047-.266-.095-.385a1.06 1.06 0 0 0-.188-.308c-.078-.087-.173-.152-.284-.194s-.239-.056-.381-.04c-.215.025-.403.098-.566.22s-.295.271-.397.444a1.88 1.88 0 0 0-.217.567 1.87 1.87 0 0 0-.033.592 1.48 1.48 0 0 0 .095.388 1.05 1.05 0 0 0 .188.311.74.74 0 0 0 .285.197c.111.045.239.06.382.043zm4.183.473a3.08 3.08 0 0 1-.943-.04c-.313-.063-.59-.17-.828-.322l.542-.974c.011.02.056.056.136.105s.181.099.304.145a2.38 2.38 0 0 0 .418.113 1.58 1.58 0 0 0 .481.016c.202-.023.34-.075.416-.159s.107-.183.094-.301c-.008-.071-.038-.129-.09-.172a.74.74 0 0 0-.207-.111 2.31 2.31 0 0 0-.297-.082l-.357-.077c-.315-.075-.556-.178-.721-.309s-.262-.319-.291-.567c-.03-.27-.003-.518.083-.744a1.67 1.67 0 0 1 .371-.588c.163-.165.355-.299.577-.404a2.27 2.27 0 0 1 .699-.197 2.03 2.03 0 0 1 .44-.004 2.51 2.51 0 0 1 .403.069 2.24 2.24 0 0 1 .355.12l.3.145-.534.928c-.01-.016-.049-.043-.115-.083s-.15-.078-.253-.119-.216-.071-.342-.095a1.3 1.3 0 0 0-.378-.016c-.177.021-.31.074-.4.163s-.127.203-.111.342c.014.122.089.207.227.252a4.92 4.92 0 0 0 .578.142 3.89 3.89 0 0 1 .457.118c.139.046.261.106.365.18a.87.87 0 0 1 .251.272c.063.107.103.24.121.394.034.299.006.559-.085.78a1.48 1.48 0 0 1-.39.558c-.17.151-.368.27-.592.354a2.86 2.86 0 0 1-.684.168zm3.739-.42a3.08 3.08 0 0 1-.943-.04 2.4 2.4 0 0 1-.828-.322l.542-.974c.011.02.056.056.136.105s.181.099.304.145a2.38 2.38 0 0 0 .418.113 1.61 1.61 0 0 0 .481.017c.202-.023.34-.075.416-.159s.107-.183.094-.301c-.008-.071-.038-.129-.09-.173a.74.74 0 0 0-.207-.111c-.087-.031-.185-.058-.296-.082l-.357-.078c-.315-.075-.556-.178-.721-.309s-.263-.319-.291-.567c-.03-.27-.003-.517.083-.744a1.67 1.67 0 0 1 .371-.588c.163-.165.355-.299.577-.404a2.21 2.21 0 0 1 .699-.197c.151-.016.298-.019.44-.004a2.51 2.51 0 0 1 .403.069 2.24 2.24 0 0 1 .355.12l.301.145-.534.928c-.01-.016-.049-.043-.115-.083s-.151-.078-.253-.119a2 2 0 0 0-.343-.095c-.126-.025-.252-.029-.378-.016-.177.021-.31.074-.4.163s-.127.204-.112.342c.014.122.089.206.227.252a4.89 4.89 0 0 0 .578.143 3.94 3.94 0 0 1 .457.118c.139.046.261.106.365.18a.86.86 0 0 1 .251.272c.063.107.103.24.121.395.034.298.006.559-.085.78a1.49 1.49 0 0 1-.39.558c-.17.151-.368.27-.592.354a2.86 2.86 0 0 1-.684.167zm5.272-3.015a.74.74 0 0 1-.034.32c-.035.103-.088.198-.16.283a.92.92 0 0 1-.251.21c-.096.056-.196.09-.302.101a.49.49 0 0 1-.406-.123c-.111-.1-.176-.23-.194-.39a.71.71 0 0 1 .037-.32c.037-.104.091-.197.16-.28s.151-.151.245-.206a.73.73 0 0 1 .298-.1c.164-.019.302.021.413.119s.177.226.194.386zm4.022-2.617l1.601-.181a1.97 1.97 0 0 1 .775.049 1.49 1.49 0 0 1 .578.309c.158.139.284.312.377.516s.153.429.181.672c.045.395.019.767-.078 1.116a2.63 2.63 0 0 1-.463.93 2.58 2.58 0 0 1-.784.666c-.311.173-.655.281-1.033.324l-1.601.18.447-4.581zm1.241 3.474c.21-.024.396-.091.558-.2a1.4 1.4 0 0 0 .403-.419c.106-.169.182-.358.226-.568s.054-.426.029-.649c-.034-.294-.131-.524-.292-.689s-.381-.231-.658-.2l-.568.064-.268 2.725.57-.064zm4.586.441c-.274.03-.521.006-.743-.073a1.58 1.58 0 0 1-.577-.356c-.163-.158-.293-.346-.392-.563a2.27 2.27 0 0 1-.19-.69 2.26 2.26 0 0 1 .025-.681c.043-.225.113-.444.21-.656a3.1 3.1 0 0 1 .364-.596 2.81 2.81 0 0 1 .496-.497c.186-.145.386-.263.602-.358a2.32 2.32 0 0 1 .675-.182c.269-.03.514-.004.736.077s.413.2.574.356.29.344.389.563.162.448.189.688a2.37 2.37 0 0 1-.107 1.008c-.109.336-.273.642-.49.92a2.99 2.99 0 0 1-.78.698c-.301.189-.629.302-.981.342zm.098-.943c.218-.025.408-.099.568-.223s.291-.275.393-.45.174-.366.217-.57a1.84 1.84 0 0 0 .032-.592 1.52 1.52 0 0 0-.094-.385 1.06 1.06 0 0 0-.188-.308c-.078-.087-.172-.152-.283-.194a.81.81 0 0 0-.381-.04c-.215.025-.403.098-.566.22s-.295.271-.397.444a1.86 1.86 0 0 0-.217.567 1.87 1.87 0 0 0-.033.592 1.51 1.51 0 0 0 .095.388 1.05 1.05 0 0 0 .188.311.74.74 0 0 0 .285.197c.11.045.238.059.381.043z"/><use xlink:href="#G" x="-71.715" y="-37.364"/><path d="M146.156 300.238c-.274.03-.521.006-.743-.073a1.58 1.58 0 0 1-.577-.356c-.163-.158-.293-.346-.392-.563s-.162-.446-.19-.69a2.29 2.29 0 0 1 .025-.681c.043-.225.113-.444.21-.656a3.1 3.1 0 0 1 .364-.596 2.81 2.81 0 0 1 .496-.497c.186-.145.386-.263.602-.358s.44-.155.675-.182a1.59 1.59 0 0 1 1.31.434c.16.157.29.344.389.563a2.31 2.31 0 0 1 .19.688 2.37 2.37 0 0 1-.107 1.008c-.109.336-.273.642-.49.92a2.99 2.99 0 0 1-.78.698c-.301.188-.629.301-.982.341zm.098-.944c.218-.025.408-.099.569-.223s.291-.275.393-.45.173-.366.217-.57a1.84 1.84 0 0 0 .032-.592c-.016-.138-.047-.267-.094-.385a1.04 1.04 0 0 0-.188-.308.72.72 0 0 0-.283-.194c-.111-.042-.239-.056-.381-.04-.215.025-.403.098-.566.22s-.295.271-.397.444a1.86 1.86 0 0 0-.217.567 1.87 1.87 0 0 0-.033.592 1.52 1.52 0 0 0 .095.388c.048.12.11.224.188.311a.74.74 0 0 0 .285.197c.11.046.237.06.38.043z"/><path d="M149.824 296.172l-1.28.144.087-.929 3.588-.404-.087.93-1.274.143-.361 3.655-1.034.116.361-3.655zm5.645 3.016a1.53 1.53 0 0 1-.725-.08c-.218-.085-.408-.208-.572-.37s-.294-.354-.393-.575a2.32 2.32 0 0 1-.191-.697 2.26 2.26 0 0 1 .021-.634c.037-.218.101-.43.19-.638a2.8 2.8 0 0 1 .345-.591 2.92 2.92 0 0 1 .486-.502c.183-.149.387-.273.609-.372a2.41 2.41 0 0 1 .719-.193c.403-.046.744.008 1.02.16s.473.368.59.649l-.852.658a.75.75 0 0 0-.144-.281.65.65 0 0 0-.214-.167.72.72 0 0 0-.257-.073c-.09-.009-.178-.009-.262.001a1.13 1.13 0 0 0-.569.22 1.52 1.52 0 0 0-.394.447c-.101.174-.173.363-.214.563s-.052.391-.031.572a1.49 1.49 0 0 0 .099.398 1.08 1.08 0 0 0 .195.316c.08.089.176.156.288.201a.75.75 0 0 0 .369.044c.088-.01.179-.032.271-.066a1.29 1.29 0 0 0 .272-.138 1.25 1.25 0 0 0 .25-.22 1.13 1.13 0 0 0 .191-.312l.8.414a1.79 1.79 0 0 1-.335.484 2.42 2.42 0 0 1-.471.385 2.8 2.8 0 0 1-.545.265 2.37 2.37 0 0 1-.546.132zm2.304-.298l.448-4.583 1.923-.217c.177-.021.337-.002.482.054a1.09 1.09 0 0 1 .379.245c.108.107.195.233.263.379s.111.298.128.459c.018.155.011.312-.021.468a1.86 1.86 0 0 1-.153.455c-.071.146-.16.283-.267.41a1.81 1.81 0 0 1-.362.327l.762 1.601-1.167.131-.655-1.389-.587.066-.14 1.478-1.033.116zm2.125-2.615a.35.35 0 0 0 .182-.081.62.62 0 0 0 .152-.184c.043-.074.074-.16.096-.256s.026-.196.014-.301a.56.56 0 0 0-.126-.324c-.068-.078-.145-.112-.228-.102l-.826.093-.121 1.253.857-.098zm3.865 1.979c-.274.03-.521.006-.742-.073a1.59 1.59 0 0 1-.577-.356c-.163-.158-.293-.346-.392-.563a2.24 2.24 0 0 1-.189-.69 2.29 2.29 0 0 1 .025-.681c.043-.225.113-.444.21-.656a3.1 3.1 0 0 1 .364-.596 2.81 2.81 0 0 1 .496-.497c.186-.145.386-.263.602-.358a2.32 2.32 0 0 1 .675-.182c.269-.03.514-.004.736.077s.413.2.574.356.29.344.389.563.162.448.189.688a2.37 2.37 0 0 1-.107 1.008c-.109.336-.272.642-.49.92a2.99 2.99 0 0 1-.78.698c-.302.188-.63.302-.983.342zm.098-.944a1.12 1.12 0 0 0 .569-.223c.161-.125.291-.275.393-.45s.174-.366.217-.57a1.84 1.84 0 0 0 .032-.592c-.015-.138-.047-.266-.094-.385a1.02 1.02 0 0 0-.188-.307.71.71 0 0 0-.284-.195c-.111-.042-.239-.056-.381-.04a1.15 1.15 0 0 0-.566.22c-.163.123-.295.271-.397.444a1.88 1.88 0 0 0-.217.567 1.87 1.87 0 0 0-.033.592c.016.138.048.267.095.388s.11.224.188.311a.74.74 0 0 0 .285.197.75.75 0 0 0 .381.043zm4.161.476a3.08 3.08 0 0 1-.943-.04c-.313-.063-.59-.17-.828-.322l.542-.974c.011.02.056.056.136.105s.181.099.304.145.262.084.418.112a1.61 1.61 0 0 0 .481.017c.202-.023.34-.075.416-.159s.107-.183.094-.301c-.008-.071-.038-.129-.09-.172a.74.74 0 0 0-.207-.111 2.34 2.34 0 0 0-.296-.082l-.357-.078c-.315-.075-.556-.178-.721-.309s-.262-.319-.291-.567c-.03-.27-.003-.517.083-.744a1.67 1.67 0 0 1 .371-.588c.163-.165.355-.299.577-.404a2.27 2.27 0 0 1 .699-.197c.152-.016.299-.019.441-.004a2.51 2.51 0 0 1 .403.069 2.24 2.24 0 0 1 .355.12l.301.145-.534.928c-.01-.016-.049-.043-.115-.083s-.15-.079-.253-.119a1.95 1.95 0 0 0-.342-.095c-.126-.024-.253-.029-.378-.015-.177.021-.31.074-.4.163s-.127.203-.112.342c.014.122.089.207.227.252a4.68 4.68 0 0 0 .578.142 3.89 3.89 0 0 1 .457.118c.139.047.261.106.365.18a.87.87 0 0 1 .251.272c.063.107.103.24.121.395.034.299.006.559-.085.78a1.48 1.48 0 0 1-.39.558c-.17.151-.368.27-.592.354a2.77 2.77 0 0 1-.686.167zm3.753-.423a3.08 3.08 0 0 1-.943-.04c-.313-.063-.59-.17-.828-.322l.542-.974c.011.02.056.056.136.105s.181.099.304.145a2.47 2.47 0 0 0 .418.113 1.61 1.61 0 0 0 .481.017c.202-.023.34-.075.416-.159s.107-.183.094-.301c-.008-.071-.038-.129-.09-.172a.69.69 0 0 0-.207-.111 2.34 2.34 0 0 0-.296-.082l-.357-.078c-.315-.075-.556-.178-.721-.309s-.262-.319-.291-.567c-.03-.27-.003-.517.083-.744a1.67 1.67 0 0 1 .371-.588c.163-.165.355-.299.577-.404a2.28 2.28 0 0 1 .699-.197c.151-.017.299-.019.441-.004a2.51 2.51 0 0 1 .403.069c.128.032.246.072.355.12l.301.145-.534.928c-.01-.016-.049-.043-.115-.083s-.15-.079-.253-.119a1.95 1.95 0 0 0-.342-.095 1.3 1.3 0 0 0-.378-.016c-.177.021-.31.074-.4.163s-.127.203-.111.342c.014.122.089.207.227.252a4.65 4.65 0 0 0 .578.143 3.89 3.89 0 0 1 .457.118c.139.047.261.106.365.18a.87.87 0 0 1 .251.272c.063.107.103.24.121.395.034.298.006.559-.085.78a1.48 1.48 0 0 1-.39.558c-.17.151-.368.27-.592.354a2.87 2.87 0 0 1-.687.166zm5.27-3.014a.74.74 0 0 1-.034.32c-.035.103-.088.198-.16.283a.92.92 0 0 1-.251.21c-.096.056-.196.09-.302.101a.49.49 0 0 1-.406-.123.59.59 0 0 1-.194-.39.71.71 0 0 1 .037-.32c.037-.104.091-.197.16-.28s.151-.151.245-.206a.73.73 0 0 1 .298-.1c.164-.019.302.021.413.119a.58.58 0 0 1 .194.386zm4.024-2.617l1.601-.181a1.97 1.97 0 0 1 .775.049 1.49 1.49 0 0 1 .578.309 1.53 1.53 0 0 1 .378.516c.093.204.153.429.181.672.045.395.018.767-.079 1.116a2.63 2.63 0 0 1-.463.93 2.58 2.58 0 0 1-.784.666c-.31.174-.655.281-1.033.324l-1.601.18.447-4.581zm1.241 3.475c.21-.024.396-.091.558-.2a1.4 1.4 0 0 0 .403-.419c.106-.169.182-.358.226-.568s.054-.426.029-.649c-.034-.294-.131-.524-.292-.689s-.381-.231-.658-.2l-.568.064-.267 2.725.569-.064zm4.545.446c-.274.03-.521.006-.743-.073a1.58 1.58 0 0 1-.577-.356c-.163-.158-.293-.346-.392-.563a2.24 2.24 0 0 1-.189-.69 2.29 2.29 0 0 1 .025-.681c.043-.225.113-.444.21-.656a3.1 3.1 0 0 1 .364-.596 2.81 2.81 0 0 1 .496-.497c.186-.145.386-.263.602-.358a2.32 2.32 0 0 1 .675-.182 1.59 1.59 0 0 1 .736.078c.222.081.413.2.574.356s.29.344.389.563.162.448.189.688a2.37 2.37 0 0 1-.107 1.008c-.109.336-.273.642-.49.92a2.99 2.99 0 0 1-.78.698 2.34 2.34 0 0 1-.982.341zm.099-.944c.218-.025.408-.099.569-.223a1.54 1.54 0 0 0 .393-.45c.102-.175.174-.366.217-.57a1.84 1.84 0 0 0 .032-.592 1.44 1.44 0 0 0-.095-.385 1.04 1.04 0 0 0-.188-.308c-.077-.087-.173-.152-.283-.194a.81.81 0 0 0-.381-.04 1.15 1.15 0 0 0-.566.22c-.163.123-.295.271-.397.444a1.88 1.88 0 0 0-.217.567 1.87 1.87 0 0 0-.033.592 1.52 1.52 0 0 0 .095.388c.048.12.11.224.188.311a.74.74 0 0 0 .285.197c.11.045.238.059.381.043z"/><use xlink:href="#F" x="31.036" y="-48.944"/><path d="M197.542 294.448c-.274.03-.521.006-.743-.073a1.59 1.59 0 0 1-.577-.356c-.163-.158-.293-.346-.392-.563s-.162-.446-.189-.69a2.29 2.29 0 0 1 .025-.681c.043-.225.113-.444.21-.656a3.1 3.1 0 0 1 .364-.596 2.81 2.81 0 0 1 .496-.497c.186-.145.386-.263.602-.358s.44-.155.675-.182c.269-.03.514-.004.736.077s.413.2.574.356.29.344.389.563.162.448.189.688a2.37 2.37 0 0 1-.107 1.008c-.109.336-.273.642-.49.92a2.99 2.99 0 0 1-.78.698 2.35 2.35 0 0 1-.982.342zm.098-.944c.218-.025.408-.099.569-.223s.291-.275.393-.45.174-.366.217-.57a1.84 1.84 0 0 0 .032-.592c-.016-.138-.047-.267-.094-.385a1.04 1.04 0 0 0-.188-.308c-.077-.087-.173-.152-.283-.194s-.239-.056-.381-.04a1.15 1.15 0 0 0-.566.22c-.163.123-.295.271-.397.444a1.86 1.86 0 0 0-.217.567 1.87 1.87 0 0 0-.033.592 1.48 1.48 0 0 0 .095.388c.048.12.11.224.188.311a.74.74 0 0 0 .285.197c.109.045.237.059.38.043z"/><path d="M201.192 290.385l-1.28.144.087-.93 3.588-.404-.087.93-1.274.144-.36 3.655-1.034.116.36-3.655zm5.665 3.012a1.53 1.53 0 0 1-.725-.08c-.218-.085-.409-.208-.572-.37s-.294-.354-.393-.575a2.32 2.32 0 0 1-.191-.697 2.26 2.26 0 0 1 .021-.634c.037-.218.101-.43.19-.638a2.76 2.76 0 0 1 .346-.591c.14-.186.303-.353.486-.502s.387-.273.609-.372a2.41 2.41 0 0 1 .719-.193c.403-.046.744.008 1.02.16a1.29 1.29 0 0 1 .59.648l-.852.658a.75.75 0 0 0-.144-.281.65.65 0 0 0-.214-.167.72.72 0 0 0-.257-.073c-.09-.009-.178-.009-.262.001-.219.024-.408.098-.569.22a1.5 1.5 0 0 0-.393.447c-.101.174-.173.363-.214.563a1.81 1.81 0 0 0-.031.572 1.48 1.48 0 0 0 .099.398 1.06 1.06 0 0 0 .195.316c.08.089.176.156.288.201a.75.75 0 0 0 .369.044c.088-.01.179-.032.271-.066a1.34 1.34 0 0 0 .272-.138 1.25 1.25 0 0 0 .25-.22c.077-.088.141-.192.192-.312l.8.414a1.79 1.79 0 0 1-.335.484 2.42 2.42 0 0 1-.471.385c-.173.108-.354.197-.545.266a2.39 2.39 0 0 1-.549.132zm2.314-.299l.448-4.583 1.923-.217c.177-.021.337-.002.482.054a1.09 1.09 0 0 1 .379.245c.108.107.195.233.263.379s.111.298.128.458c.018.155.011.312-.021.468a1.86 1.86 0 0 1-.153.455c-.071.146-.16.283-.267.41a1.81 1.81 0 0 1-.362.327l.762 1.601-1.166.131-.655-1.389-.587.066-.14 1.478-1.034.117zm2.126-2.615a.35.35 0 0 0 .182-.081.62.62 0 0 0 .152-.184c.043-.074.074-.16.095-.256s.026-.196.014-.301a.57.57 0 0 0-.126-.324c-.068-.077-.145-.112-.228-.102l-.826.093-.121 1.253.858-.098zm3.826 1.984c-.274.03-.521.006-.743-.073a1.58 1.58 0 0 1-.577-.356c-.163-.158-.293-.346-.392-.563a2.24 2.24 0 0 1-.189-.69 2.29 2.29 0 0 1 .025-.681c.043-.225.113-.444.21-.656a3.1 3.1 0 0 1 .364-.596 2.81 2.81 0 0 1 .496-.497c.186-.145.386-.263.602-.358a2.32 2.32 0 0 1 .675-.182c.269-.03.514-.004.736.077s.413.2.574.356.29.344.389.563a2.31 2.31 0 0 1 .19.688 2.37 2.37 0 0 1-.107 1.008c-.109.336-.273.642-.49.92a2.99 2.99 0 0 1-.78.698 2.35 2.35 0 0 1-.983.342zm.098-.944c.218-.025.408-.099.568-.223s.291-.275.393-.45.174-.366.217-.57a1.84 1.84 0 0 0 .032-.592c-.015-.138-.047-.266-.094-.385a1.04 1.04 0 0 0-.188-.308c-.077-.087-.173-.152-.283-.194a.81.81 0 0 0-.381-.04c-.215.025-.403.098-.566.22s-.295.271-.397.444a1.87 1.87 0 0 0-.25 1.159 1.51 1.51 0 0 0 .095.388c.048.12.11.224.188.311a.74.74 0 0 0 .285.197c.111.045.238.059.381.043zm4.176.474a3.08 3.08 0 0 1-.943-.04 2.4 2.4 0 0 1-.828-.322l.542-.974c.011.02.056.056.136.105s.181.099.304.145a2.47 2.47 0 0 0 .418.113 1.61 1.61 0 0 0 .481.017c.202-.023.34-.075.416-.159s.107-.183.094-.301c-.008-.071-.038-.129-.09-.172a.69.69 0 0 0-.207-.111 2.34 2.34 0 0 0-.296-.082l-.357-.078c-.315-.075-.556-.178-.721-.309s-.262-.319-.291-.567c-.03-.27-.003-.517.083-.744a1.67 1.67 0 0 1 .371-.588c.163-.165.355-.299.577-.404a2.27 2.27 0 0 1 .699-.197c.152-.017.298-.019.441-.004a2.51 2.51 0 0 1 .403.069c.128.032.246.072.355.12l.301.145-.534.928c-.01-.015-.049-.043-.115-.083s-.15-.078-.253-.119-.216-.071-.342-.095a1.3 1.3 0 0 0-.378-.016c-.177.021-.31.074-.4.163s-.127.203-.112.342c.014.122.089.207.227.252s.329.094.578.143a3.89 3.89 0 0 1 .457.118c.139.047.261.106.365.18a.87.87 0 0 1 .251.272c.063.107.103.24.121.395.034.298.006.559-.084.78s-.221.407-.391.558-.368.27-.592.354a2.86 2.86 0 0 1-.686.166zm3.736-.42a3.08 3.08 0 0 1-.943-.04c-.313-.063-.59-.17-.828-.322l.542-.974c.011.02.056.056.136.105s.181.099.304.145a2.38 2.38 0 0 0 .418.113 1.61 1.61 0 0 0 .481.017c.202-.023.34-.075.416-.159s.107-.183.094-.301c-.008-.071-.038-.129-.09-.172a.74.74 0 0 0-.207-.111 2.34 2.34 0 0 0-.296-.082l-.357-.077c-.315-.075-.556-.178-.721-.309s-.262-.319-.291-.567c-.03-.27-.003-.518.083-.744a1.67 1.67 0 0 1 .371-.588c.163-.165.355-.299.577-.404a2.27 2.27 0 0 1 .699-.197c.151-.017.298-.019.44-.004a2.51 2.51 0 0 1 .403.069c.128.032.246.072.355.12l.3.145-.534.928c-.01-.016-.049-.043-.115-.083s-.15-.078-.253-.119-.216-.071-.342-.095a1.3 1.3 0 0 0-.378-.016c-.177.021-.31.074-.4.163s-.127.203-.111.342c.014.122.089.206.227.252a4.65 4.65 0 0 0 .578.143 3.89 3.89 0 0 1 .457.118 1.38 1.38 0 0 1 .365.18.86.86 0 0 1 .251.272c.063.107.103.24.121.395.034.298.006.559-.085.78a1.48 1.48 0 0 1-.39.558 1.89 1.89 0 0 1-.592.354c-.226.083-.453.139-.685.165zm5.281-3.015a.74.74 0 0 1-.034.32c-.035.103-.088.198-.16.283a.92.92 0 0 1-.251.21c-.096.056-.196.09-.301.101a.49.49 0 0 1-.406-.123.59.59 0 0 1-.194-.39c-.012-.109 0-.216.037-.32s.091-.197.16-.28a.94.94 0 0 1 .245-.207.73.73 0 0 1 .298-.1c.164-.019.302.021.413.119s.175.227.193.387zm4.024-2.618l1.602-.181a1.97 1.97 0 0 1 .775.049 1.49 1.49 0 0 1 .578.309 1.53 1.53 0 0 1 .378.516c.093.204.153.429.181.672.044.396.018.767-.079 1.116a2.63 2.63 0 0 1-.463.93c-.212.271-.473.493-.784.666s-.655.281-1.033.324l-1.601.18.446-4.581zm1.24 3.474c.21-.024.396-.091.558-.2a1.4 1.4 0 0 0 .403-.419c.106-.169.182-.358.226-.568s.054-.425.029-.649c-.033-.294-.131-.524-.292-.689s-.381-.231-.658-.2l-.568.064-.268 2.725.57-.064zm4.566.443c-.274.031-.521.007-.742-.072a1.58 1.58 0 0 1-.577-.356c-.163-.158-.293-.346-.392-.563a2.27 2.27 0 0 1-.19-.69 2.29 2.29 0 0 1 .026-.681c.042-.225.113-.444.21-.656a3.1 3.1 0 0 1 .364-.596 2.81 2.81 0 0 1 .496-.497c.186-.145.386-.263.601-.358a2.34 2.34 0 0 1 .676-.182c.269-.03.514-.004.736.076s.413.2.573.357.29.344.389.563.162.448.189.688a2.37 2.37 0 0 1-.106 1.008c-.109.336-.273.642-.49.92a2.99 2.99 0 0 1-.78.698 2.32 2.32 0 0 1-.983.341zm.098-.943a1.11 1.11 0 0 0 .569-.224 1.55 1.55 0 0 0 .393-.449c.102-.176.173-.366.216-.57a1.87 1.87 0 0 0 .033-.592 1.52 1.52 0 0 0-.094-.385 1.06 1.06 0 0 0-.188-.308c-.078-.087-.172-.152-.283-.194a.79.79 0 0 0-.382-.04 1.14 1.14 0 0 0-.566.22c-.163.123-.295.271-.397.444a1.88 1.88 0 0 0-.217.567 1.87 1.87 0 0 0-.033.592 1.52 1.52 0 0 0 .095.388 1.05 1.05 0 0 0 .188.311c.078.087.173.153.284.197s.239.06.382.043z"/></g><g fill="#a6a6a6"><path d="M67.498 272.911h6.23v146.455h-6.23z"/><path d="M95.921 424.087H45.306l22.187-4.717h6.24zm141.06-151.176h6.23v146.455h-6.23z"/><path d="M265.403 424.087h-50.615l22.188-4.717h6.24z"/></g><path d="M45.166 424.08l51.208-.243 51.209-.088L250 423.581l102.417.167 51.209.088 51.208.244-51.208.245-51.209.088-102.417.166-102.417-.167-51.209-.089z" class="C"/><circle transform="matrix(.7071 -.7071 .7071 .7071 -67.1478 327.9571)" cx="362.305" cy="245.033" r="105.231" class="B F"/><use xlink:href="#H" class="E"/><use xlink:href="#H" class="B"/><path d="M417.99 244.992c-.383 2.765-1.142 5.057-2.453 6.288-6.181 5.807-20.319-18.428-31.148-43.073-2.168-4.933-2.872-10.026-1.891-13.032l35.492 49.817z" opacity=".1"/><path d="M389.243 196.191l1.804-1.335c1.009.764 2.099 1.742 3.291 2.945l.52.53-2.721 2.058c-2.496 1.722-6.001 2.721-9.323 3.301-.469-1.793-.723-3.515-.744-5.054 2.75-.478 5.461-1.253 7.173-2.445zm-4.942 11.82c.02.061.051.132.081.194l2.007 4.493c3.852-1.253 7.887-2.965 10.597-5.166a56.41 56.41 0 0 0 3.648-3.261l-3.536-3.668c-1.05 1.019-2.16 2.028-3.332 2.975-2.21 1.794-5.848 3.292-9.465 4.433zm4.626 10.087l2.252 4.585c4.331-2.17 9.007-5.034 12.839-8.63 1.029-.968 2.017-1.987 2.935-3.016l-3.474-3.76c-.917 1.049-1.906 2.089-2.945 3.067-3.395 3.189-7.644 5.767-11.607 7.754zm4.32 8.61l2.425 4.493c5.146-3.016 10.862-6.796 15.101-10.78a47.18 47.18 0 0 0 2.364-2.395l-3.383-3.872c-.774.876-1.6 1.732-2.466 2.547-3.872 3.629-9.191 7.154-14.041 10.007zm5.125 9.191c.917 1.529 1.824 2.975 2.721 4.331 5.237-3.424 11.198-7.927 16.293-13.318-.367-2.649-.713-4.422-.785-4.534-.132-.214-.428-.632-.887-1.213-.591.673-1.202 1.345-1.814 2.007-4.768 5.116-10.484 9.436-15.528 12.727zm5.869 8.835c1.151 1.498 2.252 2.812 3.322 3.892 3.424-2.924 7.173-6.256 10.77-9.71-.01-2.293-.143-4.636-.346-6.807-4.382 4.442-9.323 8.865-13.746 12.625zm8.437 7.336c1.07.224 2.038-.01 2.853-.785.968-.907 1.63-2.374 2.069-4.188-1.651 1.722-3.312 3.393-4.922 4.973z" class="F H"/><path d="M414.431 251.355c8.772-2.007 15.63-23.914 20.158-44.401.78-3.529-24.501-5.228-25.29-1.445-4.505 21.585-5.524 48.283 5.132 45.846z" class="E"/><path d="M407.911 209.995s11.581 2.353 25.172 6.016c0 0-2.653 25.069-16.337 35.201-4.294 3.179-10.154-1.112-10.905-12.336-.778-11.616 2.07-28.881 2.07-28.881z" class="B"/><path d="M410.396 241.31c3.434 1.039 7.194 3.525 10.444 6.104-1.141 1.304-2.384 2.496-3.75 3.536-2.741-2.119-5.696-4.015-8.182-4.769l-1.763-.499c-.55-1.559-.968-3.403-1.192-5.523 1.457.325 2.955.702 4.443 1.151zm-4.667-5.339c1.641.183 3.352.448 5.013.825 4.85 1.111 9.66 3.393 13.684 5.737.886-1.457 1.691-2.965 2.425-4.494-4.351-2.507-9.588-4.972-14.968-6.205-2.048-.469-4.137-.785-6.103-.988-.061 1.742-.092 3.464-.051 5.125zm.275-9.283c2.007.173 4.167.479 6.256.958 5.247 1.202 11.259 3.709 16.395 6.175.632-1.651 1.182-3.291 1.651-4.86-5.278-2.517-11.402-5.023-16.914-6.287-2.354-.54-4.748-.866-6.969-1.06l-.419 5.074zm.846-8.956c2.242.173 4.687.428 7.081.805 6.297 1.009 12.513 3.057 17.77 5.186.469-2.028.795-3.78 1.009-5.105-5.339-2.099-11.575-4.086-17.974-5.105-2.466-.397-4.952-.662-7.234-.846l-.652 5.065z" class="F H"/><path d="M406.527 240.083l-.257-6.848c-.058-4.694.179-9.387.548-14.065.211-2.68.556-5.34.889-8.007.005-.041-.053-.058-.063-.016-1.121 4.633-1.772 9.446-2.031 14.203-.202 3.703-.239 7.469.03 11.189-.023-.001-.048.003-.055.034-.398 1.858-.475 3.765-.274 5.653.009.082.135.082.13-.003a28.4 28.4 0 0 1 .225-5.35c.071.919.156 1.835.267 2.746.304 2.471.75 4.888 1.782 7.171.03.067.143.016.118-.053-.784-2.132-1.139-4.397-1.309-6.654z" class="C"/><use xlink:href="#I" class="B"/><g opacity=".1"><use xlink:href="#I"/></g><path d="M432.004 234.075c-2.178 1.162-7.048.997-9.046 2.401-1.927 1.352-.791 7.564-2.692 8.307-3.783 1.47-10.237-3.99-12.171-4.821-1.817-.768-2.951-2.213-3.62-4.058-.005-.028-.013-.038-.013-.038l.001-.009c-.687-3.155 1.863-5.327 3.684-5.514 1.83-.185 4.028.134 4.314-.474s-4.319-5.025-1.331-8.035c2.989-3.019 6.684-3.08 8.227-1.955 2.394 1.746 1.443 6.251 4.495 6.9 3.053.641 5.919-1.539 5.991-4.827.073-2.991 4.733-3.982 7.116-.464.215.32.416.673.583 1.076l.041.087c.165.342-.578 8.76-5.579 11.424z" opacity=".4"/><path d="M423.853 226.782c-3.051-.65-2.101-5.154-4.497-6.898-2.526-5.017-7.655-14.396-6.663-15.081.879-.593 13.487 12.159 17.172 16.885-.013.088-.026.176-.021.267-.072 3.288-2.938 5.468-5.991 4.827zm-11.39 3.088c-.234.498-1.749.377-3.296.414l-.75-3.651c-.241-1.198-.643-6.997-.335-9.684.319-2.694.883-3.91 1.317-.692l1.181 6.273c-1.779 2.951 2.145 6.775 1.883 7.34zM298.27 209.511c4.682 3.042 14.45 5.71 17.457 6.739 4.052 1.38 17.023 1.726 18.137.604.633-.628-12.7-2.34-15.17-3.054-2.305-.671-10.976-6.418-14.189-9.318l-1.571 1.208a130.52 130.52 0 0 0-4.664 3.821zm42.466 52.611c-3.244.561-24.573 13.561-29.602 14.23s-18.458 3.017-14.182 4.537 14.25 5.763 21.552 4.325 16.268-15.724 18.789-17.955 7.03-5.757 3.443-5.137zm-17.763-.512c-5.366-.197-17.294 9.022-14.415 9.839s12.299-4.566 15.918-6.261 6.249-3.294-1.503-3.578z" opacity=".1"/><path d="M404.79 216.67c-.553-4.814-11.541-4.787-12.591-10.841-.805-4.646 4.383-4.537 8.401-1.07 0 0 3.875 5.396 4.284 6.623.362 1.083-.094 5.288-.094 5.288zm29.88-12.227c-1.385-2.153-3.581-1.495-3.581-1.495s1.27-2.87-.479-4.804c-.9-.995-3.281-.431-3.281-.431s.918-2.344-.744-3.968c-1.324-1.293-3.511-.535-3.511-.535s-.168-2.659-1.939-3.544c-3.592-1.795-15.832 8.337-13.991 14.411.858 2.831 3.714.194 3.714.194s-3.19 4.784-1.166 7.361 5.527-1.074 5.527-1.074-3.051 4.663-.682 7.123c2.466 2.561 5.344-1.691 5.344-1.691s-1.194 4.098 1.05 5.566c3.706 2.424 5.467-5.94 8.685-7.528l5.156 3.207c0-.001 1.433-10.409-.102-12.792z" class="J"/><path d="M422.711 193.28c.043-.031.009-.097-.04-.073-4.838 2.352-9.433 6.418-11.987 11.189-.084.156.134.361.259.206 3.573-4.414 7.095-8.047 11.768-11.322zm4.656 4.358c.051-.035-.007-.12-.067-.091-4.972 2.45-10.021 7.173-12.317 13.019-.079.2.051.459.16.235 1.821-3.77 8.003-10.236 12.224-13.163zm-7.52 18.831c2.418-5.52 6.363-9.71 11.033-13.431.061-.048-.014-.13-.076-.103-2.78 1.198-5.51 3.88-7.458 6.146-1.865 2.171-3.112 4.505-3.693 7.303-.022.108.142.203.194.085z" class="C"/><path d="M427.564 442.841c-.828.073-15.484 2.083-16.843 1.065-13.766-10.313-34.353-38.767-34.85-40.247-.328-.925 12.192-13.222 12.257-13.306.335-.442 2.306-2.615 5.017-5.567l9.971-24.419 30.608 21.629-13.324 26.628-3.297 4.65-.406.478s1.825 8.411 5.168 15.956c.464 1.046 5.611 5.283 6.007 6.15 1.314 2.875.84 6.882-.308 6.983z" class="E"/><path d="M427.569 442.838c-.838.074-15.488 2.087-16.85 1.064-13.765-10.308-34.352-38.759-34.85-40.246-.33-.925 12.195-13.216 12.257-13.301.312-.405 2.024-2.305 4.436-4.931l28.143 24.08-3.604 3.775-.406.473s1.833 8.415 5.169 15.963c.469 1.042 5.612 5.281 6.006 6.15 1.316 2.866.843 6.872-.301 6.973z" class="G"/><path d="M428.157 443.015c-.447.364-16.628 1.914-17.783 1.041-11.03-8.331-35.051-38.837-35.436-40.662-.206-.953 6.454-8.135 13.967-14.352l28.008 24.739s2.513 10.451 5.068 15.945c.581 1.249 5.608 5.094 6.114 5.999 1.551 2.775.704 6.767.062 7.29z" class="B"/><g class="C"><path d="M426.189 434.651c-2.455-1.332-5.452-1.424-7.508-.699-1.975.697-4.031 2.033-4.973 4.124-.027.06.088.119.128.063 2.519-3.578 7.958-5.128 12.292-3.363.087.035.145-.079.061-.125zm-37.498-35.201c-3.001-3.068-7.774 1.591-4.768 4.664 3.001 3.068 7.774-1.591 4.768-4.664zm39.71 13.916c-.115-2.519-2.924-3.266-4.95-3.032-2.599.31-5.444 1.334-7.79 2.767-.343.194-.668.407-.975.621a5.65 5.65 0 0 1-.4.282l-.103.096-.317.24c-.056.052-.041.125.011.163-.106.15-.124.375-.013.533.042.083.121.15.237.182l2.713.68c.152.051.304.085.465.127 2.229.57 4.496 1.069 6.774.882 1.958-.157 4.45-1.168 4.348-3.541zm-9.17 1.987l-2.304-.501-1.955-.405c-.09-.022-.189-.035-.269-.047l-.251-.046.221-.099c.018.001.018.001.027-.008l1.445-.62 3.959-1.494 2.841-.707c1.493-.229 6.386.405 3.557 3.482-1.552 1.691-5.379.838-7.271.445z"/><path d="M414.587 414.802c.063.012.118-.022.131-.103a1.51 1.51 0 0 0-.015-.299c.02-.053.013-.099.005-.126.001-.018.01-.027-.008-.027a2.46 2.46 0 0 0-.015-.525c-.019-.643-.092-1.288-.202-1.916-.386-2.512-1.276-5.08-2.514-7.12-1.059-1.752-3.376-3.492-5.424-2.038-.075.051-.14.112-.206.173-1.676 1.406-.953 3.868.086 5.448 1.1 1.645 2.6 2.991 4.168 4.239l3.27 2.529c.009.009.009.009.017.019.272.217.606.014.707-.254zm-3.964-3.697c-1.486-1.254-4.514-3.747-4.141-6.02.119-.701.31-1.172.567-1.478 1.229-1.533 3.747 1.048 4.362 2.149.481.842.85 1.771 1.212 2.672a23.91 23.91 0 0 1 .701 2.099l.962 3.476-.001.018c.015.073.048.147.063.22-.052-.056-.105-.095-.166-.142l-.419-.379-3.14-2.615z"/><path d="M418.804 417.991c-2.533-2.867-6.515-5.241-10.428-4.896-.152.013-.13.229-.011.273 3.645 1.361 6.838 2.9 10.135 4.988.232.148.486-.16.304-.365zm1.134 2.96c-2.533-2.867-6.515-5.241-10.429-4.896-.151.013-.13.229-.01.273 3.645 1.361 6.838 2.9 10.135 4.988.232.147.485-.16.304-.365zm1.134 2.959c-2.533-2.867-6.515-5.241-10.429-4.896-.152.013-.13.229-.011.273 3.645 1.36 6.838 2.9 10.135 4.988.233.148.487-.159.305-.365zm1.134 2.96c-2.533-2.867-6.515-5.241-10.429-4.896-.152.013-.13.228-.011.273 3.645 1.36 6.838 2.899 10.135 4.988.233.147.486-.16.305-.365zm5.891 13.917c-4.497-.201-9.034.292-13.534.248l-1.579-.016c-.576-.006-1.139.056-1.607-.333-.816-.677-1.502-1.595-2.219-2.376l-4.454-4.882-17.606-19.877-4.93-5.649c-1.646-1.891-3.414-3.669-5.066-5.553-.059-.068-.171.012-.114.085 1.409 1.785 2.702 3.658 4.145 5.417l4.355 5.256 8.867 10.245 9.045 10.092 4.624 5.03 2.252 2.421c.641.677 1.213 1.012 2.159 1.02 5.203.045 10.456-.544 15.654-.741.216-.008.228-.377.008-.387zm-3.969-32.951l-33.521-21.745s22.499-69.221 20.842-71.988c-2.166-3.617-36.036-18.934-48.075-32.042-15.841-17.248-7.191-38.37-7.191-38.37l31.666.03s4.222 11.405 5.08 12.785c3.457 5.562 56.111 24.483 61.351 46.982 5.384 23.127-30.152 104.348-30.152 104.348z"/></g><path d="M363.372 282.057c6.195 6.745 18.158 14.061 28.612 20.083l-17.699-58.426-18.107-.02s-8.651 21.123 7.194 38.363z" class="J"/><path d="M286.834 456.18c-.83-.054-15.621-.303-16.808-1.516-12.033-12.292-28.039-43.553-28.304-45.091-.184-.964 14.066-11.208 14.143-11.28 1.496-1.448 29.518-23.515 29.518-23.515l23.863 30.268-28.24 20.32-.474.411s.52 8.591 2.673 16.558c.298 1.105 4.74 6.077 4.999 6.994.859 3.038-.22 6.926-1.37 6.851z" class="E"/><path d="M286.839 456.177c-.84-.055-15.625-.3-16.815-1.519-12.032-12.287-28.039-43.545-28.304-45.09-.185-.965 14.068-11.201 14.142-11.275.37-.353 2.351-1.969 5.136-4.197l24.141 28.091-4.137 3.181-.473.406s.528 8.596 2.674 16.564c.305 1.101 4.741 6.075 4.998 6.994.862 3.033-.216 6.921-1.362 6.845z" class="G"/><path d="M287.393 456.442c-.498.292-16.725-.645-17.734-1.683-9.63-9.915-28.717-43.728-28.82-45.591-.058-.974 7.619-7.056 15.992-12.054l23.908 28.721s.89 10.712 2.576 16.531c.383 1.323 4.766 5.89 5.128 6.861 1.11 2.981-.335 6.796-1.05 7.215z" class="B"/><g class="C"><path d="M286.724 447.876c-2.223-1.691-5.171-2.239-7.313-1.836-2.059.387-4.294 1.394-5.544 3.317-.036.055.069.131.117.081 3.036-3.152 8.647-3.854 12.661-1.449.08.049.155-.055.079-.113zm-31.69-40.508c-2.498-3.49-7.926.386-5.424 3.882 2.498 3.49 7.926-.386 5.424-3.882zm37.122 19.809c.271-2.507-2.391-3.674-4.43-3.751-2.616-.09-5.584.488-8.121 1.546-.368.14-.722.3-1.058.465-.145.082-.297.153-.439.218l-.117.078-.35.189c-.064.043-.06.117-.014.163-.127.132-.18.352-.094.525a.36.36 0 0 0 .206.215l2.577 1.086c.142.074.288.13.44.197 2.116.903 4.281 1.742 6.56 1.904 1.963.146 4.58-.473 4.84-2.835zm-9.365.566l-2.2-.846-1.87-.698c-.085-.035-.181-.063-.259-.088l-.241-.084.234-.065c.018.003.018.003.028-.004l1.523-.392 4.14-.873 2.916-.266c1.51.002 6.25 1.374 2.985 3.983-1.794 1.436-5.446.01-7.256-.667z"/><path d="M278.285 426.49c.06.021.121-.004.145-.082a1.54 1.54 0 0 0 .031-.298c.028-.05.028-.096.024-.124.004-.018.014-.025-.004-.028.046-.184.059-.348.065-.521a13.49 13.49 0 0 0 .092-1.925c.001-2.541-.487-5.215-1.398-7.42-.78-1.893-2.804-3.966-5.05-2.842a1.85 1.85 0 0 0-.23.139c-1.871 1.134-1.532 3.677-.746 5.397.836 1.794 2.114 3.352 3.473 4.825l2.846 2.999.014.021c.237.258.598.108.738-.141zm-3.354-4.258c-1.278-1.466-3.89-4.391-3.175-6.581.224-.674.485-1.111.785-1.374 1.448-1.327 3.543 1.607 3.983 2.789.347.906.57 1.88.79 2.826.162.722.278 1.445.373 2.182l.421 3.582-.004.018c.004.074.025.152.029.227-.043-.064-.089-.109-.142-.166l-.356-.438-2.704-3.065z"/><path d="M281.967 430.285c-2.066-3.22-5.639-6.173-9.56-6.429-.152-.01-.164.206-.052.269 3.395 1.9 6.316 3.909 9.256 6.475.207.18.504-.085.356-.315zm.669 3.098c-2.066-3.22-5.639-6.173-9.56-6.43-.152-.01-.164.206-.052.268 3.394 1.901 6.316 3.909 9.256 6.476.207.181.504-.084.356-.314zm.669 3.097c-2.066-3.219-5.639-6.173-9.56-6.429-.152-.01-.164.206-.052.269 3.395 1.9 6.316 3.909 9.256 6.476.207.18.504-.085.356-.316zm.669 3.098c-2.066-3.219-5.639-6.173-9.56-6.429-.152-.01-.164.206-.052.269 3.395 1.9 6.316 3.909 9.256 6.475.208.181.504-.084.356-.315zm3.699 14.654c-4.413-.884-8.973-1.089-13.414-1.819l-1.558-.256c-.568-.094-1.134-.118-1.538-.574-.703-.794-1.241-1.805-1.83-2.686l-3.658-5.504-14.369-22.33-4.011-6.335c-1.338-2.12-2.814-4.146-4.16-6.26-.048-.076-.171-.014-.125.066 1.12 1.979 2.112 4.027 3.27 5.986l3.502 5.859 7.201 11.477 7.4 11.353 3.803 5.676 1.856 2.736c.53.767 1.044 1.185 1.978 1.337 5.135.838 10.416 1.057 15.584 1.655.217.024.286-.338.069-.381zm100.175-210.511s1.545 23.163-.286 33.211l-3.474 1.168s-14.747 64.123-20.042 78.607c-8.205 22.443-78.201 67.612-78.201 67.612l-28.817-31.882 68.118-47.088c1.113-8.671 14.794-63.276 14.258-64.759-6.102-16.882 5.627-36.87 5.627-36.87h42.817z"/></g><g class="J"><path d="M391.445 276.932l-2.524.162-2.501.373c-1.619.275-3.211.69-4.795 1.124-3.143.861-6.364 1.935-9.266 3.434-.106.055-.011.199.089.174l9.534-2.599 4.652-1.105 2.456-.594c.819-.18 1.601-.483 2.42-.662.174-.039.109-.323-.065-.307z"/><path d="M390.344 250.987c-.006-.072-.104-.06-.108.008-.369 6.338-.516 10.898-1.703 17.153-.24 1.268-.586 2.616-1.472 3.6-.479.532-1.117.995-1.809.543-.639-.417-.821-1.186-.852-1.905-.067-1.582.252-3.212.36-4.791a141.99 141.99 0 0 0 .224-4.518c.133-3.638.005-6.001-.025-9.637-.001-.128-.195-.112-.197.014-.043 3.762-.512 6.278-.825 10.024l-.509 5.432c-.152 1.564-.624 3.427-.047 4.95.36.951 1.23 1.762 2.249 1.863l-.104.287-.488 1.371c-.314.905-.601 1.828-.951 2.719-.047.119.105.24.195.13a7.91 7.91 0 0 0 1.416-2.575c.207-.619.389-1.286.493-1.952 1.268-.211 2.196-1.51 2.679-2.602.585-1.324.776-2.775.961-4.197.24-1.847.42-3.702.561-5.559.305-4.03.28-6.326-.048-10.358z"/></g><g class="B"><use xlink:href="#J"/><use xlink:href="#J"/></g><path d="M373.989 194.388c.978-.846 1.987-1.478 3.016-1.926 2.598 2.109 5.625 4.116 8.111 4.646 2.629.56 5.268.764 7.408.825.672 1.498 1.243 3.22 1.722 5.115h-.346c-2.578 0-6.185-.184-9.853-.958-3.953-.846-8.213-3.892-11.341-6.552a43.01 43.01 0 0 1 1.283-1.15zm-8.243 8.701c4.259 2.802 10.994 6.705 16.425 7.428 2.772.367 5.553.489 8.029.489a73.27 73.27 0 0 0 5.462-.194c-.214-1.753-.479-3.454-.795-5.054-2.996.183-7.591.296-12.023-.295-4.045-.54-9.66-3.638-13.766-6.287a70.52 70.52 0 0 0-3.332 3.913zm-6.97 9.986c5.268 2.598 14.449 6.48 23.477 7.031a43.48 43.48 0 0 0 2.812.081c4.463 0 8.671-.591 11.31-1.049-.081-1.732-.204-3.444-.357-5.115-2.823.509-8.254 1.314-13.46.999-7.805-.479-16.028-3.862-20.98-6.267-.958 1.406-1.895 2.843-2.802 4.32zm-5.247 9.262c5.777 2.119 18.565 6.43 28.724 7.051.937.061 1.885.081 2.822.081 4.575 0 8.895-.622 11.514-1.09l-.061-5.176c-2.639.51-8.427 1.437-13.97 1.1-9.018-.55-20.746-4.402-26.574-6.501-.845 1.499-1.661 3.017-2.455 4.535zm-4.749 9.864c5.207 1.895 19.207 6.45 33.34 6.45h.296c5.4-.031 10.831-.662 13.949-1.101l.173-5.166c-2.721.397-8.539 1.151-14.143 1.172-12.93.082-26.228-4.137-31.465-6.002-.754 1.559-1.467 3.108-2.15 4.647zm-4.972 12.064c4.28.703 22.641 3.536 38.047 3.536h.56c5.074-.031 10.179-.591 13.368-1.019l.377-5.207c-2.863.418-8.406 1.1-13.766 1.131h-.53c-13.786 0-30.548-2.415-36.162-3.291l-1.894 4.85zm-4.066 11.738v.01c3.077.357 15.773 1.753 29.437 1.753 4.473 0 9.058-.153 13.45-.54l12.044-1.08c.204-1.039.458-2.843.713-5.186l-13.206 1.192c-15.906 1.396-35.123-.469-40.809-1.09l-1.629 4.941z" class="F H"/><path d="M388.314 204.551c-2.687-.06-7.918-5.44-9.807-9.806-.128-.3.587-3.262 1.286-6.902.415-2.211.826-4.682 1.038-6.964l13.99 4.805s-1.851 4.653-2.195 8.634a5.21 5.21 0 0 0 .011.946c.001.044.009.097.006.157.126 1.806-.122 9.224-4.329 9.13z" class="E"/><path d="M380.306 184.888c1.029 3.301 3.964 8.427 12.319 9.425.346-3.984 2.191-8.63 2.191-8.63l-13.99-4.799c-.112 1.304-.306 2.659-.52 4.004z" class="C"/><path d="M375.228 166.024c-.801 5.268 3.995 19.447 8.057 22.17 5.889 3.948 14.469 3.152 17.555-3.684 2.991-6.627-3.585-24.995-8.024-27.36-6.538-3.483-16.405 1.092-17.588 8.874z" class="E"/><g class="C"><path d="M389.554 172.76c-.021-.034-.059.075-.043.114.393.965.682 2.137-.082 2.789-.024.02-.003.068.029.051 1.022-.551.624-2.102.096-2.954z"/><path d="M388.303 172.064c-1.615.464-.569 3.66.928 3.23 1.473-.422.426-3.619-.928-3.23zm6.94-1.256c-.004-.04.093.022.104.063.286 1.002.783 2.102 1.786 2.144.031.001.044.052.009.058-1.144.197-1.789-1.27-1.899-2.265z"/><path d="M395.797 169.488c1.557-.632 2.707 2.528 1.264 3.114-1.419.576-2.569-2.584-1.264-3.114zm-6.766.807c-.35.317-.726.551-1.105.829-.427.313-.735.607-1.288.631-.296.013-.613-.286-.653-.573-.092-.668.336-1.181.835-1.58.541-.432 1.069-.627 1.76-.62.672.007.912.895.451 1.313zm7.174-3.943c-.467.073-.909.062-1.378.086-.529.027-.948.104-1.422-.18-.255-.152-.355-.576-.231-.837.29-.608.93-.802 1.565-.861.69-.064 1.238.063 1.812.449.557.373.27 1.247-.346 1.343zm-4.22 14.33c1.086-.915 2.75-1.294 3.811-1.508.108-.055.136-.314.119-.428l-.003-.007-.762-2.065c.32.045 1.931.206 1.777-.179-1.283-3.184-2.708-6.726-4.657-9.624-.059-.099-.215-.019-.17.085 1.111 3.109 2.762 6.002 3.928 9.108-.504-.02-1.337-.09-1.728.049-.096.067.919 2.145.996 2.494 0 0-2.193.07-3.472 1.651-.331.41-.357.861.161.424zm-1.68 3.05c.312.149.653.384 1.017.293.349-.087.696-.376.966-.604.027-.022.069 0 .059.036-.126.461-.579.878-1.059.953-.469.073-.818-.234-1.063-.602-.033-.051.035-.097.08-.076z"/><path d="M393.921 178.878c-.927.296-3.799 1.872-2.888 3.188.399.576 1.393.087 2.04-.895s.848-2.293.848-2.293z"/></g><path d="M392.732 181.611c-.617.677-1.366.937-1.699.456-.248-.357-.216-.733-.017-1.098.566-.168 1.792-.409 1.716.642z" fill="#ff9abb"/><path d="M375.864 175.49l.56 2.15 4.422-.52c.56.041 5.737 1.213 8.08.489 2.242-.703 4.493-1.895 4.789-2.578.306-.693.795-1.61 1.314-1.61.764 0 1.009.764 1.722.764.56 0 2.089-.224 3.057-1.406.438-.55.836-1.691.846-1.844 0-.183-1.131-4.137-1.345-4.239-.499-.244-2.833-.143-4.086.265-.744.234-1.681 1.671-2.272 1.824-1.773.459-4.28-.061-6.287.652-1.131.408-2.547 1.263-3.434 2.068l-3.22 2.853c-.621.225-4.146 1.132-4.146 1.132zm19.217-4.25c-.325-1.44.652-2.72 1.621-3.26.958-.54 2.512.459 2.686 1.58.153.999.013 2.47-1.454 3.275s-2.596-.456-2.853-1.595zm-10.49 3.243c-.194-1.162 1.157-2.906 2.767-3.446s3.771.037 4.067 1.168c.255.988.29 3.016-2.155 3.821s-4.475-.382-4.679-1.543z" class="I"/><path d="M376.771 176.324c2.553-.817 3.584-9.5 3.584-9.5s.095 3.665.779 3.555 3.339-5.178 3.542-8.759c0 0 3.334 2.104 6.629 2.973s6.899.535 6.882-.019c-.051-1.652-1.696-5.918-3.989-7.375-2.639-1.676-6.385-3.261-11.65-1.049s-6.551 5.684-7.255 8.365.539 12.109 1.478 11.809z" class="C"/><path d="M380.08 177.441s-4.068-4.148-6.003-2.621 1.67 7.922 4.328 8.436 3.181-1.937 3.181-1.937l-1.506-3.878z" class="E"/><path d="M375.156 176.628c-.041.003-.039.061-.002.069 1.873.418 3.068 1.89 3.996 3.469-.63-.562-1.4-.799-2.166-.033-.04.04.016.105.063.086.693-.274 1.232-.236 1.814.258.412.35.733.826 1.057 1.256.108.143.377.012.288-.159-.006-.013-.014-.026-.021-.038-.329-2.244-2.59-5.084-5.029-4.908z" class="C"/><path d="M389.262 155.526c-1.677-.602-3.671-1.21-5.948-1.34s-6.978-.233-10.322 3.113c-2.774 2.775-2.248 7.621-2.227 8.606s.866 6.886 3.112 8.171 1.762-8.806 4.926-12.38 10.459-6.17 10.459-6.17z" class="I"/><path d="M389.264 155.528s-7.299 2.594-10.46 6.17c-3.166 3.57-2.681 13.663-4.93 12.381-.989-.566-1.513-1.473-2.01-3.021.249-2.975 1.127-7.626 3.366-10.958 2.096-3.122 5.949-4.891 10.15-5.659 1.436.258 2.732.674 3.884 1.087z" class="J"/><path d="M374.873 180.019c.009-2.699 2.247-10.074 4.83-14.391s10.839-7.3 12.021-7.313c2.869-.031 3.898.769 4.333.482s-2.655-2.234-3.492-2.66-3.078-1.415-4.319-1.3-8.85 1.4-11.411 4.858-5.875 12.883-4.993 15.178c.212.55.985.862 1.278 1.643.385 1.026.687 2.222 1.053 2.932.295.574.699.806.7.571z" class="I"/><path d="M380.235 163.734a13.7 13.7 0 0 1-1.95-1.235c-.61-.466-1.222-.989-1.705-1.588-.035-.044-.107-.001-.075.049.448.679.936 1.295 1.576 1.806.615.49 1.349.881 2.102 1.11.084.025.127-.103.052-.142zm-5.572 13.605c-.088-.189-.227-.352-.332-.532-.12-.205-.222-.421-.296-.647-.142-.433-.159-.882-.394-1.283-.186-.318-.439-.584-.691-.85-.286-.303-.57-.623-.604-1.055-.004-.057-.093-.053-.089.004.052.816.639 1.358 1.043 2.016.258.422.281.918.463 1.37.155.383.406.87.786 1.073.057.03.145-.03.114-.096zm.728-2.966l-.816-.86c-.238-.304-.451-.632-.646-.965l-.544-1.005-.689-1.167c-.026-.051-.1-.003-.075.048.208.418.343.873.538 1.298.167.367.373.72.586 1.061.206.329.435.638.701.922.251.269.574.564.918.707.025.012.047-.018.027-.039zm.797-2.692c-.586-.435-1.138-.964-1.575-1.55l-1.22-1.792c-.026-.041-.101-.009-.08.038.303.69.6 1.375 1.065 1.975.22.285.461.576.743.802.307.246.659.437 1.014.603.045.022.098-.043.053-.076zm.891-2.586c-.316-.159-.531-.411-.761-.67l-.737-.875-.689-.854c-.228-.289-.458-.591-.549-.953-.012-.048-.093-.034-.087.016.043.374.197.705.38 1.029.2.355.421.694.68 1.009s.522.607.814.882c.254.24.552.483.907.534.066.008.109-.084.042-.118zm.549-3.24l-.776-.702-.71-.767-.713-.833c-.035-.046-.102-.003-.075.049.171.327.342.644.562.943a7.68 7.68 0 0 0 .708.821 8.34 8.34 0 0 0 .792.723c.27.212.578.459.914.55.05.014.1-.052.066-.095-.208-.268-.511-.47-.768-.689zm4.561-3.788l-.884-.9c-.321-.288-.663-.555-1.013-.805-.687-.49-1.401-.931-2.18-1.261-.043-.018-.094.04-.051.073l4.068 2.96c.046.034.099-.025.06-.067zm1.467-2.409c-.294-.304-.616-.573-.97-.803-.742-.481-1.562-.816-2.389-1.123-.052-.02-.093.05-.041.079l2.167 1.275 1.013.721c.322.264.577.589.886.864.024.021.067-.003.054-.035-.142-.371-.448-.697-.72-.978zm2.164-1.207a5.9 5.9 0 0 0-.901-.806c-.62-.455-1.306-.79-2.04-1.017-.049-.015-.075.061-.031.083.679.348 1.333.757 1.943 1.215l.897.719c.295.241.553.553.871.763.026.017.051-.019.038-.042-.198-.334-.518-.627-.777-.915zm1.524-1.448l-.915-.596c-.306-.19-.617-.375-.969-.461-.053-.013-.07.056-.031.083l1.723 1.224c.538.388.916.909 1.358 1.394.02.021.057-.004.047-.03-.252-.651-.641-1.211-1.213-1.614zm1.985-.571c-.548-.474-1.192-.758-1.868-.994-.047-.017-.077.064-.031.083.63.258 1.194.682 1.714 1.114.531.441.974.962 1.395 1.506.02.026.071.008.056-.027-.27-.654-.734-1.221-1.266-1.682zm2.723 1.022c-.075-.137-.166-.267-.258-.393-.187-.254-.414-.481-.649-.689-.483-.429-1.047-.746-1.603-1.069-.05-.029-.092.051-.042.079a7.83 7.83 0 0 1 1.508 1.108 6.24 6.24 0 0 1 .625.675 4.97 4.97 0 0 1 .265.364c.079.117.148.266.248.365.026.027.079.003.075-.035-.016-.137-.104-.285-.169-.405zm1.625.033a6.67 6.67 0 0 0-.533-.569c-.19-.179-.385-.344-.595-.498l-.643-.472c-.05-.04-.104.035-.051.072.22.152.417.337.607.524l.542.528.539.529c.181.179.344.39.543.548.033.026.072-.01.054-.046-.113-.225-.302-.424-.463-.616z" class="C"/><path d="M393.121 199.381s.947-4.364.8-5.068-3.529-.344-6.3-1.371-8.022-4.076-8.587-4.076-1.017 5.447-1.017 5.447 5.643 10.966 10.445 10.779 4.659-5.711 4.659-5.711z" class="B"/><g class="C"><path d="M392.927 194.739c.12.448.092.87.029 1.285-.081.413-.198.819-.463 1.199-.121-.448-.093-.87-.029-1.285.082-.412.199-.819.463-1.199zm-2.276-.244c.119.448.092.87.029 1.285-.081.413-.198.819-.463 1.2-.121-.448-.093-.87-.029-1.285.082-.413.199-.819.463-1.2zm-2.067-.562c.12.448.092.869.029 1.285-.081.413-.198.819-.463 1.199-.121-.448-.093-.87-.029-1.285.082-.412.199-.818.463-1.199zm-2.051-.681c.12.448.092.87.029 1.285-.081.413-.198.819-.463 1.2-.121-.448-.093-.87-.029-1.285.082-.412.199-.819.463-1.2z"/><use xlink:href="#K"/><path d="M382.286 191.473c.119.448.092.87.029 1.285-.081.413-.198.819-.463 1.199-.121-.448-.093-.87-.029-1.285.082-.411.199-.818.463-1.199z"/><use xlink:href="#K" x="-4.077" y="-1.941"/></g><path d="M378.014 194.316s2.252 4.371 5.115 7.54l.917.234c2.904.611 5.777.856 8.121.927 1.009-1.63.958-3.638.958-3.638l.306-1.488c-2.17-.061-5.788-.245-8.315-.785-2.14-.458-4.687-2.017-7.01-3.78l-.092.99z" class="F H"/><path d="M370.454 206.167c-1.573 14.006-1.888 42.475 6.388 49.027 7.971 6.311 35.222-20.91 40.739-26.465 2.264-2.28-11.593-23.333-14.295-21.21-5.933 4.66-16.923 17.992-17.335 17.926-.366-.058-2.972-10.792-5.903-21.25-4.265-15.218-8.463-8.096-9.594 1.972z" class="E"/><path d="M418.255 187.432c2.778 1.233 1.461 4.082 1.461 4.082s2.003-.711 3.859.142c2.125.977 1.525 4.737 1.525 4.737s2.177-.3 4.046.798c1.94 1.139 1.876 5.02 1.876 5.02s2.181.835 3.116 2.943c1.598 3.604-1.742 8.615-3.888 11.784-3.188 4.709-11.095 10.269-12.67 11.791l-20.606-13.382s5.611-16.835 8.417-20.412c2.867-3.653 10.133-8.716 12.864-7.503z" class="I"/><path d="M419.293 191.441c-3.433 2.398-5.97 5.68-8.688 8.812-.06.07.05.164.109.093 2.668-3.146 5.925-5.723 8.712-8.757.077-.083-.041-.212-.133-.148zm5.495 4.843c-.76.566-1.332 1.381-1.911 2.12l-1.832 2.42-3.465 4.99c-.049.075.054.169.109.093l3.677-4.81 1.914-2.349c.599-.724 1.291-1.438 1.717-2.283.064-.126-.094-.266-.209-.181zm6.182 5.995c-.68.465-1.152 1.335-1.619 2.001l-1.601 2.259-3.28 4.46c-.056.073.052.166.109.093l3.466-4.431 1.667-2.203c.469-.627 1.127-1.357 1.335-2.128.012-.043-.043-.075-.077-.051z" class="C"/><path d="M396.162 213.09l19.318 20.321s-24.053 21.326-34.249 22.846-11.056-18.556-11.675-22.958c-.442-3.146-.565-22.9 1.31-31.489s5.388-9.738 8.858.218 6.193 22.491 6.547 22.19 9.891-11.128 9.891-11.128z" class="B"/><path d="M370.871 201.805l.245-1.06c1.131.846 3.536 2.557 5.543 3.485 1.121.52 2.721.815 4.127.968l1.569 5.237c-1.844-.081-5.278-.397-7.836-1.579-1.478-.683-3.047-1.661-4.351-2.537l.703-4.514zm-1.477 16.018c1.946.428 3.862.591 5.655.591a32.47 32.47 0 0 0 9.14-1.355l-1.345-4.922c-2.425.734-7.805 1.946-13.216.489l-.234 5.197zm-.113 6.511l.061 5.105c5.074-.143 9.466-1.773 12.767-3.546 1.518-.815 2.812-1.661 3.831-2.395-.275-.887-.713-2.537-1.274-4.646l-.183-.683c-1.843 1.539-7.743 5.921-15.202 6.165zm1.559 18.596c.347 1.814.795 3.678 1.386 5.411 6.073-4.473 10.393-11.361 13.318-17.556 1.528-3.261 2.67-6.328 3.475-8.753l.428-1.345-.693.774-2.486 2.761c-.051.041-.163-.214-.316-.713v-.01c-.285-.887-.723-2.537-1.284-4.646a76.06 76.06 0 0 1-2.558 7.041c-2.374 5.665-6.053 12.481-11.27 17.036zm10.924 13.236c1.712-.346 3.78-1.202 6.022-2.374 1.865-7.826 2.741-19.951 3.128-27.501l.265-6.521-.897-.02-.836.938-.693.774-2.486 2.761c-.051.041-.163-.214-.316-.713l-.408 7.275c-.641 9.424-1.823 20.837-3.779 25.381zm5.797-33.33c.122.153.234.336.357.52.744 1.06 1.63 2.384 2.608 3.862 3.434 5.186 7.897 12.39 10.322 18.046l4.157-3.179c-3.974-8.641-11.28-19.37-13.97-23.191l-3.393 3.821c-.01.01-.01.02-.02.02a.77.77 0 0 1-.061.101zm4.932-5.583c3.169 3.75 11.432 13.715 16.293 21.816l3.953-3.291c-5.461-8.895-14.061-19.146-16.843-22.386l-3.403 3.861z" class="F H"/><g class="C"><path d="M386.126 223.898c-.917 1.709-1.437 3.444-1.977 5.158-.547 1.739-.852 3.458-1.204 5.186-.008.039.086.031.096-.008.455-1.722 1.099-3.453 1.652-5.178l1.73-5.159c.029-.11-.239-.108-.297.001zm-16.732-6.184c.134 3.224.241 14.471.606 17.671.341 3.199.818 6.388 1.584 9.494.411 1.547.878 3.059 1.508 4.525.62 1.458 1.346 2.883 2.34 4.065.986 1.179 2.299 2.047 3.792 2.258 1.489.225 3.048-.088 4.522-.598 2.97-1.039 5.703-2.774 8.39-4.52 2.686-1.764 5.295-3.653 7.901-5.545l7.747-5.785 7.661-5.91-.005.08-1.23-1.374 1.31 1.298.041.041-.046.04-7.404 6.241-7.602 6.005c-2.569 1.959-5.19 3.851-7.875 5.662-2.698 1.774-5.433 3.592-8.575 4.687-1.563.523-3.266.868-4.984.596-.854-.131-1.684-.453-2.416-.911a8.06 8.06 0 0 1-1.906-1.696c-1.075-1.305-1.811-2.802-2.438-4.309-.645-1.501-1.073-3.099-1.45-4.677-2.263-10.547-1.559-20.889-1.471-27.338z"/><path d="M381.622 207.919l1.198 3.797 1.139 3.811 2.26 7.613.154.463.079.222.04.1.016.035-.008-.01-.044-.045c-.055-.051-.145-.082-.213-.079l-.054-.003c-.03 0-.062.009-.088.022-.013.007-.025.015-.036.023l.022-.019c.025-.023.046-.037.075-.067l.169-.165.34-.351 1.345-1.454 2.686-2.929 2.699-2.922 2.736-2.891.026-.028.023.027.389.457-.437-.412.049-.001-2.492 3.105-2.551 3.054-2.604 3.012-1.344 1.477-.349.366-.185.184c-.029.029-.074.067-.11.099l-.029.025-.02.016c-.019.014-.04.027-.062.039-.044.024-.094.042-.142.053-.029.005-.038.011-.081.011a.41.41 0 0 1-.238-.097.25.25 0 0 1-.05-.052l-.012-.017-.024-.035-.032-.055-.037-.077-.054-.131-.09-.245-.158-.481-2.098-7.688-.943-3.866-.86-3.891zm21.181 21.677l-6.686-6.968-3.915-3.852c-.05-.048-.14.03-.094.083l6.482 7.225 6.673 6.983 3.955 3.806c.027.025.073-.015.05-.044l-6.465-7.233z"/><path d="M383.488 210.636c.131.777.189 1.557.23 2.338l-.015 2.35c-.132-.777-.19-1.557-.23-2.338l.015-2.35z"/></g><path d="M406.712 155.326l9.005-12.909 4.434 4.513 8.12-9.732 4.64 4.864-13.168 8.48-3.528-4.398zm-2.871 7.182l12.426-2.774.005 3.967 9.028.606.084 4.242-12.11-2.194.953-3.879zm-4.166-7.184l-.916-11.957 4.258.519-.091-9.743 4.746-.511-2.692 12.621-3.787-.714z" class="I"/><defs ><path id="B" d="M438.156 317.218l-13.125.279-6.661.112-6.695.055-.444.003-.002-.449-.054-11.19-.002-.502.502.002 13.24.063 13.24.164.276.003-.003.27-.131 5.654-.141 5.536zm0 0l-.142-5.654-.131-5.536.273.273-13.24.164-13.24.063.499-.499-.054 11.19-.446-.446 6.546.055 6.579.112 13.356.278z"/><path id="C" d="M451.396 79.483l-13.125.279-6.661.112-6.695.055-.444.004-.002-.449-.054-11.19-.002-.502.502.002 13.24.063 13.24.164.276.003-.003.27-.131 5.654-.141 5.535zm0 0l-.142-5.654-.131-5.536.273.273-13.24.164-13.24.063.499-.499-.054 11.19-.446-.446 6.546.055 6.579.112 13.356.278z"/><path id="D" d="M94.637 349.081a.74.74 0 0 1-.034.32c-.035.103-.088.198-.16.283a.92.92 0 0 1-.251.21.75.75 0 0 1-.302.101.49.49 0 0 1-.406-.123.59.59 0 0 1-.194-.39.71.71 0 0 1 .037-.32c.037-.104.09-.197.16-.28s.151-.151.245-.207a.74.74 0 0 1 .298-.1c.164-.019.302.021.413.119s.176.227.194.387z"/><path id="E" d="M109.109 345.286l.807-.091 1.639 2.478.259-2.692 1.034-.116-.448 4.583-.82.093-1.631-2.41-.254 2.621-1.034.117.448-4.583z"/><path id="F" d="M160.478 339.498l.807-.091 1.639 2.478.259-2.693 1.034-.116-.448 4.583-.82.093-1.631-2.41-.254 2.621-1.034.117.448-4.582z"/><path id="G" d="M211.854 333.708l.807-.091 1.639 2.478.259-2.692 1.034-.116-.448 4.583-.82.093-1.631-2.409-.254 2.621-1.034.117.448-4.584z"/><path id="H" d="M384.385 208.205c10.831 24.647 24.975 48.885 31.149 43.075 5.465-5.142 1.315-28.49 1.067-28.906-.849-1.426-8.901-11.098-22.261-24.576-12.345-12.456-14.794-.604-9.955 10.407z"/><path id="I" d="M388.741 181.911c8.482.923 23.395 8.776 28.431 11.795 6.733 4.036 19.658 27.447 20.408 28.951.169.339-.572 8.753-5.581 11.421-2.177 1.159-7.044.995-9.046 2.4-1.924 1.351-.784 7.567-2.69 8.307-3.781 1.469-10.23-3.995-12.173-4.821-9.241-3.928-.71-25.059-3.98-29.549-4.492-6.167-9.329-18.218-16.848-18.799s-25.88 22.144-27.913 29.753-5.476 30.791-5.862 39.8-18.856 33.322-32.262 35.382c-37.958 5.832-49.214-26.758-49.686-43.33s14.906-34.624 31.391-47.533c31.324-24.528 66.208-25.911 85.811-23.777z"/><path id="J" d="M337.571 264.151c.119.187 56.136-6.444 56.813-6.997.947-.779 5.609-45.142-2.408-60.364-2.005-3.807-10.962-8.452-17.985-2.407-23.255 20.017-36.842 69.093-36.42 69.768z"/><path id="K" d="M384.301 192.371c.119.448.092.87.029 1.285-.081.413-.198.819-.463 1.199-.121-.448-.093-.87-.029-1.285.082-.412.199-.818.463-1.199z"/></defs></svg>